<!-- Generated by IcoMoon.io -->
<svg version="1.1" xmlns="http://www.w3.org/2000/svg" width="24" height="24" viewBox="0 0 24 24">
<title>0</title>
<path d="M17.989 12.012c0 1.878-0.196 3.486-0.589 4.825s-1.028 2.368-1.91 3.086c-0.883 0.718-2.050 1.077-3.503 1.077-2.057 0-3.568-0.792-4.531-2.375s-1.445-3.788-1.445-6.613c0-1.877 0.196-3.49 0.588-4.837s1.024-2.379 1.898-3.098c0.874-0.718 2.036-1.077 3.49-1.077 2.040 0 3.55 0.792 4.531 2.375 0.978 1.584 1.47 3.796 1.47 6.637zM9.122 12.012c0 2.139 0.207 3.747 0.625 4.825s1.163 1.617 2.241 1.617c1.062 0 1.808-0.535 2.241-1.604 0.432-1.069 0.648-2.681 0.648-4.837 0-2.139-0.216-3.75-0.648-4.837-0.433-1.085-1.18-1.628-2.241-1.628-1.078 0-1.824 0.543-2.241 1.628-0.417 1.086-0.625 2.698-0.625 4.837z"></path>
</svg>
