<!-- Generated by IcoMoon.io -->
<svg version="1.1" xmlns="http://www.w3.org/2000/svg" width="24" height="24" viewBox="0 0 24 24">
<title>2</title>
<path d="M17.913 21h-12.158v-2.312l4.525-4.574c0.895-0.911 1.628-1.69 2.2-2.337s0.995-1.255 1.268-1.827c0.274-0.572 0.41-1.189 0.41-1.852 0-0.812-0.228-1.421-0.683-1.828s-1.073-0.609-1.852-0.609c-0.746 0-1.442 0.153-2.089 0.46s-1.317 0.742-2.014 1.305l-1.716-2.063c0.729-0.63 1.554-1.181 2.474-1.654s2.092-0.708 3.518-0.708c1.144 0 2.126 0.203 2.946 0.609s1.455 0.969 1.902 1.69 0.672 1.545 0.672 2.474c0 0.961-0.192 1.844-0.572 2.648-0.382 0.804-0.933 1.608-1.654 2.412s-1.578 1.67-2.573 2.598l-2.81 2.71v0.149h8.205v2.71z"></path>
</svg>
