<!-- Generated by IcoMoon.io -->
<svg version="1.1" xmlns="http://www.w3.org/2000/svg" width="24" height="24" viewBox="0 0 24 24">
<title>3</title>
<path d="M17.407 7.242c0 1.194-0.348 2.146-1.042 2.857-0.696 0.711-1.59 1.189-2.686 1.435v0.073c1.407 0.18 2.469 0.622 3.188 1.324s1.079 1.627 1.079 2.771c0 1.014-0.246 1.921-0.736 2.722s-1.246 1.431-2.268 1.889-2.334 0.686-3.936 0.686c-0.965 0-1.851-0.078-2.661-0.233-0.808-0.155-1.574-0.397-2.293-0.724v-2.722c0.736 0.377 1.521 0.662 2.355 0.859 0.833 0.196 1.619 0.294 2.354 0.294 1.422 0 2.428-0.257 3.016-0.772s0.883-1.23 0.883-2.146c0-0.866-0.343-1.512-1.029-1.937-0.688-0.425-1.831-0.638-3.433-0.638h-1.472v-2.477h1.496c1.553 0 2.625-0.253 3.213-0.76s0.883-1.161 0.883-1.962c0-0.702-0.229-1.251-0.686-1.643-0.459-0.392-1.145-0.588-2.060-0.588-0.883 0-1.644 0.143-2.28 0.429-0.638 0.286-1.211 0.592-1.717 0.919l-1.471-2.134c0.669-0.491 1.462-0.907 2.379-1.251 0.915-0.343 1.994-0.515 3.236-0.515 1.815 0 3.218 0.384 4.205 1.153 0.99 0.768 1.485 1.799 1.485 3.090z"></path>
</svg>
