<!-- Generated by IcoMoon.io -->
<svg version="1.1" xmlns="http://www.w3.org/2000/svg" width="24" height="24" viewBox="0 0 24 24">
<title>5</title>
<path d="M12.074 9.588c1.127 0 2.122 0.207 2.984 0.621s1.538 1.015 2.027 1.803c0.489 0.788 0.734 1.753 0.734 2.897 0 1.906-0.595 3.398-1.777 4.475-1.185 1.078-2.898 1.616-5.135 1.616-0.928 0-1.803-0.083-2.623-0.248s-1.521-0.406-2.101-0.721v-2.785c0.613 0.332 1.346 0.605 2.2 0.821s1.669 0.323 2.449 0.323c1.176 0 2.101-0.257 2.772-0.77s1.007-1.318 1.007-2.412c0-0.978-0.315-1.728-0.944-2.25-0.63-0.522-1.608-0.783-2.935-0.783-0.482 0-0.986 0.042-1.516 0.124s-0.97 0.166-1.318 0.248l-1.342-0.746 0.671-8.801h9.349v2.735h-6.59l-0.373 4.102c0.282-0.050 0.618-0.103 1.008-0.162 0.388-0.058 0.872-0.087 1.453-0.087z"></path>
</svg>
