<!-- Generated by IcoMoon.io -->
<svg version="1.1" xmlns="http://www.w3.org/2000/svg" width="24" height="24" viewBox="0 0 24 24">
<title>6</title>
<path d="M5.971 13.29c0-1.015 0.070-2.014 0.209-2.996s0.388-1.911 0.749-2.787c0.36-0.875 0.859-1.653 1.498-2.333s1.453-1.211 2.443-1.596c0.991-0.385 2.19-0.578 3.598-0.578 0.344 0 0.737 0.017 1.178 0.049 0.443 0.033 0.812 0.082 1.106 0.148v2.554c-0.637-0.18-1.342-0.27-2.112-0.27-1.474 0-2.62 0.266-3.438 0.798-0.819 0.532-1.392 1.261-1.719 2.186s-0.524 1.96-0.59 3.106h0.148c0.344-0.573 0.835-1.060 1.473-1.461 0.64-0.402 1.465-0.602 2.48-0.602 1.524 0 2.742 0.475 3.66 1.424 0.916 0.95 1.375 2.3 1.375 4.052 0 1.882-0.525 3.356-1.571 4.42-1.048 1.064-2.465 1.596-4.248 1.596-1.163 0-2.215-0.278-3.156-0.835-0.942-0.556-1.691-1.403-2.247-2.542-0.557-1.137-0.835-2.582-0.835-4.334zM12.16 18.471c0.834 0 1.514-0.282 2.038-0.847s0.786-1.436 0.786-2.615c0-0.949-0.229-1.698-0.687-2.247s-1.145-0.823-2.063-0.823c-0.639 0-1.191 0.135-1.657 0.405-0.467 0.27-0.832 0.614-1.093 1.032s-0.393 0.847-0.393 1.289c0 0.606 0.115 1.2 0.344 1.78s0.57 1.065 1.020 1.449c0.449 0.385 1.020 0.577 1.707 0.577z"></path>
</svg>
