<!-- Generated by IcoMoon.io -->
<svg version="1.1" xmlns="http://www.w3.org/2000/svg" width="24" height="24" viewBox="0 0 24 24">
<title>8</title>
<path d="M11.757 3c1.015 0 1.932 0.156 2.75 0.467s1.473 0.782 1.965 1.412c0.491 0.631 0.737 1.404 0.737 2.321 0 1.048-0.311 1.912-0.934 2.591s-1.383 1.248-2.283 1.706c0.671 0.344 1.292 0.729 1.866 1.154 0.573 0.426 1.035 0.929 1.387 1.51s0.528 1.265 0.528 2.051c0 0.966-0.254 1.809-0.761 2.529-0.508 0.721-1.208 1.277-2.099 1.67-0.893 0.393-1.937 0.589-3.132 0.589-1.948 0-3.446-0.417-4.493-1.252-1.048-0.835-1.572-1.981-1.572-3.438 0-0.802 0.156-1.498 0.466-2.087s0.728-1.097 1.252-1.523c0.524-0.425 1.105-0.794 1.744-1.105-0.802-0.491-1.486-1.084-2.051-1.78s-0.847-1.576-0.847-2.639c0-0.9 0.25-1.661 0.749-2.284s1.162-1.093 1.99-1.412c0.826-0.319 1.739-0.479 2.738-0.479zM8.663 16.162c0 0.721 0.253 1.314 0.761 1.78s1.277 0.7 2.309 0.7c1.015 0 1.784-0.229 2.308-0.688s0.785-1.056 0.785-1.793c0-0.736-0.294-1.35-0.883-1.841s-1.285-0.917-2.087-1.277l-0.344-0.172c-0.884 0.41-1.58 0.872-2.087 1.388s-0.761 1.15-0.761 1.903zM11.733 5.333c-0.721 0-1.314 0.181-1.78 0.54s-0.7 0.868-0.7 1.523c0 0.72 0.246 1.293 0.737 1.719s1.088 0.794 1.792 1.105c0.671-0.294 1.248-0.654 1.731-1.081 0.483-0.425 0.725-1.007 0.725-1.743 0-0.655-0.233-1.162-0.7-1.523s-1.068-0.54-1.805-0.54z"></path>
</svg>
