<!-- Generated by IcoMoon.io -->
<svg version="1.1" xmlns="http://www.w3.org/2000/svg" width="24" height="24" viewBox="0 0 24 24">
<title>9</title>
<path d="M17.74 10.711c0 0.999-0.075 1.993-0.222 2.984s-0.401 1.924-0.761 2.799c-0.361 0.876-0.86 1.653-1.499 2.333s-1.452 1.212-2.443 1.596c-0.991 0.385-2.19 0.577-3.598 0.577-0.327 0-0.721-0.016-1.179-0.049s-0.827-0.082-1.105-0.148v-2.554c0.639 0.181 1.342 0.27 2.112 0.27 1.473 0 2.619-0.266 3.438-0.798s1.396-1.256 1.731-2.173c0.335-0.916 0.529-1.948 0.576-3.094h-0.147c-0.36 0.557-0.843 1.035-1.449 1.436s-1.457 0.602-2.554 0.602c-1.49 0-2.689-0.475-3.598-1.424s-1.363-2.292-1.363-4.027c0-1.882 0.524-3.36 1.572-4.433s2.464-1.609 4.248-1.609c1.162 0 2.214 0.279 3.156 0.835s1.691 1.404 2.247 2.542 0.835 2.582 0.835 4.334zM11.551 5.554c-0.835 0-1.514 0.279-2.038 0.835-0.524 0.557-0.786 1.424-0.786 2.603 0 0.966 0.225 1.723 0.675 2.272s1.142 0.822 2.075 0.822c0.639 0 1.195-0.135 1.67-0.405s0.839-0.618 1.093-1.043c0.253-0.426 0.38-0.86 0.38-1.302 0-0.606-0.115-1.195-0.343-1.768-0.23-0.573-0.569-1.052-1.019-1.437s-1.019-0.577-1.707-0.577z"></path>
</svg>
