<!-- Generated by IcoMoon.io -->
<svg version="1.1" xmlns="http://www.w3.org/2000/svg" width="24" height="24" viewBox="0 0 24 24">
<title>Alibi_Table</title>
<path fill="#000" d="M14.23 16.018l-0.728-2.119h-3.016l-0.717 2.119h-1.524l2.937-8.037h1.636l2.937 8.037h-1.525zM13.132 12.667l-0.695-2.063c-0.029-0.097-0.075-0.237-0.135-0.421-0.058-0.183-0.115-0.37-0.168-0.561-0.051-0.19-0.097-0.349-0.135-0.476-0.036 0.157-0.084 0.333-0.139 0.527-0.057 0.194-0.109 0.378-0.157 0.549-0.049 0.172-0.089 0.299-0.119 0.381l-0.706 2.063h2.253z"></path>
<path fill="#1d1d1b" d="M18.582 21h-13.164v-18h9.294l3.87 4.375v13.625zM6.791 19.626h10.419v-11.73l-3.116-3.522h-7.303v15.252z"></path>
</svg>
