<!-- Generated by IcoMoon.io -->
<svg version="1.1" xmlns="http://www.w3.org/2000/svg" width="24" height="24" viewBox="0 0 24 24">
<title>ApplicationBundle</title>
<path d="M16.664 15.122l2.296 1.118-6.959 3.39-6.959-3.39 2.296-1.118-1.020-0.497-3.316 1.616 9 4.384 9-4.384-3.316-1.616z"></path>
<path d="M16.664 10.679l2.296 1.245-6.959 3.775-6.959-3.775 2.296-1.245-1.020-0.554-3.316 1.799 9 4.883 9-4.883-3.316-1.799z"></path>
<path d="M12 4.38l6.959 3.427-6.959 3.427-6.959-3.427 6.959-3.427zM12 3.375l-9 4.432 9 4.432 9-4.432-9-4.432z"></path>
</svg>
