<!-- Generated by IcoMoon.io -->
<svg version="1.1" xmlns="http://www.w3.org/2000/svg" width="24" height="24" viewBox="0 0 24 24">
<title>Approval_Event_Log</title>
<path d="M9.107 6.214h7.714v2.571h-7.714v-2.571z"></path>
<path d="M5.893 3v2.25h-0.643v0.643h0.643v1.929h-0.643v0.643h0.643v1.929h-0.643v0.643h0.643v1.929h-0.643v0.643h0.643v1.929h-0.643v0.643h0.643v1.929h-0.643v0.643h0.643v2.25h12.857v-18h-12.857zM17.721 19.971h-10.8v-1.221h0.9v-0.643h-0.9v-1.929h0.9v-0.643h-0.9v-1.929h0.9v-0.643h-0.9v-1.929h0.9v-0.643h-0.9v-1.929h0.9v-0.643h-0.9v-1.929h0.9v-0.643h-0.9v-1.221h10.8v15.943z"></path>
<path d="M11.841 17.642l-2.749-2.649 0.666-0.691 2.058 1.984 4.3-4.461 0.691 0.666z"></path>
</svg>
