<!-- Generated by IcoMoon.io -->
<svg version="1.1" xmlns="http://www.w3.org/2000/svg" width="24" height="24" viewBox="0 0 24 24">
<title>Attach_File</title>
<path d="M15.273 7.091v9.409c0 1.808-1.465 3.273-3.273 3.273s-3.273-1.465-3.273-3.273v-10.227c0-1.129 0.916-2.045 2.045-2.045s2.045 0.916 2.045 2.045v8.591c0 0.45-0.368 0.818-0.818 0.818s-0.818-0.368-0.818-0.818v-7.773h-1.227v7.773c0 1.129 0.916 2.045 2.045 2.045s2.045-0.916 2.045-2.045v-8.591c0-1.808-1.465-3.273-3.273-3.273s-3.273 1.465-3.273 3.273v10.227c0 2.487 2.013 4.5 4.5 4.5s4.5-2.013 4.5-4.5v-9.409h-1.227z"></path>
</svg>
