<!-- Generated by IcoMoon.io -->
<svg version="1.1" xmlns="http://www.w3.org/2000/svg" width="24" height="24" viewBox="0 0 24 24">
<title>Attention</title>
<path d="M10.106 19.094c0-0.693 0.185-1.184 0.558-1.473 0.371-0.289 0.82-0.433 1.348-0.433 0.512 0 0.953 0.144 1.326 0.433 0.371 0.289 0.556 0.78 0.556 1.473 0 0.677-0.185 1.164-0.556 1.461-0.373 0.297-0.814 0.445-1.326 0.445-0.528 0-0.977-0.148-1.348-0.445-0.373-0.297-0.558-0.784-0.558-1.461zM13.201 15.158h-2.378l-0.619-12.158h3.615l-0.619 12.158z"></path>
</svg>
