<!-- Generated by IcoMoon.io -->
<svg version="1.1" xmlns="http://www.w3.org/2000/svg" width="24" height="24" viewBox="0 0 24 24">
<title>Barrier</title>
<path d="M19.234 1.5l-10.914 7.642v-1.005h-5.848v14.363h5.848v-8.474l13.209-9.25-2.295-3.277zM7.116 21.297h-3.441v-11.956h3.441v11.956zM19.852 4.481l-1.673 1.171 0.391-2.219 0.368-0.258 0.914 1.305zM13.498 6.986l1.142-0.8-0.391 2.219-1.142 0.8 0.391-2.219zM11.711 10.181l-1.141 0.799 0.391-2.219 1.141-0.799-0.391 2.219zM16.034 5.21l1.141-0.799-0.391 2.219-1.141 0.799 0.391-2.219zM8.319 10.612l1.247-0.873-0.391 2.219-0.856 0.599v-1.945z"></path>
</svg>
