<!-- Generated by IcoMoon.io -->
<svg version="1.1" xmlns="http://www.w3.org/2000/svg" width="24" height="24" viewBox="0 0 24 24">
<title>BatchList</title>
<path d="M18.798 3.719c0.102 0.247 0.242 0.471 0.372 0.68 0.22 0.353 0.411 0.659 0.411 1.007 0 0.357-0.204 0.7-0.419 1.063-0.128 0.216-0.266 0.448-0.367 0.7h-7.774c-0.102-0.247-0.242-0.471-0.372-0.68-0.22-0.353-0.411-0.659-0.411-1.007 0-0.357 0.204-0.7 0.419-1.063 0.128-0.216 0.266-0.448 0.367-0.7h7.774zM19.365 3h-8.91c0 0.764-0.934 1.451-0.934 2.482s0.934 1.642 0.934 2.406h8.91c0-0.764 0.934-1.451 0.934-2.482s-0.934-1.642-0.934-2.406v0z"></path>
<path d="M11.727 5.428l-0.485-0.717h0.387l0.319 0.498 0.319-0.498h0.387l-0.49 0.717 0.514 0.75h-0.387l-0.344-0.533-0.344 0.533h-0.387l0.509-0.75z"></path>
<path d="M13.208 5.428l-0.485-0.717h0.387l0.319 0.498 0.319-0.498h0.387l-0.49 0.717 0.514 0.75h-0.387l-0.344-0.533-0.344 0.533h-0.387l0.509-0.75z"></path>
<path d="M14.688 5.428l-0.485-0.717h0.387l0.319 0.498 0.319-0.498h0.387l-0.49 0.717 0.515 0.75h-0.387l-0.344-0.533-0.344 0.533h-0.387l0.509-0.75z"></path>
<path d="M16.168 5.428l-0.485-0.717h0.387l0.319 0.498 0.319-0.498h0.387l-0.49 0.717 0.515 0.75h-0.387l-0.344-0.533-0.344 0.533h-0.387l0.509-0.75z"></path>
<path d="M17.648 5.428l-0.485-0.717h0.387l0.319 0.498 0.319-0.498h0.387l-0.49 0.717 0.515 0.75h-0.387l-0.344-0.533-0.344 0.533h-0.387l0.509-0.75z"></path>
<path d="M6.314 7.888h-0.862v-3.046c0-0.146 0.002-0.301 0.007-0.465s0.011-0.317 0.021-0.459c-0.046 0.046-0.102 0.1-0.168 0.164s-0.138 0.126-0.216 0.185l-0.548 0.438-0.431-0.534 1.479-1.171h0.719v4.888z"></path>
<path d="M18.798 10.275c0.102 0.247 0.242 0.471 0.372 0.68 0.22 0.353 0.411 0.659 0.411 1.007 0 0.357-0.204 0.7-0.419 1.063-0.128 0.216-0.266 0.448-0.367 0.7h-7.774c-0.102-0.247-0.242-0.471-0.372-0.68-0.22-0.353-0.411-0.659-0.411-1.007 0-0.357 0.204-0.7 0.419-1.063 0.128-0.216 0.266-0.448 0.367-0.7h7.774zM19.365 9.556h-8.91c0 0.764-0.934 1.451-0.934 2.482s0.934 1.642 0.934 2.406h8.91c0-0.764 0.934-1.451 0.934-2.482s-0.934-1.642-0.934-2.406v0z"></path>
<path d="M11.727 11.984l-0.485-0.717h0.387l0.319 0.498 0.319-0.498h0.387l-0.49 0.717 0.514 0.75h-0.387l-0.344-0.533-0.344 0.533h-0.387l0.509-0.75z"></path>
<path d="M13.208 11.984l-0.485-0.717h0.387l0.319 0.498 0.319-0.498h0.387l-0.49 0.717 0.514 0.75h-0.387l-0.344-0.533-0.344 0.533h-0.387l0.509-0.75z"></path>
<path d="M14.688 11.984l-0.485-0.717h0.387l0.319 0.498 0.319-0.498h0.387l-0.49 0.717 0.515 0.75h-0.387l-0.344-0.533-0.344 0.533h-0.387l0.509-0.75z"></path>
<path d="M16.168 11.984l-0.485-0.717h0.387l0.319 0.498 0.319-0.498h0.387l-0.49 0.717 0.515 0.75h-0.387l-0.344-0.533-0.344 0.533h-0.387l0.509-0.75z"></path>
<path d="M17.648 11.984l-0.485-0.717h0.387l0.319 0.498 0.319-0.498h0.387l-0.49 0.717 0.515 0.75h-0.387l-0.344-0.533-0.344 0.533h-0.387l0.509-0.75z"></path>
<path d="M6.957 14.444h-3.256v-0.619l1.212-1.225c0.24-0.244 0.436-0.453 0.589-0.626s0.266-0.336 0.34-0.489 0.11-0.318 0.11-0.496c0-0.218-0.061-0.381-0.183-0.489s-0.288-0.163-0.496-0.163c-0.2 0-0.386 0.041-0.56 0.123s-0.353 0.199-0.539 0.35l-0.46-0.553c0.195-0.169 0.416-0.316 0.663-0.443s0.56-0.19 0.942-0.19c0.306 0 0.569 0.054 0.789 0.163s0.39 0.26 0.509 0.453c0.12 0.193 0.18 0.414 0.18 0.663 0 0.257-0.051 0.494-0.153 0.709s-0.25 0.431-0.443 0.646-0.423 0.447-0.689 0.696l-0.752 0.726v0.040h2.198v0.726z"></path>
<path d="M18.798 16.831c0.102 0.247 0.242 0.471 0.372 0.68 0.22 0.353 0.411 0.659 0.411 1.007 0 0.357-0.204 0.7-0.419 1.063-0.128 0.216-0.266 0.448-0.367 0.7h-7.774c-0.102-0.247-0.242-0.471-0.372-0.68-0.22-0.353-0.411-0.659-0.411-1.007 0-0.357 0.204-0.7 0.419-1.063 0.128-0.216 0.266-0.448 0.367-0.7h7.774zM19.365 16.112h-8.91c0 0.764-0.934 1.451-0.934 2.482s0.934 1.642 0.934 2.406h8.91c0-0.764 0.934-1.451 0.934-2.482s-0.934-1.642-0.934-2.406v0z"></path>
<path d="M11.727 18.54l-0.485-0.717h0.387l0.319 0.498 0.319-0.498h0.387l-0.49 0.717 0.514 0.75h-0.387l-0.344-0.533-0.344 0.533h-0.387l0.509-0.75z"></path>
<path d="M13.208 18.54l-0.485-0.717h0.387l0.319 0.498 0.319-0.498h0.387l-0.49 0.717 0.514 0.75h-0.387l-0.344-0.533-0.344 0.533h-0.387l0.509-0.75z"></path>
<path d="M14.688 18.54l-0.485-0.717h0.387l0.319 0.498 0.319-0.498h0.387l-0.49 0.717 0.515 0.75h-0.387l-0.344-0.533-0.344 0.533h-0.387l0.509-0.75z"></path>
<path d="M16.168 18.54l-0.485-0.717h0.387l0.319 0.498 0.319-0.498h0.387l-0.49 0.717 0.515 0.75h-0.387l-0.344-0.533-0.344 0.533h-0.387l0.509-0.75z"></path>
<path d="M17.648 18.54l-0.485-0.717h0.387l0.319 0.498 0.319-0.498h0.387l-0.49 0.717 0.515 0.75h-0.387l-0.344-0.533-0.344 0.533h-0.387l0.509-0.75z"></path>
<path d="M6.797 17.264c0 0.324-0.094 0.583-0.283 0.776s-0.432 0.323-0.729 0.389v0.020c0.382 0.049 0.67 0.169 0.866 0.36s0.293 0.442 0.293 0.752c0 0.275-0.067 0.522-0.2 0.739s-0.339 0.389-0.616 0.513c-0.278 0.124-0.634 0.186-1.069 0.186-0.262 0-0.503-0.021-0.723-0.063s-0.427-0.108-0.622-0.196v-0.739c0.2 0.102 0.413 0.18 0.639 0.233s0.44 0.080 0.639 0.080c0.386 0 0.659-0.070 0.819-0.21s0.24-0.334 0.24-0.583c0-0.235-0.093-0.411-0.28-0.526s-0.497-0.173-0.932-0.173h-0.4v-0.673h0.406c0.422 0 0.712-0.069 0.872-0.206s0.24-0.315 0.24-0.533c0-0.191-0.062-0.34-0.186-0.446s-0.311-0.16-0.56-0.16c-0.24 0-0.446 0.039-0.619 0.117s-0.329 0.161-0.466 0.25l-0.399-0.58c0.182-0.133 0.397-0.246 0.646-0.34s0.541-0.14 0.879-0.14c0.493 0 0.873 0.104 1.142 0.313s0.403 0.489 0.403 0.839z"></path>
</svg>
