<!-- Generated by IcoMoon.io -->
<svg version="1.1" xmlns="http://www.w3.org/2000/svg" width="24" height="24" viewBox="0 0 24 24">
<title>Batch</title>
<path d="M18.493 9.119c0.171 0.413 0.404 0.787 0.621 1.136 0.368 0.59 0.686 1.1 0.686 1.682 0 0.596-0.34 1.169-0.7 1.775-0.214 0.361-0.444 0.748-0.612 1.17h-12.981c-0.171-0.413-0.404-0.787-0.621-1.136-0.368-0.59-0.686-1.1-0.686-1.682 0-0.596 0.34-1.169 0.7-1.775 0.214-0.361 0.444-0.748 0.612-1.17h12.981zM19.44 7.919h-14.88c0 1.275-1.56 2.423-1.56 4.145s1.56 2.742 1.56 4.018h14.88c0-1.275 1.56-2.423 1.56-4.145s-1.56-2.742-1.56-4.018v0z"></path>
<path d="M6.685 11.973l-0.809-1.198h0.646l0.533 0.832 0.533-0.832h0.647l-0.818 1.198 0.859 1.252h-0.647l-0.574-0.89-0.574 0.89h-0.646l0.85-1.252z"></path>
<path d="M9.157 11.973l-0.809-1.198h0.646l0.533 0.832 0.533-0.832h0.647l-0.818 1.198 0.859 1.252h-0.647l-0.574-0.89-0.574 0.89h-0.646l0.85-1.252z"></path>
<path d="M11.629 11.973l-0.809-1.198h0.646l0.533 0.832 0.533-0.832h0.647l-0.818 1.198 0.859 1.252h-0.647l-0.574-0.89-0.574 0.89h-0.646l0.85-1.252z"></path>
<path d="M14.101 11.973l-0.809-1.198h0.646l0.533 0.832 0.533-0.832h0.647l-0.818 1.198 0.859 1.252h-0.647l-0.574-0.89-0.574 0.89h-0.646l0.85-1.252z"></path>
<path d="M16.573 11.973l-0.809-1.198h0.646l0.533 0.832 0.533-0.832h0.647l-0.818 1.198 0.859 1.252h-0.647l-0.574-0.89-0.574 0.89h-0.646l0.85-1.252z"></path>
</svg>
