<!-- Generated by IcoMoon.io -->
<svg version="1.1" xmlns="http://www.w3.org/2000/svg" width="24" height="24" viewBox="0 0 24 24">
<title>Brightness_default</title>
<path d="M11.23 1.5h1.444v3.452h-1.444v-3.452z"></path>
<path d="M11.326 19.048h1.444v3.452h-1.444v-3.452z"></path>
<path d="M19.048 11.23h3.452v1.444h-3.452v-1.444z"></path>
<path d="M1.5 11.326h3.451v1.444h-3.451v-1.444z"></path>
<path d="M6.082 3.291l1.251-0.722 1.727 2.99-1.251 0.722-1.727-2.99z"></path>
<path d="M14.94 18.441l1.252-0.722 1.726 2.99-1.252 0.722-1.726-2.99z"></path>
<path d="M17.719 7.81l2.988-1.728 0.723 1.25-2.988 1.728-0.723-1.25z"></path>
<path d="M2.569 16.667l2.988-1.728 0.723 1.25-2.988 1.728-0.723-1.25z"></path>
<path d="M2.522 7.417l0.722-1.251 2.989 1.726-0.722 1.251-2.989-1.726z"></path>
<path d="M17.766 16.109l0.722-1.252 2.99 1.726-0.722 1.252-2.99-1.726z"></path>
<path d="M14.856 5.51l1.728-2.988 1.25 0.723-1.728 2.988-1.25-0.723z"></path>
<path d="M6.165 20.755l1.728-2.988 1.25 0.723-1.728 2.988-1.25-0.723z"></path>
<path d="M18.041 12c0-3.336-2.705-6.041-6.041-6.041v0c-0 0-0 0-0 0-3.336 0-6.041 2.705-6.041 6.041s2.705 6.041 6.041 6.041c0 0 0 0 0 0v0c3.336-0 6.041-2.705 6.041-6.041zM12 16.596v-9.193c2.534 0 4.596 2.062 4.596 4.596s-2.062 4.596-4.596 4.596z"></path>
</svg>
