<!-- Generated by IcoMoon.io -->
<svg version="1.1" xmlns="http://www.w3.org/2000/svg" width="24" height="24" viewBox="0 0 24 24">
<title>BrowseFolder</title>
<path d="M8.75 4.25h-5.75v15.5h18v-14.25h-10.75l-1.5-1.25zM4.2 7.5v-2.050h4.116l1.5 1.25h9.984v0.8h-15.6zM4.2 18.55v-10.3h15.6v10.3h-15.6z"></path>
<path d="M10.864 15.701c-0.858 0-1.716-0.327-2.37-0.98v0c-1.307-1.307-1.307-3.433 0-4.739 0.633-0.633 1.474-0.981 2.37-0.981s1.737 0.348 2.37 0.981c0.633 0.633 0.982 1.475 0.982 2.37s-0.349 1.736-0.982 2.37c-0.653 0.653-1.511 0.98-2.37 0.98zM8.987 14.228c1.035 1.035 2.719 1.035 3.754 0 0.501-0.501 0.778-1.168 0.778-1.877s-0.276-1.376-0.778-1.877c-1.002-1.002-2.751-1.002-3.754 0-1.035 1.035-1.035 2.719 0 3.754v0z"></path>
<path d="M13.036 15.29l0.739-0.739 2.71 2.71-0.739 0.739-2.71-2.71z"></path>
</svg>
