<!-- Generated by IcoMoon.io -->
<svg version="1.1" xmlns="http://www.w3.org/2000/svg" width="24" height="24" viewBox="0 0 24 24">
<title>Calculate</title>
<path d="M11.024 8.29h-2.68v2.68h-1.119v-2.68h-2.68v-1.119h2.68v-2.686h1.119v2.686h2.68v1.119z"></path>
<path d="M19.653 8.29h-6.478v-1.119h6.478v1.119z"></path>
<path d="M10.876 18.571l-0.787 0.787-2.306-2.306-2.3 2.306-0.793-0.794 2.306-2.286-2.306-2.306 0.78-0.794 2.313 2.306 2.313-2.306 0.773 0.807-2.3 2.293 2.306 2.293z"></path>
<path d="M19.66 16.835h-6.485v-1.119h6.485v1.119zM16.431 19.731c-0.231 0-0.426-0.078-0.587-0.234s-0.241-0.345-0.241-0.566c0-0.231 0.078-0.431 0.234-0.6s0.354-0.254 0.594-0.254c0.529 0 0.794 0.28 0.794 0.841 0 0.231-0.076 0.424-0.227 0.58s-0.34 0.234-0.566 0.234zM16.492 14.467c-0.24 0-0.442-0.078-0.607-0.234s-0.248-0.347-0.248-0.573c0-0.235 0.076-0.435 0.227-0.6s0.349-0.248 0.594-0.248c0.534 0 0.8 0.278 0.8 0.834 0 0.24-0.076 0.436-0.227 0.59s-0.331 0.231-0.539 0.231z"></path>
<path d="M3 3v18h18v-18h-18zM3.918 11.541v-7.622h7.622v7.622h-7.622zM3.918 20.082v-7.622h7.622v7.622h-7.622zM12.459 11.541v-7.622h7.622v7.622h-7.622zM12.459 20.082v-7.622h7.622v7.622h-7.622z"></path>
</svg>
