<!-- Generated by IcoMoon.io -->
<svg version="1.1" xmlns="http://www.w3.org/2000/svg" width="24" height="24" viewBox="0 0 24 24">
<title>CalibrationTest</title>
<path d="M12.166 20.884h-4.668c-1.238-0.231-1.715-1.539-1.765-1.687l-0.033-0.197 0.053-10.645c0.272-0.605 1.325-0.945 2.244-1.128 0.042-0.067 0.072-0.139 0.067-0.206-0.006-0.070-0.047-0.142-0.093-0.203h-0.607c-0.424-0.019-0.766-0.178-1.019-0.459-0.498-0.551-0.469-1.387-0.464-1.481-0.168-0.864 0.719-1.54 1.617-1.745l8.869-0.016c1.033 0.221 1.921 0.898 1.744 1.899 0-0.001 0.001-0.001 0.001-0.001 0.013 0 0.029 0.809-0.456 1.344-0.253 0.28-0.596 0.439-0.99 0.457h-0.636c-0.046 0.061-0.087 0.135-0.093 0.205-0.005 0.067 0.024 0.139 0.067 0.206 0.919 0.183 1.971 0.522 2.244 1.128l0.053 0.249-0.033 10.593c-0.050 0.148-0.528 1.456-1.648 1.675l-4.453 0.012zM6.916 18.887c0.118 0.277 0.39 0.732 0.7 0.792l8.887-0.012c0.206-0.050 0.47-0.507 0.582-0.779v-10.069c-0.214-0.113-0.897-0.328-1.521-0.439l-0.199-0.036-0.138-0.147c-0.468-0.5-0.53-0.981-0.5-1.297 0.068-0.706 0.635-1.137 0.7-1.184l0.16-0.116h1.051c0.286-0.013 0.269-0.654 0.269-0.662 0.054-0.393-0.577-0.599-0.674-0.622l-8.599 0.016c0.023 0.010-0.592 0.217-0.547 0.472 0.008 0.141-0.009 0.782 0.306 0.797l1.022-0.001 0.16 0.116c0.065 0.047 0.631 0.478 0.7 1.184 0.030 0.316-0.032 0.797-0.5 1.297l-0.137 0.147-0.2 0.036c-0.603 0.108-1.262 0.313-1.521 0.464v10.043z"></path>
<path d="M12 17.177l-3.072-6.345h6.145z"></path>
<path d="M22.5 15.222l-3.222-3.222 3.222-3.222z"></path>
<path d="M1.5 8.778l3.222 3.222-3.222 3.222z"></path>
</svg>
