<!-- Generated by IcoMoon.io -->
<svg version="1.1" xmlns="http://www.w3.org/2000/svg" width="24" height="24" viewBox="0 0 24 24">
<title>Camera_InVision</title>
<path d="M8.38 6.889v-1.468h-4.194v1.468h-1.186v11.69h18v-11.69h-12.62zM19.5 17.022h-15v-8.561h15v8.561z"></path>
<path d="M12 16.026c1.816 0 3.293-1.476 3.293-3.291s-1.477-3.293-3.293-3.293-3.293 1.477-3.293 3.293c0 1.815 1.477 3.291 3.293 3.291zM12 10.426c1.272 0 2.307 1.036 2.307 2.308s-1.035 2.306-2.307 2.306-2.307-1.034-2.307-2.306c0-1.272 1.035-2.308 2.307-2.308z"></path>
</svg>
