<!-- Generated by IcoMoon.io -->
<svg version="1.1" xmlns="http://www.w3.org/2000/svg" width="24" height="24" viewBox="0 0 24 24">
<title>Capacity</title>
<path d="M21 21v-3.895l-1.087 1.087-2.754-2.754-1.722 1.722 2.754 2.754-1.087 1.087z"></path>
<path d="M3 3v3.895l1.087-1.087 2.754 2.754 1.722-1.722-2.754-2.754 1.087-1.087z"></path>
<path d="M21 3h-3.895l1.087 1.087-2.754 2.754 1.722 1.722 2.754-2.754 1.087 1.087z"></path>
<path d="M3 21h3.895l-1.087-1.087 2.754-2.754-1.722-1.722-2.754 2.754-1.087-1.087z"></path>
<path d="M12 16.125c-1.057 0-2.114-0.402-2.918-1.207-1.609-1.609-1.609-4.227 0-5.836s4.228-1.61 5.836 0c1.609 1.609 1.609 4.227 0 5.836-0.804 0.805-1.862 1.207-2.918 1.207zM12 9.060c-0.754 0-1.507 0.286-2.081 0.86-1.147 1.147-1.147 3.014 0 4.161s3.014 1.147 4.161 0 1.147-3.014 0-4.161c-0.574-0.573-1.327-0.86-2.081-0.86z"></path>
</svg>
