<!-- Generated by IcoMoon.io -->
<svg version="1.1" xmlns="http://www.w3.org/2000/svg" width="24" height="24" viewBox="0 0 24 24">
<title>Change_Log</title>
<path d="M9.107 6.214h7.714v2.571h-7.714v-2.571z"></path>
<path d="M5.893 3v2.25h-0.643v0.643h0.643v1.929h-0.643v0.643h0.643v1.929h-0.643v0.643h0.643v1.929h-0.643v0.643h0.643v1.929h-0.643v0.643h0.643v1.929h-0.643v0.643h0.643v2.25h12.857v-18h-12.857zM17.721 19.971h-10.8v-1.221h0.9v-0.643h-0.9v-1.929h0.9v-0.643h-0.9v-1.929h0.9v-0.643h-0.9v-1.929h0.9v-0.643h-0.9v-1.929h0.9v-0.643h-0.9v-1.929h0.9v-0.643h-0.9v-1.221h10.8v15.943z"></path>
<path d="M16.5 11.519h-0.827v5.411h-2.838v-1.206l-1.619 1.619 1.619 1.619v-1.206h3.664z"></path>
<path d="M9.429 17.466h0.827v-5.42h2.838v1.206l1.619-1.619-1.619-1.619v1.206h-3.664z"></path>
</svg>
