<!-- Generated by IcoMoon.io -->
<svg version="1.1" xmlns="http://www.w3.org/2000/svg" width="24" height="24" viewBox="0 0 24 24">
<title>Class3L</title>
<path d="M12 5.368c-5.79 0-10.5 2.975-10.5 6.632s4.71 6.632 10.5 6.632c5.79 0 10.5-2.975 10.5-6.632s-4.71-6.632-10.5-6.632zM12 17.833c-5.349 0-9.701-2.617-9.701-5.833s4.352-5.833 9.701-5.833 9.701 2.617 9.701 5.833c0 3.216-4.352 5.833-9.701 5.833z"></path>
<path d="M8.525 8.256h1.383v7.476h-1.383v-7.476z"></path>
<path d="M6.049 8.232h1.383v7.476h-1.383v-7.476z"></path>
<path d="M11 8.252h1.383v7.476h-1.383v-7.476z"></path>
<path d="M13.476 15.732v-7.5h1.344v6.365h3.131v1.135h-4.475z"></path>
</svg>
