<!-- Generated by IcoMoon.io -->
<svg version="1.1" xmlns="http://www.w3.org/2000/svg" width="24" height="24" viewBox="0 0 24 24">
<title>Class4</title>
<path d="M12 18.632c-5.79 0-10.5-2.975-10.5-6.632s4.71-6.632 10.5-6.632 10.5 2.975 10.5 6.632c0 3.657-4.71 6.632-10.5 6.632zM12 6.167c-5.349 0-9.701 2.617-9.701 5.833s4.352 5.833 9.701 5.833 9.701-2.617 9.701-5.833c0-3.216-4.352-5.833-9.701-5.833z"></path>
<path d="M9.807 7.598h1.627v8.796h-1.627v-8.796z"></path>
<path d="M7.026 7.598h1.627v8.796h-1.627v-8.796z"></path>
<path d="M12.496 7.594h1.627v8.796h-1.627v-8.796z"></path>
<path d="M15.24 7.603h1.627v8.796h-1.627v-8.796z"></path>
</svg>
