<!-- Generated by IcoMoon.io -->
<svg version="1.1" xmlns="http://www.w3.org/2000/svg" width="24" height="24" viewBox="0 0 24 24">
<title>Class3HD</title>
<path d="M12 18.632c-5.79 0-10.5-2.975-10.5-6.632s4.71-6.632 10.5-6.632 10.5 2.975 10.5 6.632-4.71 6.632-10.5 6.632zM12 6.167c-5.349 0-9.701 2.617-9.701 5.833s4.352 5.833 9.701 5.833 9.701-2.617 9.701-5.833c0-3.216-4.352-5.833-9.701-5.833z"></path>
<path d="M6.339 9.001h1.107v5.981h-1.107v-5.981z"></path>
<path d="M4.359 8.982h1.107v5.981h-1.107v-5.981z"></path>
<path d="M8.32 8.998h1.107v5.981h-1.107v-5.981z"></path>
<path d="M15.075 14.979h-1.072v-2.656h-2.631v2.656h-1.072v-5.981h1.072v2.412h2.631v-2.412h1.072v5.981z"></path>
<path d="M20.841 11.93c0 1.011-0.282 1.772-0.846 2.282-0.564 0.511-1.352 0.767-2.363 0.767h-1.683v-5.981h1.859c0.621 0 1.157 0.111 1.609 0.335 0.453 0.223 0.803 0.552 1.051 0.988s0.373 0.972 0.373 1.609zM19.719 11.963c0-0.715-0.165-1.24-0.494-1.575-0.329-0.335-0.802-0.503-1.416-0.503h-0.787v4.197h0.645c1.368 0 2.052-0.706 2.052-2.119z"></path>
</svg>
