<!-- Generated by IcoMoon.io -->
<svg version="1.1" xmlns="http://www.w3.org/2000/svg" width="24" height="24" viewBox="0 0 24 24">
<title>Clear</title>
<path d="M13.631 5.648c-1.587 0-2.821 0.569-3.703 1.704-0.883 1.137-1.324 2.694-1.324 4.672 0 1.995 0.408 3.547 1.225 4.659 0.817 1.113 2.076 1.668 3.777 1.668 0.735 0 1.459-0.078 2.17-0.233s1.443-0.363 2.195-0.626v2.673c-0.72 0.294-1.444 0.507-2.17 0.638-0.728 0.131-1.566 0.197-2.514 0.197-1.799 0-3.287-0.372-4.463-1.116-1.177-0.744-2.053-1.79-2.624-3.139-0.573-1.349-0.858-2.931-0.858-4.746 0-1.765 0.318-3.323 0.956-4.671s1.574-2.408 2.808-3.176 2.743-1.153 4.525-1.153c0.882 0 1.753 0.098 2.611 0.294 0.858 0.196 1.663 0.482 2.416 0.858l-1.080 2.575c-0.621-0.278-1.262-0.528-1.925-0.748s-1.336-0.331-2.023-0.331z"></path>
</svg>
