<!-- Generated by IcoMoon.io -->
<svg version="1.1" xmlns="http://www.w3.org/2000/svg" width="24" height="24" viewBox="0 0 24 24">
<title>Color_Themes</title>
<path d="M12 3c-4.971 0-9 4.029-9 9s4.029 9 9 9 9-4.029 9-9c0-4.971-4.029-9-9-9zM12.386 4.031c0.856 0.041 1.675 0.215 2.44 0.506l-2.44 1.763v-2.269zM12.386 6.807l2.889-2.085c0.497 0.225 0.966 0.5 1.403 0.817l-4.292 3.098v-1.83zM12.386 9.143l4.638-3.346c0.391 0.317 0.75 0.67 1.074 1.054l-5.712 4.122v-1.83zM12.001 19.988c-3.157 0-5.884-1.844-7.18-4.508l7.429-3.226 4.775 2.827 0.010 0.014 0.006-0.004 1.777 1.052c-1.403 2.301-3.93 3.846-6.817 3.846zM19.030 15.79l-1.626-0.962 2.512-1.813c-0.127 0.992-0.429 1.93-0.887 2.775zM19.989 12c0 0.16-0.015 0.316-0.024 0.474l-2.946 2.126-1.302-0.771 4.174-3.012c0.058 0.387 0.098 0.78 0.098 1.184zM19.818 10.362l-4.487 3.238-1.455-0.861 5.444-3.929c0.216 0.494 0.385 1.012 0.498 1.551zM13.49 12.511l-1.105-0.654v-0.378l5.966-4.305c0.3 0.394 0.564 0.815 0.787 1.261l-5.649 4.076z"></path>
</svg>
