<!-- Generated by IcoMoon.io -->
<svg version="1.1" xmlns="http://www.w3.org/2000/svg" width="24" height="24" viewBox="0 0 24 24">
<title>Communication</title>
<path d="M16.866 4.29h-13.331c-0.294 0-0.534 0.241-0.534 0.534v7.706c0 0.294 0.241 0.534 0.534 0.534h0.855l0.346 2.766c0.037 0.292 0.242 0.365 0.456 0.164l3.101-2.93h8.574c0.294 0 0.534-0.241 0.534-0.534v-7.706c-0-0.294-0.241-0.534-0.534-0.534zM16.499 12.165h-8.551l-2.474 2.328-0.29-2.328h-1.283v-6.974h12.598v6.974z"></path>
<path d="M20.466 7.89h-2.551v5.155c0 0.294-0.241 0.534-0.534 0.534h-8.574l-2.206 2.085v0.467c0 0.294 0.241 0.534 0.534 0.534h8.574l3.101 2.93c0.214 0.202 0.419 0.128 0.456-0.164l0.346-2.766h0.855c0.294 0 0.534-0.241 0.534-0.534v-7.706c-0-0.294-0.241-0.534-0.535-0.534z"></path>
</svg>
