<!-- Generated by IcoMoon.io -->
<svg version="1.1" xmlns="http://www.w3.org/2000/svg" width="24" height="24" viewBox="0 0 24 24">
<title>ConnectionNetwork</title>
<path d="M19.218 12.989c-0.554 0-0.989-0.435-0.989-0.989s0.435-0.989 0.989-0.989c0.554 0 0.989 0.435 0.989 0.989s-0.435 0.989-0.989 0.989zM11.9 14.271c-1.258 0-2.271-1.013-2.271-2.271s1.013-2.271 2.271-2.271 2.271 1.013 2.271 2.271-1.013 2.271-2.271 2.271zM4.78 20.109c-0.554 0-0.989-0.435-0.989-0.989s0.435-0.989 0.989-0.989 0.989 0.435 0.989 0.989c0 0.554-0.435 0.989-0.989 0.989zM3.791 4.88c0-0.554 0.435-0.989 0.989-0.989s0.989 0.435 0.989 0.989-0.435 0.989-0.989 0.989-0.989-0.435-0.989-0.989zM19.218 3.891c0.554 0 0.989 0.435 0.989 0.989s-0.435 0.989-0.989 0.989c-0.554 0-0.989-0.435-0.989-0.989s0.435-0.989 0.989-0.989zM12.889 18.922c0 0.554-0.435 0.989-0.989 0.989s-0.989-0.435-0.989-0.989c0-0.554 0.435-0.989 0.989-0.989s0.989 0.435 0.989 0.989zM19.218 10.22c-0.95 0-1.741 0.752-1.78 1.701h-2.176c-0.020-0.712-0.257-1.384-0.653-1.918l3.659-3.62c0.277 0.178 0.593 0.277 0.95 0.277 0.989 0 1.78-0.791 1.78-1.78s-0.791-1.78-1.78-1.78-1.78 0.791-1.78 1.78c0 0.336 0.099 0.672 0.277 0.95l-3.659 3.599c-0.593-0.494-1.345-0.791-2.155-0.791-0.791 0-1.503 0.277-2.077 0.732l-3.54-3.54c0.178-0.277 0.277-0.593 0.277-0.95 0-0.989-0.791-1.78-1.78-1.78s-1.78 0.791-1.78 1.78 0.791 1.78 1.78 1.78c0.356 0 0.672-0.099 0.95-0.277l3.54 3.54c-0.455 0.573-0.732 1.286-0.732 2.077 0 0.771 0.257 1.483 0.712 2.057l-3.521 3.56c-0.277-0.178-0.593-0.277-0.95-0.277-0.989 0-1.78 0.791-1.78 1.78s0.791 1.78 1.78 1.78 1.78-0.791 1.78-1.78c0-0.356-0.099-0.672-0.277-0.95l3.521-3.54c0.375 0.297 0.811 0.515 1.286 0.633l0.158 2.017c-0.653 0.257-1.108 0.91-1.108 1.642 0 0.989 0.791 1.78 1.78 1.78s1.78-0.791 1.78-1.78c0-0.95-0.732-1.721-1.661-1.78l-0.138-1.78h0.020c1.622 0 2.967-1.127 3.284-2.65h2.394c0.277 0.633 0.91 1.068 1.622 1.068 0.989 0 1.78-0.791 1.78-1.78-0.002-0.989-0.793-1.78-1.782-1.78l-0 0z"></path>
</svg>
