<!-- Generated by IcoMoon.io -->
<svg version="1.1" xmlns="http://www.w3.org/2000/svg" width="24" height="24" viewBox="0 0 24 24">
<title>Control_Flow</title>
<path d="M20.839 19.837c-0.576 0-0.869-0.286-1.286-0.763l-0.028-0.030c-0.456-0.484-1.023-1.087-2.108-1.087-1.152 0-1.77 0.702-2.137 1.117l-0.055 0.059c-0.381 0.408-0.657 0.703-1.23 0.703-0.576 0-0.869-0.286-1.286-0.763l-0.028-0.030c-0.456-0.484-1.023-1.087-2.108-1.087-1.152 0-1.77 0.702-2.137 1.117l-0.055 0.059c-0.381 0.408-0.657 0.703-1.23 0.703-0.576 0-0.869-0.286-1.286-0.763l-0.028-0.030c-0.456-0.484-1.023-1.087-2.108-1.087-0.273 0-0.512 0.044-0.729 0.11v1.286c0.199-0.143 0.42-0.233 0.729-0.233 0.576 0 0.869 0.286 1.286 0.763l0.030 0.031c0.455 0.484 1.022 1.085 2.107 1.085 1.149 0 1.77-0.701 2.137-1.117l0.054-0.058c0.381-0.409 0.657-0.704 1.231-0.704 0.576 0 0.869 0.286 1.286 0.763l0.030 0.031c0.455 0.484 1.022 1.085 2.107 1.085 1.151 0 1.77-0.701 2.137-1.117l0.054-0.058c0.381-0.409 0.657-0.704 1.231-0.704 0.576 0 0.869 0.286 1.286 0.763l0.030 0.031c0.455 0.484 1.022 1.085 2.107 1.085h0.161v-1.163h-0.161z"></path>
<path d="M20.839 16.041c-0.576 0-0.869-0.286-1.286-0.763l-0.030-0.031c-0.455-0.484-1.022-1.085-2.107-1.085-1.151 0-1.77 0.701-2.137 1.117l-0.054 0.058c-0.381 0.409-0.657 0.704-1.231 0.704-0.576 0-0.869-0.286-1.286-0.763l-0.030-0.031c-0.455-0.484-1.022-1.085-2.107-1.085-1.151 0-1.77 0.701-2.137 1.117l-0.054 0.058c-0.381 0.409-0.657 0.704-1.231 0.704-0.576 0-0.869-0.286-1.286-0.763l-0.030-0.031c-0.455-0.484-1.022-1.085-2.107-1.085-0.273 0-0.512 0.044-0.729 0.11v1.286c0.199-0.143 0.42-0.233 0.729-0.233 0.576 0 0.869 0.286 1.286 0.763l0.030 0.032c0.455 0.483 1.022 1.085 2.106 1.085 1.149 0 1.769-0.702 2.137-1.117l0.055-0.059c0.381-0.408 0.657-0.703 1.23-0.703 0.576 0 0.869 0.286 1.286 0.763l0.030 0.032c0.455 0.483 1.022 1.085 2.106 1.085 1.151 0 1.77-0.702 2.137-1.117l0.055-0.059c0.381-0.408 0.657-0.703 1.23-0.703 0.576 0 0.869 0.286 1.286 0.763l0.030 0.032c0.455 0.483 1.022 1.085 2.106 1.085h0.161v-1.163h-0.161z"></path>
<path d="M6 3.857h12v0.857h-12v-0.857z"></path>
<path d="M6 7.714h12v0.857h-12v-0.857z"></path>
<path d="M6 11.571h12v0.857h-12v-0.857z"></path>
<path d="M13.286 6.857v2.571h-2.571v-2.571h2.571z"></path>
<path d="M9.429 3v2.571h-2.571v-2.571h2.571z"></path>
<path d="M17.143 10.714v2.571h-2.571v-2.571h2.571z"></path>
</svg>
