<!-- Generated by IcoMoon.io -->
<svg version="1.1" xmlns="http://www.w3.org/2000/svg" width="24" height="24" viewBox="0 0 24 24">
<title>Date_Calendar</title>
<path d="M17.727 3v1.636h-3.273v-1.636h-4.909v1.636h-3.273v-1.636h-3.273v18h18v-18h-3.273zM19.364 19.364h-14.727v-11.455h14.727v11.455z"></path>
<path d="M6.273 12.818h1.636v1.636h-1.636v-1.636z"></path>
<path d="M6.273 16.091h1.636v1.636h-1.636v-1.636z"></path>
<path d="M9.545 16.091h1.636v1.636h-1.636v-1.636z"></path>
<path d="M12.818 16.091h1.636v1.636h-1.636v-1.636z"></path>
<path d="M16.091 12.818h1.636v1.636h-1.636v-1.636z"></path>
<path d="M9.545 9.545h1.636v1.636h-1.636v-1.636z"></path>
<path d="M9.545 12.818h1.636v1.636h-1.636v-1.636z"></path>
<path d="M12.818 12.818h1.636v1.636h-1.636v-1.636z"></path>
<path d="M12.818 11.182v-1.636h1.636v1.636h-1.636z"></path>
<path d="M16.091 11.182v-1.636h1.636v1.636h-1.636z"></path>
</svg>
