<!-- Generated by IcoMoon.io -->
<svg version="1.1" xmlns="http://www.w3.org/2000/svg" width="24" height="24" viewBox="0 0 24 24">
<title>FillOver</title>
<path d="M21 21h-18v-12.857h0.953v11.935h16.092v-11.935h0.955z"></path>
<path d="M3 9h0.75v0.75h-0.75v-0.75z"></path>
<path d="M18.75 9.75h-1.5v-0.75h1.5v0.75zM15.75 9.75h-1.5v-0.75h1.5v0.75zM9.75 9.75h-1.5v-0.75h1.5v0.75zM6.75 9.75h-1.5v-0.75h1.5v0.75z"></path>
<path d="M20.25 9h0.75v0.75h-0.75v-0.75z"></path>
<path d="M12 6l-7.5 12.99h15l-7.5-12.99zM11.25 9.75v-0.75h1.5v0.75h-1.5z"></path>
</svg>
