<!-- Generated by IcoMoon.io -->
<svg version="1.1" xmlns="http://www.w3.org/2000/svg" width="24" height="24" viewBox="0 0 24 24">
<title>FilterOff</title>
<path d="M14.34 21l-4.68-2.339v-7.69l-6.24-5.28c-0.006-0.007-0.014-0.016-0.020-0.023v0c0-0.001-0.001-0.001-0.001-0.001s-0.001 0-0.001-0.001v0c-0.052-0.061-0.093-0.13-0.121-0.201v0c0 0 0 0 0-0.001-0.029-0.071-0.046-0.15-0.051-0.231-0.001-0.013-0.001-0.026-0.001-0.039v-2.192h17.549v2.192c0 0.013 0 0.026-0.001 0.039-0.004 0.081-0.021 0.16-0.051 0.231 0 0.001 0 0.001 0 0.001v0c-0.029 0.071-0.069 0.14-0.121 0.201v0c0 0.001 0 0.001-0.001 0.001s-0.001 0-0.001 0.001v0c-0.006 0.007-0.014 0.016-0.021 0.023l-6.239 5.28v10.030zM11.122 17.758l1.755 0.877v-8.239l6.434-5.49v-0.444h-14.624v0.444l6.434 5.49v7.362z"></path>
</svg>
