<!-- Generated by IcoMoon.io -->
<svg version="1.1" xmlns="http://www.w3.org/2000/svg" width="24" height="24" viewBox="0 0 24 24">
<title>FilterOn</title>
<path d="M3.226 3v2.192c0 0.013 0 0.026 0.001 0.039 0.004 0.081 0.021 0.16 0.051 0.231 0 0.001 0 0.001 0 0.001 0.029 0.071 0.069 0.14 0.121 0.201 0 0.001 0 0.001 0.001 0.001s0.001 0 0.001 0.001c0.006 0.007 0.014 0.016 0.020 0.023l6.24 5.28v7.69l4.68 2.339v-10.030l6.239-5.28c0.007-0.007 0.014-0.016 0.021-0.023 0-0.001 0.001-0.001 0.001-0.001s0.001 0 0.001-0.001c0.052-0.061 0.093-0.13 0.121-0.201 0 0 0 0 0-0.001 0.029-0.071 0.046-0.15 0.051-0.231 0.001-0.013 0.001-0.026 0.001-0.039v-2.192h-17.549z"></path>
</svg>
