<!-- Generated by IcoMoon.io -->
<svg version="1.1" xmlns="http://www.w3.org/2000/svg" width="24" height="24" viewBox="0 0 24 24">
<title>Flow</title>
<path d="M19.538 17.666l-0.034-0.037c-0.446-0.473-1.056-1.121-2.198-1.121-1.21 0-1.873 0.752-2.227 1.153l-0.055 0.059c-0.367 0.392-0.588 0.63-1.070 0.63-0.473 0-0.705-0.209-1.121-0.684l-0.033-0.035c-0.446-0.474-1.056-1.122-2.198-1.122-1.209 0-1.873 0.751-2.228 1.154l-0.055 0.059c-0.367 0.392-0.588 0.629-1.070 0.629-0.473 0-0.705-0.209-1.121-0.684l-0.033-0.035c-0.446-0.474-1.056-1.122-2.198-1.122-0.259 0-0.51 0.038-0.767 0.116l-0.131 0.039v1.754l0.291-0.209c0.189-0.136 0.37-0.193 0.607-0.193 0.474 0 0.705 0.209 1.121 0.684l0.033 0.034c0.445 0.474 1.054 1.121 2.198 1.121 1.211 0 1.875-0.752 2.228-1.152l0.053-0.057c0.367-0.394 0.588-0.631 1.072-0.631 0.474 0 0.705 0.209 1.121 0.684l0.034 0.035c0.445 0.474 1.055 1.121 2.198 1.121 1.211 0 1.875-0.752 2.228-1.153l0.052-0.057c0.367-0.393 0.589-0.631 1.071-0.631 0.472 0 0.715 0.219 1.121 0.684l0.033 0.035c0.445 0.474 1.054 1.121 2.198 1.121h0.341v-1.506h-0.341c-0.474 0-0.705-0.209-1.121-0.684z"></path>
<path d="M19.538 11.429l-0.034-0.035c-0.445-0.474-1.055-1.121-2.198-1.121-1.211 0-1.874 0.752-2.227 1.152l-0.053 0.057c-0.367 0.395-0.589 0.632-1.072 0.632-0.473 0-0.705-0.209-1.121-0.684l-0.034-0.035c-0.445-0.474-1.054-1.121-2.198-1.121-1.21 0-1.873 0.751-2.228 1.152l-0.054 0.058c-0.367 0.393-0.588 0.631-1.071 0.631-0.473 0-0.705-0.209-1.121-0.684l-0.034-0.035c-0.445-0.474-1.055-1.121-2.198-1.121-0.258 0-0.509 0.038-0.767 0.116l-0.131 0.039v1.754l0.291-0.209c0.189-0.136 0.371-0.194 0.607-0.194 0.474 0 0.705 0.209 1.121 0.684l0.034 0.036c0.445 0.473 1.054 1.121 2.196 1.121 1.209 0 1.874-0.753 2.227-1.152l0.055-0.058c0.367-0.393 0.588-0.631 1.070-0.631 0.474 0 0.705 0.209 1.121 0.684l0.034 0.037c0.446 0.473 1.055 1.12 2.197 1.12 1.209 0 1.873-0.752 2.228-1.153l0.054-0.057c0.367-0.393 0.588-0.631 1.070-0.631 0.472 0 0.715 0.219 1.121 0.684l0.034 0.037c0.445 0.473 1.054 1.121 2.197 1.121h0.341v-1.507h-0.341c-0.474 0-0.705-0.209-1.121-0.684z"></path>
<path d="M20.659 5.902c-0.474 0-0.706-0.209-1.121-0.684l-0.034-0.037c-0.446-0.473-1.056-1.121-2.198-1.121-1.212 0-1.875 0.753-2.226 1.152l-0.055 0.058c-0.367 0.393-0.588 0.631-1.070 0.631-0.471 0-0.713-0.217-1.117-0.679l-0.038-0.041c-0.446-0.473-1.056-1.121-2.197-1.121-1.211 0-1.874 0.752-2.228 1.154l-0.055 0.059c-0.367 0.392-0.589 0.629-1.070 0.629-0.471 0-0.713-0.217-1.121-0.684l-0.032-0.034c-0.446-0.474-1.057-1.123-2.2-1.123-0.258 0-0.508 0.038-0.766 0.116l-0.131 0.039v1.621l0.276-0.161c0.161-0.094 0.319-0.136 0.509-0.136 0.474 0 0.705 0.209 1.121 0.684l0.032 0.034c0.446 0.474 1.056 1.122 2.198 1.122 1.211 0 1.875-0.753 2.227-1.152l0.055-0.058c0.367-0.393 0.588-0.631 1.070-0.631 0.474 0 0.705 0.209 1.121 0.684l0.033 0.035c0.446 0.474 1.056 1.122 2.198 1.122 1.211 0 1.874-0.752 2.228-1.153l0.054-0.057c0.367-0.393 0.588-0.631 1.070-0.631 0.474 0 0.709 0.212 1.153 0.715l0.217 0.189c0.483 0.43 1.084 0.964 2.095 0.964h0.341v-1.507h-0.341z"></path>
</svg>
