<!-- Generated by IcoMoon.io -->
<svg version="1.1" xmlns="http://www.w3.org/2000/svg" width="24" height="24" viewBox="0 0 24 24">
<title>GridOff</title>
<path d="M21 20.234l-0.684-0.684v-0.014l-1.083-1.083v0.014l-3.397-3.397h0.014l-1.671-1.671v0.014l-3.397-3.397h0.014l-1.671-1.671v0.014l-3.397-3.397h0.014l-1.083-1.083h-0.014l-0.876-0.876-0.766 0.766 1.067 1.067v15.291h15.291l0.876 0.876 0.766-0.766zM10.206 10.971l3.014 3.014h-3.014v-3.014zM8.165 8.931h-3.014v-3.014l3.014 3.014zM9.122 19.041h-3.972v-3.972h3.972v3.972zM9.122 13.986h-3.972v-3.972h3.972v3.972zM14.177 19.041h-3.972v-3.972h3.972v3.972zM15.261 19.041v-3.014l3.014 3.014h-3.014z"></path>
<path d="M7.859 5.106h3.791v3.791l1.083 1.083v-4.875h6.499v6.499h-4.874l1.083 1.083h3.791v3.791l1.083 1.083v-13.54h-13.54z"></path>
</svg>
