<!-- Generated by IcoMoon.io -->
<svg version="1.1" xmlns="http://www.w3.org/2000/svg" width="24" height="24" viewBox="0 0 24 24">
<title>GWP_X</title>
<path d="M16.832 12.203l-0.915-0.93-3.915 3.915-3.915-3.915-0.915 0.93 3.9 3.915-3.9 3.9 0.915 0.93 3.915-3.915 3.915 3.915 0.915-0.93-3.9-3.9 3.9-3.915z"></path>
<path d="M4.667 6.188h2.55v3.42c-0.359 0.118-0.724 0.213-1.095 0.285-0.427 0.063-0.858 0.093-1.29 0.090-0.435 0.028-0.872-0.039-1.279-0.198s-0.774-0.403-1.076-0.717c-0.582-0.723-0.871-1.639-0.81-2.565-0.015-0.634 0.124-1.262 0.405-1.83 0.271-0.511 0.689-0.929 1.2-1.2 0.591-0.293 1.245-0.437 1.905-0.42 0.358 0.002 0.715 0.042 1.065 0.12 0.318 0.068 0.629 0.163 0.93 0.285l-0.42 0.99c-0.244-0.101-0.495-0.187-0.75-0.255-0.284-0.078-0.576-0.118-0.87-0.12-0.42-0.008-0.834 0.096-1.2 0.3-0.329 0.209-0.594 0.505-0.765 0.855-0.187 0.409-0.279 0.855-0.27 1.305-0.006 0.429 0.065 0.856 0.21 1.26 0.126 0.346 0.357 0.645 0.66 0.855 0.359 0.224 0.778 0.329 1.2 0.3 0.2 0.018 0.4 0.018 0.6 0l0.435-0.105v-1.62h-1.335v-1.035z"></path>
<path d="M16.907 3.143l-1.755 6.75h-1.335l-1.065-3.87c0-0.135 0-0.3-0.105-0.495-0.057-0.187-0.102-0.377-0.135-0.57-0.039-0.137-0.065-0.278-0.075-0.42v0.42c0 0.18-0.075 0.375-0.12 0.57l-0.12 0.51-1.050 3.855h-1.41l-1.74-6.75h1.215l0.915 3.84c0 0.165 0.090 0.36 0.135 0.57s0 0.405 0.12 0.615 0 0.375 0.090 0.525c0-0.165 0-0.345 0-0.555s0-0.405 0.12-0.6 0.090-0.36 0.135-0.495l1.050-3.9h1.17l1.080 3.9c0.054 0.172 0.094 0.347 0.12 0.525l0.135 0.6c0 0.21 0 0.375 0 0.525 0-0.15 0-0.33 0.090-0.525s0.075-0.405 0.12-0.615c0.045-0.21 0.090-0.39 0.12-0.57l0.93-3.84h1.365z"></path>
<path d="M19.832 3.143c0.682-0.063 1.364 0.135 1.905 0.555 0.204 0.191 0.363 0.424 0.467 0.683s0.149 0.538 0.133 0.817c0.005 0.369-0.078 0.734-0.24 1.065-0.174 0.357-0.465 0.643-0.825 0.81-0.469 0.22-0.982 0.328-1.5 0.315h-0.66v2.505h-1.215v-6.75h1.935zM19.757 4.148h-0.72v2.25h0.54c0.396 0.021 0.79-0.068 1.14-0.255 0.138-0.1 0.248-0.234 0.319-0.389s0.101-0.326 0.086-0.496c0.005-0.151-0.023-0.3-0.079-0.44s-0.142-0.266-0.251-0.37c-0.301-0.214-0.666-0.32-1.035-0.3z"></path>
</svg>
