<!-- Generated by IcoMoon.io -->
<svg version="1.1" xmlns="http://www.w3.org/2000/svg" width="24" height="24" viewBox="0 0 24 24">
<title>Help_FAQ</title>
<path d="M9.949 15.237v-0.806c0-0.847 0.159-1.555 0.476-2.126 0.318-0.569 0.883-1.172 1.697-1.807 0.814-0.619 1.388-1.132 1.722-1.538 0.333-0.407 0.501-0.912 0.501-1.515 0-0.619-0.217-1.091-0.648-1.417-0.431-0.325-1.046-0.488-1.844-0.488-0.717 0-1.4 0.106-2.052 0.317-0.651 0.212-1.303 0.481-1.954 0.806l-1.099-2.296c0.749-0.406 1.563-0.736 2.443-0.989s1.848-0.379 2.907-0.379c1.644 0 2.914 0.395 3.809 1.185s1.344 1.828 1.344 3.114c0 0.701-0.109 1.299-0.33 1.796s-0.546 0.956-0.977 1.379-0.948 0.872-1.55 1.344c-0.505 0.391-0.887 0.725-1.148 1.002-0.261 0.276-0.44 0.549-0.538 0.818s-0.146 0.598-0.146 0.989v0.611h-2.614zM9.485 19.12c0-0.684 0.183-1.168 0.55-1.453s0.81-0.427 1.331-0.427c0.505 0 0.94 0.142 1.307 0.427s0.55 0.769 0.55 1.453c0 0.668-0.183 1.148-0.55 1.441s-0.802 0.439-1.307 0.439c-0.521 0-0.964-0.146-1.331-0.439s-0.55-0.773-0.55-1.441z"></path>
</svg>
