<!-- Generated by IcoMoon.io -->
<svg version="1.1" xmlns="http://www.w3.org/2000/svg" width="24" height="24" viewBox="0 0 24 24">
<title>History</title>
<path d="M4.092 10.175l0.042-0.133 1.778 0.567-0.042 0.133c-0.788 2.471-0.025 5.159 1.944 6.846 2.695 2.31 6.755 1.984 9.078-0.696 2.31-2.695 1.998-6.768-0.697-9.079-1.975-1.693-4.764-1.999-7.048-0.867l1.149 2.409-4.693-1.66 1.661-4.694 1.080 2.263c2.94-1.444 6.524-1.044 9.064 1.133 3.476 2.979 3.879 8.233 0.899 11.709-0.141 0.164-0.288 0.322-0.439 0.474-1.398 1.398-3.232 2.243-5.229 2.396-2.214 0.17-4.359-0.53-6.039-1.972-2.54-2.178-3.524-5.643-2.508-8.828z"></path>
<path d="M11.339 15.967v-4.629h5.951v1.322h-4.629v3.306z"></path>
</svg>
