<!-- Generated by IcoMoon.io -->
<svg version="1.1" xmlns="http://www.w3.org/2000/svg" width="24" height="24" viewBox="0 0 24 24">
<title>Icon_Placeholder</title>
<path fill="#fff" d="M3.36 3.24h17.4v17.4h-17.4v-17.4z"></path>
<path fill="#000" d="M20.4 3.6v16.8h-16.8v-16.8h16.8zM21 3h-18v18h18v-18z"></path>
<path fill="#000" d="M7.906 4.8v3.636h-0.469v-3.636h0.469z"></path>
<path fill="#000" d="M10.572 8.339c-0.124 0.065-0.399 0.151-0.75 0.151-0.788 0-1.3-0.534-1.3-1.332 0-0.804 0.55-1.386 1.403-1.386 0.28 0 0.529 0.070 0.658 0.135l-0.108 0.367c-0.113-0.065-0.291-0.124-0.55-0.124-0.599 0-0.923 0.442-0.923 0.987 0 0.604 0.389 0.976 0.906 0.976 0.27 0 0.448-0.070 0.583-0.129l0.081 0.356z"></path>
<path fill="#000" d="M13.459 7.109c0 0.965-0.669 1.386-1.3 1.386-0.707 0-1.252-0.518-1.252-1.343 0-0.874 0.572-1.386 1.295-1.386 0.75 0 1.257 0.545 1.257 1.343zM11.387 7.136c0 0.572 0.329 1.003 0.793 1.003 0.453 0 0.793-0.426 0.793-1.014 0-0.442-0.221-1.003-0.782-1.003s-0.804 0.518-0.804 1.014z"></path>
<path fill="#000" d="M14.059 6.532c0-0.27-0.005-0.491-0.022-0.707h0.421l0.027 0.432h0.011c0.129-0.248 0.432-0.491 0.863-0.491 0.361 0 0.922 0.216 0.922 1.111v1.559h-0.475v-1.505c0-0.421-0.156-0.771-0.604-0.771-0.313 0-0.556 0.221-0.636 0.485-0.022 0.059-0.032 0.14-0.032 0.221v1.57h-0.475v-1.904z"></path>
<path fill="#000" d="M6.22 11.805c0-0.334-0.011-0.604-0.022-0.852h0.426l0.022 0.448h0.011c0.194-0.318 0.502-0.507 0.928-0.507 0.631 0 1.106 0.534 1.106 1.327 0 0.939-0.572 1.403-1.187 1.403-0.345 0-0.647-0.151-0.804-0.41h-0.011v1.419h-0.469v-2.827zM6.689 12.501c0 0.070 0.011 0.135 0.022 0.194 0.086 0.329 0.372 0.556 0.712 0.556 0.502 0 0.793-0.41 0.793-1.009 0-0.523-0.275-0.971-0.777-0.971-0.324 0-0.626 0.232-0.718 0.588-0.016 0.059-0.032 0.13-0.032 0.194v0.448z"></path>
<path fill="#000" d="M9.291 9.733h0.475v3.83h-0.475v-3.83z"></path>
<path fill="#000" d="M12.010 13.563l-0.038-0.329h-0.016c-0.146 0.205-0.426 0.388-0.798 0.388-0.529 0-0.798-0.372-0.798-0.75 0-0.631 0.561-0.976 1.57-0.971v-0.054c0-0.216-0.059-0.604-0.593-0.604-0.243 0-0.496 0.076-0.68 0.194l-0.108-0.313c0.216-0.14 0.529-0.232 0.858-0.232 0.798 0 0.992 0.545 0.992 1.068v0.976c0 0.226 0.011 0.448 0.043 0.626h-0.432zM11.94 12.231c-0.518-0.011-1.106 0.081-1.106 0.588 0 0.307 0.205 0.453 0.448 0.453 0.34 0 0.556-0.216 0.631-0.437 0.016-0.049 0.027-0.103 0.027-0.151v-0.453z"></path>
<path fill="#000" d="M15.027 13.466c-0.124 0.065-0.399 0.151-0.75 0.151-0.788 0-1.3-0.534-1.3-1.332 0-0.804 0.55-1.386 1.403-1.386 0.28 0 0.529 0.070 0.658 0.135l-0.108 0.367c-0.113-0.065-0.291-0.124-0.55-0.124-0.599 0-0.923 0.443-0.923 0.987 0 0.604 0.389 0.976 0.906 0.976 0.27 0 0.448-0.070 0.583-0.129l0.081 0.356z"></path>
<path fill="#000" d="M15.816 12.344c0.011 0.642 0.421 0.906 0.895 0.906 0.34 0 0.545-0.059 0.723-0.135l0.081 0.34c-0.167 0.076-0.453 0.162-0.869 0.162-0.804 0-1.284-0.529-1.284-1.316s0.464-1.408 1.225-1.408c0.852 0 1.079 0.75 1.079 1.23 0 0.097-0.011 0.173-0.016 0.221h-1.834zM17.208 12.004c0.005-0.302-0.124-0.771-0.658-0.771-0.48 0-0.69 0.442-0.728 0.771h1.386z"></path>
<path fill="#000" d="M4.865 15.311h0.475v1.629h0.011c0.076-0.135 0.194-0.253 0.34-0.334 0.14-0.081 0.307-0.135 0.486-0.135 0.351 0 0.912 0.216 0.912 1.117v1.554h-0.475v-1.5c0-0.421-0.156-0.777-0.604-0.777-0.307 0-0.55 0.216-0.636 0.475-0.027 0.065-0.032 0.135-0.032 0.227v1.575h-0.475v-3.83z"></path>
<path fill="#000" d="M10.223 17.814c0 0.965-0.669 1.386-1.3 1.386-0.707 0-1.252-0.518-1.252-1.343 0-0.874 0.572-1.386 1.295-1.386 0.75 0 1.257 0.545 1.257 1.343zM8.152 17.841c0 0.572 0.329 1.004 0.793 1.004 0.453 0 0.793-0.427 0.793-1.014 0-0.442-0.221-1.003-0.782-1.003s-0.804 0.518-0.804 1.014z"></path>
<path fill="#000" d="M10.824 15.311h0.475v3.83h-0.475v-3.83z"></path>
<path fill="#000" d="M14.352 15.311v3.156c0 0.232 0.005 0.496 0.022 0.674h-0.426l-0.022-0.453h-0.011c-0.146 0.292-0.464 0.513-0.89 0.513-0.631 0-1.117-0.534-1.117-1.327-0.005-0.869 0.534-1.403 1.171-1.403 0.399 0 0.669 0.189 0.788 0.399h0.011v-1.559h0.475zM13.878 17.593c0-0.060-0.005-0.14-0.022-0.2-0.070-0.302-0.329-0.55-0.685-0.55-0.491 0-0.782 0.432-0.782 1.009 0 0.528 0.259 0.965 0.772 0.965 0.318 0 0.609-0.21 0.696-0.566 0.016-0.065 0.022-0.13 0.022-0.205v-0.453z"></path>
<path fill="#000" d="M15.406 17.921c0.011 0.642 0.421 0.907 0.895 0.907 0.34 0 0.545-0.059 0.723-0.135l0.081 0.34c-0.167 0.076-0.453 0.162-0.869 0.162-0.804 0-1.284-0.529-1.284-1.316s0.464-1.408 1.225-1.408c0.852 0 1.079 0.75 1.079 1.23 0 0.097-0.011 0.173-0.016 0.221h-1.834zM16.798 17.582c0.005-0.302-0.124-0.771-0.658-0.771-0.48 0-0.69 0.442-0.728 0.771h1.386z"></path>
<path fill="#000" d="M17.846 17.344c0-0.307-0.005-0.572-0.022-0.815h0.415l0.016 0.512h0.022c0.119-0.351 0.405-0.572 0.723-0.572 0.054 0 0.092 0.005 0.135 0.016v0.448c-0.049-0.011-0.097-0.016-0.162-0.016-0.334 0-0.572 0.254-0.637 0.61-0.011 0.065-0.022 0.14-0.022 0.221v1.392h-0.469v-1.796z"></path>
</svg>
