<!-- Generated by IcoMoon.io -->
<svg version="1.1" xmlns="http://www.w3.org/2000/svg" width="24" height="24" viewBox="0 0 24 24">
<title>IP</title>
<path d="M12 4.029c4.395 0 7.971 3.576 7.971 7.971s-3.576 7.971-7.971 7.971-7.971-3.576-7.971-7.971 3.576-7.971 7.971-7.971zM12 3c-4.971 0-9 4.029-9 9s4.029 9 9 9 9-4.029 9-9-4.029-9-9-9v0z"></path>
<path d="M10.323 16.5h-3.782v-0.92l1.084-0.403v-6.341l-1.084-0.416v-0.92h3.782v0.92l-1.084 0.416v6.341l1.084 0.403v0.92z"></path>
<path d="M14.621 7.5c1.167 0 2.019 0.242 2.552 0.725s0.8 1.158 0.8 2.023c0 0.513-0.109 0.991-0.327 1.437s-0.586 0.807-1.103 1.084c-0.516 0.277-1.216 0.416-2.099 0.416h-0.895v3.315h-1.613v-9h2.685zM14.52 8.836h-0.971v3.013h0.731c0.655 0 1.161-0.12 1.519-0.359s0.535-0.632 0.535-1.179c0-0.496-0.147-0.865-0.441-1.109s-0.752-0.366-1.374-0.366z"></path>
</svg>
