<!-- Generated by IcoMoon.io -->
<svg version="1.1" xmlns="http://www.w3.org/2000/svg" width="24" height="24" viewBox="0 0 24 24">
<title>LevelControl</title>
<path d="M18.923 8.192c0 1.721-1.395 3.115-3.115 3.115s-3.115-1.395-3.115-3.115c0-1.721 1.395-3.115 3.115-3.115s3.115 1.395 3.115 3.115z"></path>
<path d="M20.292 8.496c-0.056 0.834-0.337 1.607-0.788 2.256 0.068 0.407 0.111 0.822 0.111 1.248 0 4.199-3.416 7.615-7.615 7.615s-7.615-3.416-7.615-7.615 3.416-7.615 7.615-7.615c0.426 0 0.841 0.044 1.248 0.111 0.649-0.451 1.422-0.732 2.256-0.788-1.077-0.456-2.261-0.708-3.504-0.708-4.971 0-9 4.029-9 9s4.029 9 9 9 9-4.029 9-9c0-1.243-0.252-2.427-0.708-3.504z"></path>
<path d="M16.086 12.678c-0.322 1.968-2.029 3.476-4.086 3.476-2.285 0-4.145-1.859-4.145-4.145 0-2.054 1.503-3.759 3.466-4.084 0.030-0.502 0.139-0.982 0.32-1.427-2.886 0.186-5.171 2.579-5.171 5.511 0 3.054 2.476 5.53 5.53 5.53 2.937 0 5.333-2.292 5.512-5.184-0.444 0.183-0.924 0.292-1.426 0.323z"></path>
</svg>
