<!-- Generated by IcoMoon.io -->
<svg version="1.1" xmlns="http://www.w3.org/2000/svg" width="24" height="24" viewBox="0 0 24 24">
<title>LicenseOnline</title>
<path d="M17.625 13.117h-5.726c-0.184-1.146-1.17-2.023-2.368-2.023-1.329 0-2.406 1.077-2.406 2.406s1.077 2.406 2.406 2.406c1.198 0 2.183-0.878 2.368-2.023h2.226v0.984h0.875v-0.984h0.875v1.859h0.875v-1.859h0.875v-0.766zM9.531 15.031c-0.844 0-1.531-0.687-1.531-1.531s0.687-1.531 1.531-1.531 1.531 0.687 1.531 1.531-0.687 1.531-1.531 1.531z"></path>
<path d="M19.565 11.271l-0.097-0.042 0.007-0.106c0.004-0.085 0.007-0.17 0.007-0.257 0-2.875-2.339-5.215-5.214-5.215-1.73 0-3.339 0.859-4.306 2.299l-0.059 0.088-0.103-0.025c-0.269-0.062-0.546-0.094-0.825-0.094-1.76 0-3.287 1.251-3.631 2.976l-0.020 0.1-0.1 0.020c-1.724 0.344-2.976 1.871-2.976 3.631 0 2.041 1.661 3.702 3.702 3.702h12.095c2.041 0 3.702-1.661 3.702-3.702 0-1.46-0.858-2.784-2.185-3.375zM18.048 16.991h-12.095c-1.293 0-2.345-1.052-2.345-2.345s1.052-2.345 2.345-2.345h0.679v-0.678c0-0.781 0.408-1.511 1.093-1.953 0.673-0.434 1.501-0.501 2.212-0.181l0.597 0.269 0.291-0.588c0.659-1.332 1.979-2.16 3.445-2.16 2.126 0 3.856 1.73 3.856 3.857 0 0.219-0.024 0.452-0.073 0.711l-0.12 0.643 0.637 0.144c1.074 0.245 1.824 1.183 1.824 2.281 0 1.293-1.052 2.345-2.345 2.345z"></path>
</svg>
