<!-- Generated by IcoMoon.io -->
<svg version="1.1" xmlns="http://www.w3.org/2000/svg" width="24" height="24" viewBox="0 0 24 24">
<title>Link</title>
<path d="M12.028 9.557c-0.862-0.296-1.799-0.296-2.661 0-0.583 0.2-1.113 0.532-1.547 0.97l-3.511 3.511c-1.597 1.582-1.609 4.159-0.027 5.756s4.159 1.609 5.756 0.027c0.009-0.009 0.018-0.018 0.027-0.027l3.509-3.511c0.347-0.344 0.629-0.749 0.83-1.195-0.795 0.198-1.63 0.172-2.411-0.075l-3.355 3.355c-0.802 0.802-2.102 0.803-2.905 0.001s-0.803-2.102-0.001-2.905v0l3.514-3.512c0.802-0.799 2.1-0.799 2.902 0 0.649 0.651 1.702 0.655 2.357 0.011-0.429-1.129-1.337-2.010-2.478-2.406l-0-0z"></path>
<path d="M19.856 4.248c-1.663-1.664-4.36-1.664-6.024-0.001-0 0-0.001 0.001-0.001 0.001l-3.511 3.509c-0.457 0.456-0.804 1.010-1.015 1.621 0.902-0.31 1.882-0.31 2.784 0l3.437-3.436c0.736-0.719 1.916-0.705 2.635 0.031 0.707 0.724 0.707 1.88-0.001 2.604l-3.511 3.511c-0.727 0.728-1.907 0.728-2.635 0.001-0-0-0-0-0.001-0.001v0c-0.728-0.726-1.906-0.726-2.634 0v0l-0.075 0.075c0.428 1.236 1.4 2.207 2.635 2.635 0.902 0.309 1.882 0.309 2.784 0 0.61-0.21 1.165-0.558 1.621-1.015l3.511-3.511c1.471-1.623 1.303-4.249 0-6.025z"></path>
</svg>
