<!-- Generated by IcoMoon.io -->
<svg version="1.1" xmlns="http://www.w3.org/2000/svg" width="24" height="24" viewBox="0 0 24 24">
<title>Logbook</title>
<path d="M8.25 5.25h9v3h-9v-3z"></path>
<path d="M4.5 1.5v2.625h-0.75v0.75h0.75v2.25h-0.75v0.75h0.75v2.25h-0.75v0.75h0.75v2.25h-0.75v0.75h0.75v2.25h-0.75v0.75h0.75v2.25h-0.75v0.75h0.75v2.625h15v-21h-15zM18.3 21.3h-12.6v-1.425h1.050v-0.75h-1.050v-2.25h1.050v-0.75h-1.050v-2.25h1.050v-0.75h-1.050v-2.25h1.050v-0.75h-1.050v-2.25h1.050v-0.75h-1.050v-2.25h1.050v-0.75h-1.050v-1.425h12.6v18.6z"></path>
</svg>
