<!-- Generated by IcoMoon.io -->
<svg version="1.1" xmlns="http://www.w3.org/2000/svg" width="24" height="24" viewBox="0 0 24 24">
<title>MaterialVisible</title>
<path fill="#000" d="M20.999 6.934l-0.258-0.379-8.559-3.378-0.307-0.015-8.618 3.397-0.256 0.38 0.002 9.94 0.252 0.373 8.557 3.571 0.345 0.015 8.596-3.59 0.247-0.378-0.001-9.936zM12 9.889l-6.842-2.818 6.836-2.659 6.848 2.659-6.842 2.818zM19.795 7.98v8.379l-7.79 3.23-7.801-3.23v-8.379l7.607 3.148 0.32 0.014 7.664-3.162z"></path>
<path fill="#009cdd" d="M22.188 18.75c0 1.898-1.539 3.438-3.438 3.438s-3.438-1.539-3.438-3.438c0-1.898 1.539-3.438 3.438-3.438s3.438 1.539 3.438 3.438z"></path>
<path fill="#fff" d="M18.75 15.312c1.895 0 3.438 1.542 3.438 3.438s-1.542 3.438-3.438 3.438-3.438-1.542-3.438-3.438 1.542-3.438 3.438-3.438zM18.75 15c-2.071 0-3.75 1.679-3.75 3.75s1.679 3.75 3.75 3.75 3.75-1.679 3.75-3.75-1.679-3.75-3.75-3.75v0z"></path>
<path fill="#fff" d="M21.133 18.371h-2.433v-1.111l-0-0.001c-0.007-0.172-0.046-0.339-0.114-0.496-0.067-0.153-0.16-0.291-0.276-0.408-0.241-0.245-0.56-0.38-0.897-0.38s-0.655 0.135-0.897 0.38c-0.116 0.118-0.209 0.255-0.276 0.408-0.069 0.157-0.107 0.324-0.114 0.496l-0 0.001-0 0.001-0.002 0.325-0 0.058h0.368v-0.383c0-0.499 0.422-0.921 0.921-0.921s0.921 0.422 0.921 0.921v1.11h-0.449c-0.134 0-0.242 0.108-0.242 0.242v2.011c0 0.134 0.108 0.242 0.242 0.242h3.248c0.133 0 0.242-0.108 0.242-0.242v-2.011c0-0.134-0.108-0.242-0.242-0.242zM19.684 19.765v0.731h-0.349v-0.731c-0.203-0.072-0.349-0.264-0.349-0.492 0-0.289 0.235-0.524 0.524-0.524s0.524 0.235 0.524 0.524c0 0.228-0.146 0.42-0.349 0.492z"></path>
</svg>
