<!-- Generated by IcoMoon.io -->
<svg version="1.1" xmlns="http://www.w3.org/2000/svg" width="24" height="24" viewBox="0 0 24 24">
<title>MaterialHidden</title>
<path fill="#000" d="M20.999 6.934l-0.258-0.379-8.559-3.378-0.307-0.015-8.618 3.397-0.256 0.38 0.002 9.94 0.252 0.373 8.557 3.571 0.345 0.015 8.596-3.59 0.247-0.378-0.001-9.936zM12 9.889l-6.842-2.818 6.836-2.659 6.848 2.659-6.842 2.818zM19.795 7.98v8.379l-7.79 3.23-7.801-3.23v-8.379l7.607 3.148 0.32 0.014 7.664-3.162z"></path>
<path fill="#808080" d="M8.688 18.75c0 1.898-1.539 3.438-3.438 3.438s-3.438-1.539-3.438-3.438c0-1.898 1.539-3.438 3.438-3.438s3.438 1.539 3.438 3.438z"></path>
<path fill="#fff" d="M5.25 15.312c1.895 0 3.438 1.542 3.438 3.438s-1.542 3.438-3.438 3.438-3.438-1.542-3.438-3.438 1.542-3.438 3.438-3.438zM5.25 15c-2.071 0-3.75 1.679-3.75 3.75s1.679 3.75 3.75 3.75 3.75-1.679 3.75-3.75-1.679-3.75-3.75-3.75v0z"></path>
<path fill="#fff" d="M7.035 18.066h-0.37l-0.002-0.344-0-0.001-0-0.001c-0.008-0.189-0.050-0.372-0.126-0.545-0.074-0.168-0.176-0.319-0.303-0.449-0.265-0.27-0.615-0.418-0.986-0.418s-0.72 0.148-0.986 0.418c-0.128 0.13-0.23 0.281-0.303 0.449-0.076 0.173-0.118 0.356-0.126 0.545l-0 0.001v0.345h-0.37c-0.147 0-0.266 0.119-0.266 0.266v2.21c0 0.147 0.119 0.266 0.266 0.266h3.571c0.147 0 0.266-0.119 0.266-0.266v-2.21c0-0.147-0.119-0.266-0.266-0.266zM5.442 19.598v0.803h-0.384v-0.803c-0.223-0.079-0.384-0.29-0.384-0.541 0-0.318 0.258-0.576 0.576-0.576s0.576 0.258 0.576 0.576c-0 0.25-0.161 0.461-0.384 0.541zM6.261 18.066h-2.024v-0.344c0-0.549 0.463-1.012 1.012-1.012s1.012 0.463 1.012 1.012v0.344z"></path>
</svg>
