<!-- Generated by IcoMoon.io -->
<svg version="1.1" xmlns="http://www.w3.org/2000/svg" width="24" height="24" viewBox="0 0 24 24">
<title>MaterialChecked</title>
<path d="M20.999 6.934l-0.258-0.379-8.559-3.378-0.307-0.015-8.618 3.397-0.256 0.38 0.002 9.94 0.252 0.373 8.557 3.571 0.345 0.015 8.596-3.59 0.247-0.378-0.001-9.936zM12 9.889l-6.842-2.818 6.836-2.659 6.848 2.659-6.842 2.818zM19.795 7.98v8.379l-7.79 3.23-7.801-3.23v-8.379l7.607 3.148 0.32 0.014 7.664-3.162z"></path>
<path d="M11.321 18l-3.543-3.415 0.858-0.891 2.653 2.557 5.543-5.751 0.891 0.858z"></path>
</svg>
