<!-- Generated by IcoMoon.io -->
<svg version="1.1" xmlns="http://www.w3.org/2000/svg" width="24" height="24" viewBox="0 0 24 24">
<title>Material_Table</title>
<path d="M18.582 21h-13.163v-18h9.294l3.869 4.376v13.624zM6.791 19.626h10.418v-11.73l-3.115-3.521h-7.303v15.251z"></path>
<path d="M16.295 9.62l-0.171-0.25-3.986-1.573-0.221-0.020-3.972 1.564-0.074 0.035-0.167 0.247 0.001 4.671 0.168 0.247 3.982 1.662 0.243 0.021 4.035-1.685 0.163-0.25-0.001-4.668zM15.441 10.373v3.535l-3.438 1.425-3.444-1.425v-3.535l3.297 1.364 0.231 0.020 3.354-1.384zM12 10.865l-2.748-1.132 2.745-1.067 2.751 1.068-2.748 1.132z"></path>
</svg>
