<!-- Generated by IcoMoon.io -->
<svg version="1.1" xmlns="http://www.w3.org/2000/svg" width="24" height="24" viewBox="0 0 24 24">
<title>Memory</title>
<path d="M21 9.621v-1.028h-2.571v-3.022h-3.022v-2.571h-1.028v2.571h-1.865v-2.571h-1.028v2.571h-1.865v-2.571h-1.028v2.571h-3.022v3.022h-2.571v1.028h2.571v1.865h-2.571v1.028h2.571v1.865h-2.571v1.028h2.571v3.022h3.022v2.571h1.028v-2.571h1.865v2.571h1.028v-2.571h1.865v2.571h1.028v-2.571h3.022v-3.022h2.571v-1.028h-2.571v-1.865h2.571v-1.028h-2.571v-1.865h2.571zM17.143 11.486v5.657h-10.286v-10.286h10.286v4.629z"></path>
</svg>
