<!-- Generated by IcoMoon.io -->
<svg version="1.1" xmlns="http://www.w3.org/2000/svg" width="24" height="24" viewBox="0 0 24 24">
<title>Metrology_Warning_Status</title>
<path fill="#e98704" d="M18.41 8.305c-0.277-0.612-1.362-0.953-2.305-1.137-0.048-0.071-0.081-0.15-0.076-0.222 0.007-0.076 0.054-0.157 0.106-0.222h0.67c0.402-0.019 0.75-0.179 1.007-0.464 0.515-0.571 0.479-1.374 0.457-1.349 0.181-1.010-0.723-1.692-1.771-1.912l-9.126 0.015c-0.917 0.206-1.821 0.887-1.649 1.759-0.005 0.094-0.035 0.931 0.466 1.488 0.256 0.283 0.605 0.445 1.037 0.465h0.639c0.049 0.060 0.098 0.14 0.106 0.217 0.007 0.073-0.027 0.153-0.076 0.225-0.943 0.184-2.027 0.524-2.305 1.137l-0.054 10.797 0.033 0.197c0.052 0.15 0.54 1.469 1.794 1.701h4.807l4.58-0.012c1.139-0.222 1.627-1.539 1.679-1.689l0.033-10.746-0.054-0.248z"></path>
<path fill="#fff" d="M11.016 8.312h1.967v6.573h-1.967v-6.573z"></path>
<path fill="#fff" d="M11.016 15.835h1.967v1.966h-1.967v-1.966z"></path>
</svg>
