<!-- Generated by IcoMoon.io -->
<svg version="1.1" xmlns="http://www.w3.org/2000/svg" width="24" height="24" viewBox="0 0 24 24">
<title>min_Weigh_Error</title>
<path fill="#d93a3a" d="M18.329 8.306c-0.276-0.613-1.342-0.958-2.273-1.142-0.043-0.068-0.073-0.141-0.068-0.209 0.006-0.071 0.047-0.146 0.094-0.207h0.644c0.4-0.018 0.747-0.179 1.003-0.463 0.492-0.543 0.476-1.362 0.462-1.362 0 0-0.001 0-0.001 0.002 0.179-1.015-0.72-1.7-1.767-1.924l-8.985 0.016c-0.91 0.207-1.809 0.893-1.639 1.768-0.005 0.095-0.035 0.943 0.47 1.5 0.256 0.284 0.604 0.445 1.033 0.464h0.615c0.047 0.062 0.088 0.135 0.094 0.206 0.005 0.068-0.025 0.141-0.068 0.209-0.93 0.185-1.997 0.529-2.273 1.142l-0.053 10.784 0.033 0.2c0.051 0.15 0.534 1.475 1.788 1.709h4.729l4.511-0.012c1.135-0.222 1.618-1.547 1.669-1.697l0.033-10.732-0.053-0.252z"></path>
<path fill="#fff" d="M15.095 15.659l-4.527-2.038v-0.027l4.527-2.246v-1.316l-6.19 3.23v0.735l6.19 2.974z"></path>
</svg>
