<!-- Generated by IcoMoon.io -->
<svg version="1.1" xmlns="http://www.w3.org/2000/svg" width="24" height="24" viewBox="0 0 24 24">
<title>Modeling</title>
<path d="M19.71 14.26l-0.001-4.705c0.743-0.239 1.291-0.913 1.291-1.735 0-1.018-0.829-1.847-1.847-1.847-0.611 0-1.127 0.317-1.464 0.775l-3.793-1.497c0.009-0.075 0.044-0.14 0.044-0.217 0-1.018-0.829-1.847-1.848-1.847s-1.847 0.829-1.847 1.847c0 0.054 0.026 0.1 0.031 0.153l-3.966 1.562c-0.337-0.458-0.853-0.776-1.464-0.776-1.018 0-1.847 0.829-1.847 1.847 0 0.822 0.548 1.495 1.29 1.735l0.001 4.705c-0.743 0.239-1.291 0.913-1.291 1.735 0 1.018 0.829 1.847 1.847 1.847 0.506 0 0.965-0.206 1.299-0.537l4.111 1.716c0.030 0.992 0.837 1.793 1.836 1.793 1.019 0 1.848-0.829 1.848-1.847 0-0.009-0.005-0.017-0.005-0.026l3.919-1.636c0.334 0.331 0.793 0.537 1.299 0.537 1.018 0 1.847-0.829 1.847-1.847 0-0.821-0.548-1.495-1.29-1.734zM19.153 7.097c0.398 0 0.722 0.324 0.722 0.722s-0.324 0.723-0.722 0.723c-0.399 0-0.723-0.324-0.723-0.723s0.324-0.722 0.723-0.722zM12.093 4.311c0.399 0 0.723 0.324 0.723 0.722s-0.324 0.722-0.723 0.722c-0.398 0-0.722-0.324-0.722-0.722s0.324-0.722 0.722-0.722zM10.655 6.142c0.338 0.437 0.844 0.738 1.438 0.738 0.569 0 1.059-0.273 1.398-0.678l3.84 1.491c-0.003 0.044-0.026 0.082-0.026 0.127 0 0.101 0.042 0.188 0.058 0.284l-3.832 1.578c-0.338-0.437-0.844-0.737-1.438-0.737-0.62 0-1.143 0.327-1.478 0.797l-3.977-1.638c0.016-0.096 0.058-0.184 0.058-0.284 0-0.045-0.023-0.083-0.026-0.127l3.986-1.55zM12.816 10.792c0 0.399-0.324 0.723-0.723 0.723s-0.722-0.324-0.722-0.723c0-0.398 0.324-0.722 0.722-0.722s0.723 0.324 0.723 0.722zM4.847 7.097c0.399 0 0.723 0.324 0.723 0.722s-0.324 0.723-0.723 0.723c-0.398 0-0.722-0.324-0.722-0.723s0.324-0.722 0.722-0.722zM4.847 16.717c-0.398 0-0.722-0.324-0.722-0.722s0.324-0.722 0.722-0.722c0.399 0 0.723 0.324 0.723 0.722s-0.324 0.722-0.723 0.722zM12.093 19.689c-0.398 0-0.722-0.324-0.722-0.722s0.324-0.722 0.722-0.722c0.399 0 0.723 0.324 0.723 0.722s-0.324 0.722-0.723 0.722zM17.305 15.994c0 0.141 0.050 0.265 0.080 0.397l-3.785 1.569c-0.332-0.495-0.869-0.841-1.508-0.841-0.664 0-1.221 0.371-1.546 0.899l-3.932-1.628c0.030-0.132 0.080-0.256 0.080-0.397 0-0.85-0.589-1.537-1.373-1.751v-4.672c0.347-0.095 0.652-0.267 0.886-0.527l4.052 1.677c-0.001 0.025-0.014 0.046-0.014 0.071 0 1.019 0.829 1.848 1.847 1.848s1.848-0.829 1.848-1.848c0-0.052-0.026-0.096-0.030-0.147l3.881-1.601c0.234 0.26 0.54 0.433 0.887 0.528v4.672c-0.784 0.214-1.373 0.901-1.373 1.751zM19.153 16.717c-0.399 0-0.723-0.324-0.723-0.722s0.324-0.722 0.723-0.722c0.398 0 0.722 0.324 0.722 0.722s-0.324 0.722-0.722 0.722z"></path>
</svg>
