<!-- Generated by IcoMoon.io -->
<svg version="1.1" xmlns="http://www.w3.org/2000/svg" width="24" height="24" viewBox="0 0 24 24">
<title>Modifier-Inactive</title>
<path fill="#808080" d="M20.25 12c0 4.556-3.694 8.25-8.25 8.25s-8.25-3.694-8.25-8.25c0-4.556 3.694-8.25 8.25-8.25s8.25 3.694 8.25 8.25z"></path>
<path fill="#fff" d="M12 3.75c4.549 0 8.25 3.701 8.25 8.25s-3.701 8.25-8.25 8.25-8.25-3.701-8.25-8.25 3.701-8.25 8.25-8.25zM12 3c-4.971 0-9 4.029-9 9s4.029 9 9 9 9-4.029 9-9-4.029-9-9-9v0z"></path>
<path fill="#fff" d="M7.363 7.363c-2.561 2.561-2.561 6.712 0 9.273s6.712 2.561 9.273 0 2.561-6.713 0-9.273c-2.561-2.561-6.712-2.561-9.273 0zM8.105 8.105c2.020-2.020 5.219-2.115 7.381-0.334l-7.714 7.714c-1.781-2.162-1.687-5.36 0.334-7.381zM15.895 15.895c-2.020 2.020-5.219 2.115-7.381 0.334l7.714-7.714c1.781 2.162 1.687 5.36-0.334 7.381z"></path>
</svg>
