<!-- Generated by IcoMoon.io -->
<svg version="1.1" xmlns="http://www.w3.org/2000/svg" width="24" height="24" viewBox="0 0 24 24">
<title>Modifier-Switch</title>
<path fill="#009cdd" d="M20.25 12c0 4.556-3.694 8.25-8.25 8.25s-8.25-3.694-8.25-8.25c0-4.556 3.694-8.25 8.25-8.25s8.25 3.694 8.25 8.25z"></path>
<path fill="#fff" d="M12 3.75c4.549 0 8.25 3.701 8.25 8.25s-3.701 8.25-8.25 8.25-8.25-3.701-8.25-8.25 3.701-8.25 8.25-8.25zM12 3c-4.971 0-9 4.029-9 9s4.029 9 9 9 9-4.029 9-9-4.029-9-9-9v0z"></path>
<path fill="#fff" d="M16.81 14.388l-1.066-0.564c-0.728 1.488-2.311 2.46-4.061 2.326-1.677-0.129-3.092-1.264-3.619-2.826l1.627-0.576-2.905-1.386-1.387 2.906 1.529-0.541c0.684 2.005 2.506 3.46 4.662 3.626 2.242 0.172 4.273-1.066 5.219-2.965z"></path>
<path fill="#fff" d="M8.262 10.162c0.731-1.48 2.31-2.447 4.054-2.313 1.677 0.129 3.092 1.264 3.619 2.826l-1.627 0.576 2.905 1.386 1.387-2.906-1.529 0.541c-0.684-2.005-2.506-3.46-4.662-3.626-2.236-0.172-4.263 1.060-5.212 2.951l1.066 0.564z"></path>
</svg>
