<!-- Generated by IcoMoon.io -->
<svg version="1.1" xmlns="http://www.w3.org/2000/svg" width="24" height="24" viewBox="0 0 24 24">
<title>More</title>
<path d="M5.028 13.901c-0.563 0-1.042-0.185-1.437-0.556s-0.592-0.815-0.592-1.331c0-0.526 0.197-0.977 0.592-1.352s0.873-0.563 1.437-0.563c0.573 0 1.059 0.188 1.458 0.563s0.599 0.826 0.599 1.352c0 0.516-0.2 0.96-0.599 1.331s-0.885 0.556-1.458 0.556z"></path>
<path d="M11.986 13.901c-0.563 0-1.042-0.185-1.437-0.556s-0.592-0.815-0.592-1.331c0-0.526 0.197-0.977 0.592-1.352s0.873-0.563 1.437-0.563c0.573 0 1.059 0.188 1.458 0.563s0.599 0.826 0.599 1.352c0 0.516-0.2 0.96-0.599 1.331s-0.885 0.556-1.458 0.556z"></path>
<path d="M18.944 13.901c-0.563 0-1.042-0.185-1.437-0.556s-0.592-0.815-0.592-1.331c0-0.526 0.197-0.977 0.592-1.352s0.873-0.563 1.437-0.563c0.573 0 1.059 0.188 1.458 0.563s0.599 0.826 0.599 1.352c0 0.516-0.2 0.96-0.599 1.331s-0.885 0.556-1.458 0.556z"></path>
</svg>
