<!-- Generated by IcoMoon.io -->
<svg version="1.1" xmlns="http://www.w3.org/2000/svg" width="24" height="24" viewBox="0 0 24 24">
<title>MT_Wordmark_White_Vektor</title>
<path fill="#fff" d="M4.017 10.673h1.449v0.524h-0.438v2.115h-0.566v-2.115h-0.445z"></path>
<path fill="#fff" d="M7.155 10.672h0.569v2.106h0.645v0.535h-1.215z"></path>
<path fill="#fff" d="M2.638 10.673h1.266v0.5h-0.7v0.493h0.7v0.497h-0.7v0.631h0.7v0.518h-1.266z"></path>
<path fill="#fff" d="M1.201 12.336l0.386-1.663h0.794v2.639h-0.545v-1.925l-0.421 1.925h-0.424l-0.438-1.932v1.932h-0.552v-2.639h0.8z"></path>
<path fill="#fff" d="M11.883 13.313l-0.683-1.080c0.328-0.104 0.511-0.342 0.531-0.725 0-0.452-0.321-0.859-0.766-0.835l-0.932 0.003v2.639h0.573v-1.060l0.618 1.056h0.659zM10.861 11.825h-0.255v-0.669h0.269c0.176 0 0.293 0.148 0.293 0.335s-0.131 0.335-0.307 0.335z"></path>
<path fill="#fff" d="M20.653 10.677h-0.725v2.639l0.245-0.002v0.002h0.48c0.811 0.038 1.163-0.635 1.163-1.325-0.038-0.749-0.335-1.342-1.163-1.315zM20.701 12.802h-0.217v-1.625h0.221c0.369 0 0.518 0.362 0.518 0.825 0 0.431-0.148 0.821-0.521 0.8z"></path>
<path fill="#fff" d="M16.674 11.913c-0.001-0.050-0.004-0.099-0.009-0.147-0.001-0.013-0.003-0.026-0.004-0.038-0.001-0.006-0.001-0.013-0.002-0.019-0.073-0.638-0.417-1.105-1.013-1.092v0.004c-0.672-0.010-1.014 0.593-1.014 1.359 0 0.769 0.373 1.394 1.021 1.384 0.649 0.010 1.021-0.621 1.021-1.39 0-0.020-0-0.039-0.001-0.059h0.001zM16.087 11.972c0 0.5-0.124 0.89-0.438 0.883-0.314 0.007-0.438-0.38-0.438-0.88s0.124-0.871 0.437-0.866c0.009-0 0.018 0.001 0.027 0.001 0.010 0 0.020 0 0.030 0.002 0.006 0.001 0.011 0.002 0.016 0.003 0.219 0.040 0.327 0.291 0.36 0.61 0.007 0.077 0.009 0.158 0.008 0.246z"></path>
<path fill="#fff" d="M23.982 11.922c-0.001-0.050-0.004-0.099-0.009-0.147-0.001-0.013-0.003-0.025-0.004-0.038-0.001-0.007-0.001-0.013-0.002-0.020-0.073-0.638-0.417-1.104-1.013-1.092v0.004c-0.672-0.010-1.014 0.593-1.014 1.359 0 0.769 0.373 1.394 1.021 1.384 0.649 0.010 1.021-0.621 1.021-1.39 0-0.020-0-0.039-0.001-0.059h0.001zM23.395 11.981c0 0.5-0.124 0.89-0.438 0.883-0.314 0.007-0.438-0.38-0.438-0.88s0.124-0.871 0.437-0.866c0.009-0 0.018 0.001 0.027 0.001 0.010 0 0.020 0 0.030 0.002 0.006 0.001 0.011 0.002 0.017 0.003 0.219 0.040 0.327 0.291 0.359 0.61 0.007 0.077 0.009 0.158 0.008 0.246z"></path>
<path fill="#fff" d="M5.572 10.673h1.439v0.524h-0.438v2.115h-0.566v-2.115h-0.435z"></path>
<path fill="#fff" d="M8.531 10.673h1.266v0.5h-0.7v0.493h0.7v0.497h-0.7v0.631h0.7v0.518h-1.266z"></path>
<path fill="#fff" d="M16.903 10.672h0.569v2.106h0.645v0.535h-1.215z"></path>
<path fill="#fff" d="M13.198 10.673h1.439v0.524h-0.438v2.115h-0.566v-2.115h-0.435z"></path>
<path fill="#fff" d="M18.358 10.673h1.266v0.5h-0.7v0.493h0.7v0.497h-0.7v0.631h0.7v0.518h-1.266z"></path>
</svg>
