<!-- Generated by IcoMoon.io -->
<svg version="1.1" xmlns="http://www.w3.org/2000/svg" width="24" height="24" viewBox="0 0 24 24">
<title>Namur_Function_check_Orange</title>
<path fill="#fe8141" d="M20.83 5.923l-7.742 13.41c-0.483 0.837-1.692 0.837-2.175 0l-7.742-13.41c-0.483-0.837 0.121-1.884 1.088-1.884h15.485c0.967 0 1.571 1.047 1.088 1.884z"></path>
<path fill="#fff" d="M12.96 5.572v1.807l-0.97 0.506-0.949-0.506v-1.807c-0.748 0.358-1.265 1.123-1.265 2.008 0 0.893 0.527 1.663 1.286 2.017v5.322c0 0.516 0.422 0.938 0.938 0.938s0.938-0.422 0.938-0.938v-5.322c0.76-0.354 1.286-1.124 1.286-2.017 0-0.885-0.517-1.65-1.265-2.008zM12 14.95c-0.239 0-0.432-0.194-0.432-0.432s0.194-0.432 0.432-0.432 0.432 0.194 0.432 0.432c0 0.239-0.194 0.432-0.432 0.432z"></path>
</svg>
