<!-- Generated by IcoMoon.io -->
<svg version="1.1" xmlns="http://www.w3.org/2000/svg" width="24" height="24" viewBox="0 0 24 24">
<title>Namur_Maintenance_required_Blue</title>
<path fill="#00f" d="M10.939 20.473l-7.413-7.413c-0.586-0.586-0.586-1.536 0-2.121l7.413-7.413c0.586-0.586 1.536-0.586 2.121 0l7.413 7.413c0.586 0.586 0.586 1.536 0 2.121l-7.413 7.413c-0.586 0.586-1.536 0.586-2.121 0z"></path>
<path fill="#fff" d="M14.451 10.161h-0.919v-1.226h0.919c0.337 0 0.613-0.276 0.613-0.613s-0.276-0.613-0.613-0.613h-4.903c-0.337 0-0.613 0.276-0.613 0.613s0.276 0.613 0.613 0.613h0.919v1.226h-0.919c-0.338 0-0.613 0.274-0.613 0.613v4.903c0 0.338 0.274 0.613 0.613 0.613h4.903c0.338 0 0.613-0.274 0.613-0.613v-4.903c0-0.339-0.274-0.613-0.613-0.613z"></path>
</svg>
