<!-- Generated by IcoMoon.io -->
<svg version="1.1" xmlns="http://www.w3.org/2000/svg" width="24" height="24" viewBox="0 0 24 24">
<title>Namur_Out_of_specifiation_Yellow</title>
<path fill="#fefe00" d="M3.17 18.077l7.742-13.41c0.483-0.837 1.692-0.837 2.175 0l7.742 13.41c0.483 0.837-0.121 1.884-1.088 1.884h-15.485c-0.967 0-1.571-1.047-1.088-1.884z"></path>
<path fill="#000" d="M10.974 15.547v-0.403c0-0.423 0.079-0.778 0.238-1.063s0.442-0.586 0.849-0.903c0.407-0.31 0.694-0.566 0.861-0.769s0.25-0.456 0.25-0.757c0-0.31-0.108-0.546-0.324-0.709s-0.523-0.244-0.922-0.244c-0.358 0-0.7 0.053-1.026 0.159s-0.651 0.24-0.977 0.403l-0.55-1.148c0.375-0.203 0.782-0.368 1.221-0.494s0.924-0.189 1.453-0.189c0.822 0 1.457 0.197 1.905 0.592s0.672 0.914 0.672 1.557c0 0.35-0.055 0.649-0.165 0.898s-0.273 0.478-0.488 0.69-0.474 0.436-0.775 0.672c-0.252 0.195-0.444 0.362-0.574 0.501s-0.22 0.274-0.269 0.409c-0.049 0.134-0.073 0.299-0.073 0.494v0.306h-1.307zM10.742 17.488c0-0.342 0.091-0.584 0.275-0.726s0.405-0.214 0.665-0.214c0.252 0 0.47 0.071 0.653 0.214s0.275 0.385 0.275 0.726c0 0.334-0.091 0.574-0.275 0.72s-0.401 0.22-0.653 0.22c-0.26 0-0.482-0.073-0.665-0.22s-0.275-0.387-0.275-0.72z"></path>
</svg>
