<!-- Generated by IcoMoon.io -->
<svg version="1.1" xmlns="http://www.w3.org/2000/svg" width="24" height="24" viewBox="0 0 24 24">
<title>PackagePlatform</title>
<path d="M3 17.18h18v1.929h-18v-1.929z"></path>
<path d="M19.714 16.362h-15.429v-11.020h0.817v10.23h13.793v-10.23h0.818z"></path>
<path d="M14.528 6.097l-0.072-0.106-2.405-0.949-0.086-0.004-2.421 0.954-0.072 0.107 0.001 2.793 0.071 0.105 2.404 1.003 0.097 0.004 2.415-1.009 0.069-0.106-0-2.791zM12 6.927l-1.922-0.792 1.921-0.747 1.924 0.747-1.922 0.792zM14.19 6.391v2.354l-2.188 0.907-2.192-0.907v-2.354l2.137 0.884 0.090 0.004 2.153-0.888z"></path>
<path d="M11.222 10.505l-0.072-0.107-2.405-0.949-0.086-0.004-2.421 0.954-0.072 0.107 0.001 2.793 0.071 0.105 2.404 1.003 0.097 0.004 2.415-1.009 0.069-0.106-0-2.791zM8.694 11.335l-1.922-0.792 1.921-0.747 1.924 0.747-1.922 0.792zM10.884 10.799v2.354l-2.188 0.907-2.192-0.907v-2.354l2.137 0.884 0.090 0.004 2.153-0.888z"></path>
<path d="M17.834 10.505l-0.072-0.107-2.405-0.949-0.086-0.004-2.421 0.954-0.072 0.107 0.001 2.793 0.071 0.105 2.404 1.003 0.097 0.004 2.415-1.009 0.069-0.106-0-2.791zM15.306 11.335l-1.922-0.792 1.921-0.747 1.924 0.747-1.922 0.792zM17.496 10.799v2.354l-2.188 0.907-2.192-0.907v-2.354l2.137 0.884 0.090 0.004 2.153-0.888z"></path>
</svg>
