<!-- Generated by IcoMoon.io -->
<svg version="1.1" xmlns="http://www.w3.org/2000/svg" width="24" height="24" viewBox="0 0 24 24">
<title>Park</title>
<path d="M19.5 4.5v15h-15v-15h15zM20.25 3.75h-16.5v16.5h16.5v-16.5z"></path>
<path d="M11.61 6.75c1.363 0 2.355 0.282 2.978 0.846s0.933 1.351 0.933 2.36c0 0.598-0.127 1.157-0.382 1.677s-0.683 0.941-1.287 1.265c-0.603 0.323-1.419 0.485-2.449 0.485h-1.044v3.867h-1.882v-10.5h3.132zM11.493 8.309h-1.133v3.514h0.853c0.765 0 1.355-0.139 1.772-0.419s0.625-0.738 0.625-1.375c0-0.578-0.172-1.009-0.515-1.294s-0.877-0.426-1.602-0.426z"></path>
</svg>
