<!-- Generated by IcoMoon.io -->
<svg version="1.1" xmlns="http://www.w3.org/2000/svg" width="24" height="24" viewBox="0 0 24 24">
<title>Power</title>
<path d="M12 21c-4.312 0-7.82-3.508-7.82-7.82 0-2.738 1.394-5.229 3.728-6.665l0.868 1.412c-1.84 1.132-2.939 3.096-2.939 5.253 0 3.398 2.764 6.162 6.162 6.162s6.162-2.764 6.162-6.162c0-2.152-1.095-4.114-2.928-5.247l0.871-1.41c2.326 1.437 3.715 3.926 3.715 6.657 0 4.312-3.508 7.82-7.82 7.82z"></path>
<path d="M11.171 3h1.657v8.379h-1.657v-8.379z"></path>
</svg>
