<!-- Generated by IcoMoon.io -->
<svg version="1.1" xmlns="http://www.w3.org/2000/svg" width="24" height="24" viewBox="0 0 24 24">
<title>PresetTare</title>
<path d="M6.55 6.050c1.544 0 2.669 0.319 3.375 0.958s1.058 1.531 1.058 2.675c0 0.678-0.144 1.312-0.433 1.9s-0.774 1.067-1.458 1.434c-0.684 0.366-1.608 0.55-2.775 0.55h-1.183v4.383h-2.133v-11.9h3.55zM6.417 7.817h-1.284v3.983h0.967c0.867 0 1.536-0.158 2.008-0.475s0.709-0.836 0.709-1.558c0-0.655-0.195-1.144-0.584-1.467s-0.994-0.483-1.816-0.483z"></path>
<path d="M17.583 17.95h-2.134v-10.1h-3.417v-1.8h8.967v1.8h-3.417v10.1z"></path>
</svg>
