<!-- Generated by IcoMoon.io -->
<svg version="1.1" xmlns="http://www.w3.org/2000/svg" width="24" height="24" viewBox="0 0 24 24">
<title>Preview_EyeOff</title>
<path d="M22.5 12c0 0-4.701 6-10.5 6-0.984 0-1.932-0.183-2.836-0.469l7.62-7.62c0.286 0.641 0.466 1.34 0.466 2.089 0 1.667-0.792 3.135-2.004 4.097 2.56-1.047 4.655-3.018 5.66-4.097-0.681-0.731-1.87-1.868-3.358-2.853l0.877-0.877c2.475 1.699 4.075 3.73 4.075 3.73zM22.5 2.445l-20.055 20.055-0.945-0.945 5.153-5.153c-3.080-1.777-5.153-4.402-5.153-4.402s4.701-6 10.5-6c1.458 0 2.842 0.384 4.102 0.953l5.453-5.453 0.945 0.945zM7.545 15.51l0.322-0.322c-0.692-0.882-1.117-1.979-1.117-3.188 0-1.667 0.792-3.135 2.004-4.097-2.56 1.047-4.655 3.018-5.66 4.097 0.841 0.903 2.45 2.423 4.451 3.51z"></path>
</svg>
