<!-- Generated by IcoMoon.io -->
<svg version="1.1" xmlns="http://www.w3.org/2000/svg" width="24" height="24" viewBox="0 0 24 24">
<title>Preview_Eye</title>
<path d="M12 6c-5.799 0-10.5 6-10.5 6s4.701 6 10.5 6 10.5-6 10.5-6-4.701-6-10.5-6zM3.094 12c1.006-1.079 3.101-3.050 5.66-4.097-1.212 0.962-2.004 2.43-2.004 4.097s0.792 3.135 2.004 4.097c-2.56-1.047-4.655-3.018-5.66-4.097zM15.246 16.097c1.212-0.962 2.004-2.43 2.004-4.097s-0.792-3.135-2.004-4.097c2.56 1.047 4.655 3.018 5.66 4.097-1.006 1.079-3.101 3.050-5.66 4.097z"></path>
</svg>
