<!-- Generated by IcoMoon.io -->
<svg version="1.1" xmlns="http://www.w3.org/2000/svg" width="24" height="24" viewBox="0 0 24 24">
<title>Preview_Eye1</title>
<path d="M12 6.857c-4.97 0-9 5.143-9 5.143s4.029 5.143 9 5.143 9-5.143 9-5.143-4.029-5.143-9-5.143zM4.366 12c0.862-0.925 2.658-2.614 4.852-3.512-1.039 0.824-1.718 2.083-1.718 3.512s0.679 2.688 1.718 3.512c-2.194-0.897-3.99-2.587-4.852-3.512zM14.782 15.512c1.039-0.824 1.718-2.083 1.718-3.512s-0.679-2.688-1.718-3.512c2.194 0.897 3.99 2.587 4.852 3.512-0.862 0.925-2.658 2.614-4.852 3.512z"></path>
</svg>
