<!-- Generated by IcoMoon.io -->
<svg version="1.1" xmlns="http://www.w3.org/2000/svg" width="24" height="24" viewBox="0 0 24 24">
<title>Print</title>
<path d="M19.5 12.75c0 0.414-0.336 0.75-0.75 0.75s-0.75-0.336-0.75-0.75c0-0.414 0.336-0.75 0.75-0.75s0.75 0.336 0.75 0.75z"></path>
<path d="M21 17.967v-7.384h-4.55v-6.067h-8.9v6.067h-4.55v7.384h4.55v1.517h8.9v-1.517h4.55zM8.564 10.483v-4.953h6.873v5.053h-6.873v-0.1zM15.436 16.247v2.223h-6.873v-2.323h6.873v0.1zM7.55 15.133v1.82h-3.536v-5.356h15.973v5.356h-3.536v-1.82h-8.9z"></path>
</svg>
