<!-- Generated by IcoMoon.io -->
<svg version="1.1" xmlns="http://www.w3.org/2000/svg" width="24" height="24" viewBox="0 0 24 24">
<title>Readability</title>
<path d="M21.75 11.48h-2.002c-0.25-1.546-1.581-2.73-3.198-2.73-1.459 0-2.679 0.968-3.090 2.292l-1.46-0.772-1.46 0.772c-0.411-1.324-1.631-2.292-3.090-2.292-1.617 0-2.947 1.184-3.198 2.73h-2.002v1.040h2.002c0.25 1.546 1.581 2.73 3.198 2.73 1.747 0 3.16-1.381 3.236-3.109l1.314-0.694 1.314 0.694c0.075 1.728 1.489 3.109 3.236 3.109 1.617 0 2.947-1.184 3.198-2.73h2.002v-1.040zM7.45 14.21c-1.219 0-2.21-0.991-2.21-2.21s0.991-2.21 2.21-2.21 2.21 0.991 2.21 2.21-0.991 2.21-2.21 2.21zM16.55 14.21c-1.219 0-2.21-0.991-2.21-2.21s0.991-2.21 2.21-2.21c1.219 0 2.21 0.991 2.21 2.21s-0.991 2.21-2.21 2.21z"></path>
</svg>
