<!-- Generated by IcoMoon.io -->
<svg version="1.1" xmlns="http://www.w3.org/2000/svg" width="24" height="24" viewBox="0 0 24 24">
<title>Recall_Information</title>
<path d="M9.729 16.401c-1.716 0-3.433-0.654-4.739-1.96v0c-2.613-2.613-2.613-6.865 0-9.478 1.266-1.266 2.949-1.963 4.739-1.963 1.791-0.001 3.473 0.696 4.739 1.963 1.266 1.265 1.963 2.949 1.963 4.739s-0.698 3.473-1.963 4.739c-1.307 1.306-3.022 1.96-4.739 1.96zM5.975 13.456c2.070 2.070 5.438 2.070 7.509 0 1.002-1.002 1.555-2.336 1.555-3.754s-0.552-2.752-1.555-3.754c-2.004-2.004-5.501-2.004-7.509 0-2.070 2.070-2.070 5.438 0 7.508v0z"></path>
<path d="M14.072 15.579l1.477-1.477 5.421 5.421-1.477 1.477-5.421-5.421z"></path>
<path d="M9.066 8.61h1.584v4.782h-1.584v-4.782z"></path>
<path d="M9.858 7.808c0.527 0 0.954-0.403 0.954-0.9s-0.427-0.9-0.954-0.9-0.954 0.403-0.954 0.9c0 0.497 0.427 0.9 0.954 0.9z"></path>
</svg>
