<!-- Generated by IcoMoon.io -->
<svg version="1.1" xmlns="http://www.w3.org/2000/svg" width="24" height="24" viewBox="0 0 24 24">
<title>Recalculate</title>
<path d="M15.703 5.752l-0.12-0.062-0.832 1.612 0.12 0.062c2.241 1.157 3.564 3.529 3.37 6.043-0.264 3.441-3.28 6.008-6.72 5.762-3.441-0.264-6.026-3.279-5.762-6.721 0.193-2.522 1.901-4.649 4.249-5.441l0.866 2.446 2.085-4.367-4.369-2.085 0.814 2.298c-3.014 1.029-5.203 3.767-5.452 7.010-0.341 4.438 2.993 8.326 7.431 8.667 0.21 0.016 0.419 0.024 0.627 0.024 1.922 0 3.764-0.68 5.242-1.948 1.639-1.406 2.632-3.361 2.796-5.507 0.249-3.244-1.457-6.302-4.345-7.793z"></path>
<path d="M11.438 11.297h-1.396v1.396h-0.583v-1.396h-1.396v-0.583h1.396v-1.399h0.583v1.399h1.396v0.583z"></path>
<path d="M15.933 11.297h-3.375v-0.583h3.375v0.583z"></path>
<path d="M11.361 16.652l-0.41 0.41-1.201-1.201-1.198 1.201-0.413-0.413 1.201-1.191-1.201-1.201 0.406-0.413 1.205 1.201 1.205-1.201 0.403 0.42-1.198 1.194 1.201 1.194z"></path>
<path d="M15.937 15.748h-3.378v-0.583h3.378v0.583zM14.255 17.257c-0.12 0-0.222-0.041-0.306-0.122s-0.125-0.18-0.125-0.295c0-0.12 0.041-0.224 0.122-0.313s0.184-0.133 0.309-0.133c0.276 0 0.413 0.146 0.413 0.438 0 0.12-0.039 0.221-0.118 0.302s-0.177 0.122-0.295 0.122zM14.286 14.515c-0.125 0-0.23-0.041-0.316-0.122s-0.129-0.181-0.129-0.299c0-0.123 0.039-0.227 0.118-0.313s0.182-0.129 0.309-0.129c0.278 0 0.417 0.145 0.417 0.435 0 0.125-0.039 0.227-0.118 0.307s-0.173 0.12-0.281 0.12z"></path>
</svg>
