<!-- Generated by IcoMoon.io -->
<svg version="1.1" xmlns="http://www.w3.org/2000/svg" width="24" height="24" viewBox="0 0 24 24">
<title>Recipe</title>
<path d="M18.582 21h-13.163v-18h9.294l3.869 4.376v13.624zM6.791 19.626h10.418v-11.73l-3.115-3.521h-7.303v15.251z"></path>
<path d="M9.21 9.792h-0.404v-1.428c0-0.069 0-0.141 0.003-0.219 0.002-0.077 0.005-0.149 0.009-0.215-0.022 0.022-0.047 0.047-0.078 0.077s-0.066 0.060-0.102 0.088l-0.257 0.205-0.202-0.251 0.694-0.549h0.337v2.292z"></path>
<path d="M10.5 8.271h5.25v0.75h-5.25v-0.75z"></path>
<path d="M9.659 13.952h-1.571v-0.298l0.585-0.591c0.116-0.118 0.21-0.219 0.284-0.303s0.129-0.161 0.163-0.235c0.036-0.074 0.053-0.154 0.053-0.24 0-0.105-0.028-0.183-0.088-0.235-0.060-0.053-0.138-0.080-0.24-0.080-0.096 0-0.185 0.020-0.27 0.060-0.083 0.041-0.169 0.096-0.26 0.169l-0.221-0.266c0.094-0.082 0.201-0.152 0.32-0.213s0.27-0.092 0.455-0.092c0.147 0 0.274 0.027 0.379 0.078 0.107 0.053 0.188 0.125 0.246 0.219 0.058 0.092 0.086 0.199 0.086 0.318 0 0.125-0.024 0.238-0.074 0.343-0.049 0.103-0.121 0.207-0.213 0.31s-0.204 0.216-0.332 0.335l-0.362 0.35v0.020h1.060v0.35z"></path>
<path d="M10.5 12.414h5.25v0.75h-5.25v-0.75z"></path>
<path d="M9.582 16.343c0 0.155-0.045 0.281-0.136 0.373-0.091 0.094-0.208 0.155-0.351 0.188v0.009c0.183 0.024 0.323 0.082 0.417 0.174 0.094 0.091 0.141 0.213 0.141 0.362 0 0.133-0.031 0.252-0.096 0.356-0.064 0.105-0.163 0.188-0.298 0.248-0.133 0.060-0.306 0.089-0.514 0.089-0.127 0-0.243-0.009-0.35-0.030-0.105-0.020-0.205-0.052-0.299-0.094v-0.357c0.096 0.050 0.199 0.088 0.309 0.113 0.108 0.025 0.212 0.039 0.307 0.039 0.187 0 0.318-0.034 0.395-0.102s0.116-0.161 0.116-0.281c0-0.114-0.045-0.198-0.135-0.254-0.091-0.055-0.24-0.083-0.45-0.083h-0.193v-0.324h0.196c0.204 0 0.343-0.033 0.42-0.1 0.078-0.066 0.116-0.15 0.116-0.256 0-0.092-0.030-0.165-0.089-0.216-0.060-0.050-0.15-0.077-0.27-0.077-0.116 0-0.215 0.019-0.299 0.056-0.083 0.038-0.158 0.078-0.224 0.121l-0.193-0.279c0.088-0.064 0.191-0.119 0.312-0.165 0.119-0.044 0.26-0.067 0.423-0.067 0.238 0 0.422 0.050 0.55 0.152 0.13 0.1 0.194 0.235 0.194 0.404z"></path>
<path d="M10.5 16.59h5.25v0.75h-5.25v-0.75z"></path>
</svg>
