<!-- Generated by IcoMoon.io -->
<svg version="1.1" xmlns="http://www.w3.org/2000/svg" width="24" height="24" viewBox="0 0 24 24">
<title>Reference</title>
<path d="M8.763 17.296c0 1.592-1.29 2.882-2.882 2.882s-2.882-1.29-2.882-2.882c0-1.592 1.29-2.882 2.882-2.882s2.882 1.29 2.882 2.882z"></path>
<path d="M14.881 17.296c0 1.592-1.29 2.882-2.882 2.882s-2.882-1.29-2.882-2.882c0-1.592 1.29-2.882 2.882-2.882s2.882 1.29 2.882 2.882z"></path>
<path d="M21 17.296c0 1.592-1.29 2.882-2.882 2.882s-2.882-1.29-2.882-2.882c0-1.592 1.29-2.882 2.882-2.882s2.882 1.29 2.882 2.882z"></path>
<path d="M11.823 12c0 1.592-1.29 2.882-2.882 2.882s-2.882-1.29-2.882-2.882c0-1.592 1.29-2.882 2.882-2.882s2.882 1.29 2.882 2.882z"></path>
<path d="M17.941 12c0 1.592-1.29 2.882-2.882 2.882s-2.882-1.29-2.882-2.882c0-1.592 1.29-2.882 2.882-2.882s2.882 1.29 2.882 2.882z"></path>
<path d="M14.882 6.704c0 1.592-1.29 2.882-2.882 2.882s-2.882-1.29-2.882-2.882c0-1.592 1.29-2.882 2.882-2.882s2.882 1.29 2.882 2.882z"></path>
</svg>
