<!-- Generated by IcoMoon.io -->
<svg version="1.1" xmlns="http://www.w3.org/2000/svg" width="24" height="24" viewBox="0 0 24 24">
<title>RemoveLastMaterial</title>
<path d="M21 18.429h-18v-12.857h0.953v11.935h16.092v-11.935h0.955z"></path>
<path d="M11.092 11.846l-0.084-0.124-2.806-1.107-0.101-0.005-2.825 1.113-0.084 0.125 0.001 3.258 0.083 0.122 2.805 1.171 0.113 0.005 2.818-1.177 0.081-0.124-0-3.257zM8.143 12.815l-2.243-0.924 2.241-0.871 2.244 0.871-2.243 0.924zM10.698 12.189v2.746l-2.553 1.059-2.557-1.059v-2.746l2.493 1.032 0.105 0.005 2.512-1.036z"></path>
<path d="M18.807 11.846l-0.084-0.124-2.806-1.107-0.101-0.005-2.825 1.113-0.084 0.125 0.001 3.258 0.083 0.122 2.805 1.171 0.113 0.005 2.818-1.177 0.081-0.124-0-3.257zM15.857 12.815l-2.243-0.924 2.241-0.871 2.244 0.871-2.243 0.924zM18.412 12.189v2.746l-2.553 1.059-2.557-1.059v-2.746l2.493 1.032 0.105 0.005 2.512-1.036z"></path>
</svg>
