<!-- Generated by IcoMoon.io -->
<svg version="1.1" xmlns="http://www.w3.org/2000/svg" width="24" height="24" viewBox="0 0 24 24">
<title>Scoreboard</title>
<path d="M21.75 6.75v10.5h-19.5v-10.5h19.5zM22.5 6h-21v12h21v-12zM13.091 9.918c-0.346 0-0.586 0.174-0.72 0.522-0.133 0.348-0.2 0.867-0.2 1.552 0 0.687 0.068 1.202 0.2 1.548 0.134 0.346 0.374 0.518 0.72 0.518 0.339 0 0.579-0.171 0.718-0.514s0.208-0.86 0.208-1.552c0-0.685-0.069-1.204-0.208-1.552s-0.379-0.522-0.718-0.522zM17.575 9.918c-0.346 0-0.586 0.174-0.72 0.522-0.133 0.348-0.2 0.867-0.2 1.552 0 0.687 0.068 1.202 0.2 1.548 0.134 0.346 0.374 0.518 0.72 0.518 0.339 0 0.579-0.171 0.718-0.514s0.208-0.86 0.208-1.552c0-0.685-0.069-1.204-0.208-1.552s-0.379-0.522-0.718-0.522zM6.418 9.918c-0.346 0-0.586 0.174-0.72 0.522-0.133 0.348-0.2 0.867-0.2 1.552 0 0.687 0.068 1.202 0.2 1.548 0.134 0.346 0.374 0.518 0.72 0.518 0.339 0 0.579-0.171 0.719-0.514s0.208-0.86 0.208-1.552c0-0.685-0.069-1.204-0.208-1.552s-0.379-0.522-0.719-0.522zM3 7.5v9h18v-9h-18zM8.154 13.54c-0.125 0.43-0.329 0.759-0.613 0.99-0.283 0.23-0.657 0.346-1.123 0.346-0.661 0-1.145-0.255-1.454-0.763-0.31-0.508-0.465-1.215-0.465-2.121 0-0.602 0.064-1.119 0.189-1.552 0.126-0.431 0.329-0.763 0.609-0.993 0.281-0.231 0.653-0.346 1.121-0.346 0.655 0 1.138 0.254 1.452 0.762 0.315 0.508 0.472 1.218 0.472 2.129 0 0.602-0.063 1.118-0.189 1.548zM10.179 14.757c-0.12 0.094-0.262 0.142-0.424 0.142s-0.302-0.047-0.421-0.142c-0.117-0.094-0.176-0.249-0.176-0.463 0-0.219 0.059-0.375 0.176-0.467 0.119-0.092 0.259-0.138 0.421-0.138s0.304 0.046 0.424 0.138c0.121 0.092 0.181 0.248 0.181 0.467 0 0.214-0.060 0.369-0.181 0.463zM14.826 13.54c-0.125 0.43-0.329 0.759-0.613 0.99-0.283 0.23-0.657 0.346-1.123 0.346-0.661 0-1.145-0.255-1.454-0.763-0.31-0.508-0.465-1.215-0.465-2.121 0-0.602 0.064-1.119 0.189-1.552 0.126-0.431 0.329-0.763 0.609-0.993 0.281-0.231 0.654-0.346 1.121-0.346 0.655 0 1.138 0.254 1.452 0.762 0.315 0.508 0.472 1.218 0.472 2.129 0 0.602-0.063 1.118-0.189 1.548zM19.311 13.54c-0.125 0.43-0.329 0.759-0.613 0.99-0.283 0.23-0.657 0.346-1.123 0.346-0.661 0-1.145-0.255-1.454-0.763-0.31-0.508-0.465-1.215-0.465-2.121 0-0.602 0.064-1.119 0.189-1.552 0.126-0.431 0.329-0.763 0.609-0.993 0.281-0.231 0.653-0.346 1.121-0.346 0.655 0 1.138 0.254 1.452 0.762 0.315 0.508 0.472 1.218 0.472 2.129 0 0.602-0.063 1.118-0.189 1.548z"></path>
</svg>
