<!-- Generated by IcoMoon.io -->
<svg version="1.1" xmlns="http://www.w3.org/2000/svg" width="24" height="24" viewBox="0 0 24 24">
<title>SecureWeigh</title>
<path d="M20.25 7.374l-0.004-0.107-8.246-4.279-8.246 4.279-0.004 0.107c-0.013 0.317-0.276 7.818 3.325 11.569 1.303 1.357 2.96 2.046 4.926 2.046s3.622-0.689 4.926-2.046c3.601-3.75 3.338-11.251 3.325-11.569zM12 20.045c-1.698 0-3.125-0.59-4.243-1.753-2.872-2.989-3.066-8.995-3.070-10.445l7.313-3.795 7.313 3.795c-0.004 1.45-0.198 7.456-3.070 10.445-1.118 1.164-2.545 1.753-4.243 1.753z"></path>
<path d="M15.136 10.925c-0.136-0.299-0.667-0.465-1.128-0.555-0.023-0.034-0.040-0.073-0.037-0.108 0.003-0.037 0.027-0.077 0.052-0.108h0.328c0.197-0.009 0.367-0.088 0.492-0.227 0.239-0.265 0.231-0.661 0.225-0.661-0 0-0 0.001-0.001 0.001 0.089-0.493-0.353-0.827-0.866-0.935l-4.464 0.007c-0.449 0.101-0.891 0.434-0.807 0.86-0.003 0.046-0.017 0.455 0.228 0.728 0.125 0.139 0.296 0.218 0.507 0.228h0.313c0.024 0.029 0.048 0.068 0.052 0.106 0.003 0.036-0.013 0.075-0.037 0.11-0.461 0.090-0.992 0.256-1.127 0.556l-0.026 5.282 0.016 0.096c0.026 0.073 0.264 0.718 0.878 0.832h2.351l2.24-0.006c0.557-0.108 0.796-0.753 0.822-0.825l0.016-5.257-0.026-0.122z"></path>
</svg>
