<!-- Generated by IcoMoon.io -->
<svg version="1.1" xmlns="http://www.w3.org/2000/svg" width="24" height="24" viewBox="0 0 24 24">
<title>Service</title>
<path d="M20.727 6.198l-2.755 2.755-2.25-0.707-0.675-2.218 2.755-2.755c-1.687-0.594-3.639-0.218-4.988 1.131-1.361 1.361-1.732 3.338-1.114 5.035l-8.11 8.11c-0.787 0.787-0.787 2.074 0 2.86s2.074 0.787 2.86 0l8.11-8.11c1.697 0.618 3.673 0.248 5.035-1.114 1.349-1.349 1.726-3.302 1.131-4.988zM4.972 19.028c-0.364-0.364-0.364-0.954 0-1.318s0.954-0.364 1.318 0 0.364 0.954 0 1.318-0.954 0.364-1.318 0z"></path>
</svg>
