<!-- Generated by IcoMoon.io -->
<svg version="1.1" xmlns="http://www.w3.org/2000/svg" width="24" height="24" viewBox="0 0 24 24">
<title>Settings</title>
<path d="M12 21c-0.619 0-1.279-0.062-1.91-0.179-0.284-0.053-0.49-0.3-0.49-0.59v-1.144c-0.364-0.123-0.715-0.271-1.052-0.443l-0.741 0.789c-0.201 0.213-0.526 0.25-0.769 0.089-1.029-0.685-1.884-1.536-2.544-2.533-0.159-0.24-0.125-0.559 0.082-0.761l0.791-0.77c-0.177-0.342-0.33-0.699-0.454-1.060h-1.145c-0.29 0-0.538-0.207-0.59-0.492-0.117-0.64-0.179-1.3-0.179-1.908s0.062-1.268 0.179-1.908c0.052-0.285 0.3-0.492 0.59-0.492h1.144c0.123-0.363 0.271-0.715 0.444-1.051l-0.788-0.742c-0.213-0.2-0.25-0.525-0.089-0.769 0.68-1.026 1.53-1.881 2.529-2.545 0.241-0.158 0.56-0.124 0.762 0.082l0.77 0.791c0.341-0.176 0.698-0.328 1.061-0.452v-1.146c0-0.29 0.207-0.538 0.492-0.591 1.273-0.232 2.544-0.232 3.817 0 0.285 0.053 0.492 0.301 0.492 0.591v1.144c0.365 0.124 0.717 0.272 1.052 0.443l0.741-0.788c0.2-0.212 0.525-0.25 0.769-0.089 1.027 0.681 1.883 1.533 2.544 2.531 0.159 0.24 0.125 0.56-0.082 0.762l-0.791 0.77c0.177 0.342 0.33 0.7 0.454 1.060h1.145c0.289 0 0.537 0.206 0.59 0.491 0.117 0.634 0.179 1.294 0.179 1.909s-0.062 1.275-0.179 1.909c-0.053 0.285-0.301 0.491-0.59 0.491h-1.144c-0.123 0.365-0.271 0.716-0.444 1.053l0.788 0.742c0.213 0.2 0.25 0.525 0.088 0.769-0.681 1.026-1.532 1.881-2.528 2.544-0.241 0.158-0.56 0.124-0.762-0.082l-0.77-0.791c-0.34 0.177-0.698 0.329-1.061 0.454v1.145c0 0.29-0.206 0.537-0.49 0.59-0.63 0.117-1.291 0.179-1.91 0.179zM10.8 19.719c0.809 0.105 1.591 0.105 2.4 0v-1.075c0-0.27 0.18-0.506 0.441-0.579 0.561-0.154 1.121-0.394 1.62-0.695 0.237-0.143 0.544-0.105 0.739 0.096l0.732 0.753c0.561-0.428 1.062-0.933 1.498-1.509l-0.748-0.704c-0.205-0.193-0.248-0.504-0.103-0.745 0.297-0.497 0.529-1.042 0.687-1.62 0.071-0.261 0.308-0.442 0.578-0.442h1.075c0.054-0.406 0.081-0.813 0.081-1.2s-0.028-0.795-0.081-1.2h-1.075c-0.27 0-0.507-0.181-0.578-0.442-0.152-0.553-0.393-1.114-0.695-1.619-0.143-0.239-0.103-0.544 0.096-0.738l0.752-0.733c-0.427-0.561-0.933-1.064-1.509-1.499l-0.703 0.748c-0.193 0.205-0.504 0.246-0.745 0.104-0.495-0.297-1.041-0.527-1.622-0.687-0.26-0.073-0.441-0.309-0.441-0.579v-1.075c-0.814-0.108-1.586-0.108-2.4 0v1.075c0 0.27-0.18 0.506-0.441 0.579-0.56 0.154-1.12 0.394-1.621 0.694-0.237 0.143-0.544 0.103-0.738-0.096l-0.732-0.753c-0.562 0.428-1.063 0.933-1.498 1.51l0.748 0.704c0.205 0.193 0.248 0.504 0.103 0.745-0.298 0.497-0.529 1.042-0.687 1.619-0.071 0.261-0.308 0.442-0.578 0.442h-1.074c-0.054 0.409-0.082 0.817-0.082 1.2s0.028 0.791 0.082 1.2h1.074c0.27 0 0.507 0.181 0.578 0.442 0.153 0.554 0.393 1.115 0.695 1.62 0.143 0.239 0.103 0.544-0.096 0.738l-0.752 0.731c0.427 0.561 0.932 1.063 1.509 1.5l0.703-0.748c0.192-0.206 0.502-0.247 0.744-0.104 0.499 0.297 1.044 0.529 1.622 0.687 0.26 0.073 0.441 0.309 0.441 0.579v1.075zM12 15.819c-2.106 0-3.82-1.714-3.82-3.821s1.714-3.821 3.82-3.821 3.82 1.714 3.82 3.821-1.714 3.821-3.82 3.821zM12 9.377c-1.445 0-2.62 1.176-2.62 2.621s1.175 2.621 2.62 2.621 2.62-1.176 2.62-2.621-1.175-2.621-2.62-2.621z"></path>
</svg>
