<!-- Generated by IcoMoon.io -->
<svg version="1.1" xmlns="http://www.w3.org/2000/svg" width="24" height="24" viewBox="0 0 24 24">
<title>SplitMaterial</title>
<path d="M11.4 18.073l-5.896-2.441v-6.982l5.896 2.44v-1.096l-5.102-2.101 5.102-1.984v-1.078l-6.687 2.636-0.213 0.317 0.002 8.284 0.21 0.311 6.688 2.791z"></path>
<path d="M11.4 3.474h1.2v18h-1.2v-18z"></path>
<path d="M13.796 17.58l0.387 0.927 0.504-0.211c0.004-0.001 0.007-0.003 0.011-0.005h0c0.394-0.164 0.869-0.363 0.869-0.363l-0.387-0.927-1.384 0.578z"></path>
<path d="M18.495 12.973l1.005-0-0-0.813c0-0.002 0-0.004 0-0.006v-0.007c0-0.004 0-0.008 0-0.011v-0.001c0-0.343-0-0.661-0-0.661l-1.005 0 0 1.5z"></path>
<path d="M14.335 6.589l0.369-0.935 1.395 0.551-0.369 0.935-1.395-0.551z"></path>
<path d="M14.516 9.204l1.387-0.571 0.383 0.929-1.387 0.571-0.383-0.929z"></path>
<path d="M17.946 15.847l-1.382 0.577 0.387 0.927c0 0 0.379-0.158 0.74-0.309l0.001-0c0.002-0.001 0.005-0.002 0.007-0.003l0.001-0c0.001-0 0.002-0.001 0.002-0.001l0.627-0.262-0.385-0.929z"></path>
<path d="M19.5 14.473l-1.005 0 0 1.16-0.001 0 0.379 0.916 0.42-0.176 0.206-0.315v-0.086z"></path>
<path d="M12.245 4.684c-0-0-0.001-0-0.001-0l-0.004-0.001c-0.001-0.001-0.003-0.001-0.004-0.002l-0.003-0.001c-0-0-0.001-0-0.001-0l-0.003-0.001c-0-0-0-0-0.001-0l-0.001-0.001c-0 0-0 0-0 0l-0.005-0.002c-0-0-0.001-0-0.001-0l-0-0c-0-0-0.001-0-0.001-0l-0.001-0c-0.001-0-0.002-0.001-0.002-0.001l-0.001-0c-0.001-0-0.002-0.001-0.002-0.001l-0.001-0c-0.002-0.001-0.004-0.002-0.006-0.002l-0-0c-0.001-0-0.002-0.001-0.003-0.001l-0-0c-0.001-0-0.001-0-0.002-0.001l-0.002-0.001c-0 0-0-0-0-0l-0.001-0c-0-0-0-0-0.001-0l-0.001-0c-0.001-0-0.001-0.001-0.002-0.001l-0.001-0c-0.005-0.002-0.011-0.004-0.015-0.006-0.018-0.007-0.029-0.011-0.029-0.011l-0.245-0.012v1.075l0.1-0.039 0.934 0.368 0.369-0.935-1.064-0.42z"></path>
<path d="M13.129 9.775c0 0-0.575 0.237-0.905 0.373l-0 0c-0.021 0.009-0.041 0.017-0.060 0.025l-0.002 0.001-0.002 0.001c-0 0-0 0-0 0l-0.001 0.001c-0.001 0-0.001 0.001-0.002 0.001l-0.004 0.002c-0 0-0 0-0 0l-0.004 0.002c-0 0-0 0-0.001 0l-0.004 0.002c-0 0-0 0-0 0l-0.002 0.001c-0 0-0.001 0-0.001 0.001l-0 0c-0.001 0-0.001 0-0.002 0.001l-0.008 0.003c-0 0-0 0-0.001 0l-0.008 0.003c-0 0-0 0-0.001 0l-0.008 0.003-0 0-0.004 0.002c-0 0-0 0-0.001 0l-0.001 0c-0 0-0.001 0-0.001 0.001l-0 0c-0.001 0-0.001 0-0.002 0.001l-0.003 0.001c-0 0-0.001 0-0.001 0l-0.003 0.001c-0 0-0 0-0.001 0l-0.002 0.001v1.087l1.418-0.584-0.383-0.929z"></path>
<path d="M12.412 18.158l-0.318 0.133v1.073l0.036 0.002c0 0 0.010-0.004 0.028-0.012l0.001-0c0.004-0.002 0.009-0.004 0.015-0.006l0-0c0.003-0.001 0.005-0.002 0.008-0.003l0-0c0.002-0.001 0.004-0.002 0.006-0.003l0.001-0c0-0 0-0 0.001-0l0-0c0-0 0-0 0-0l0.002-0.001c0-0 0.001-0 0.001-0l0-0c0.001-0 0.001-0.001 0.002-0.001l0-0c0.001-0 0.001-0.001 0.002-0.001h0c0.001-0 0.001-0.001 0.002-0.001l0.001-0c0-0 0-0 0-0l0.001-0c0-0 0-0 0-0l0.001-0c0-0 0-0 0.001-0l0-0c0-0 0-0 0.001-0l0.001-0c0.001-0 0.001-0 0.002-0.001l0.001-0.001c0 0 0-0 0-0l0.005-0.002c0 0 0 0 0 0l0.583-0.244-0.387-0.927z"></path>
<path d="M19.499 9.972c0 0-0-0.968-0-1.666v-0.005c0-0.003 0-0.006 0-0.009v-0.001c0-0.001 0-0.452 0-0.453l-0 0v-0.060l-0.215-0.316-1.793-0.708-0.361 0.915 0.572 0.222-0.428 0.176 0.382 0.928 0.838-0.346 0 1.322 1.005-0z"></path>
</svg>
