<!-- Generated by IcoMoon.io -->
<svg version="1.1" xmlns="http://www.w3.org/2000/svg" width="24" height="24" viewBox="0 0 24 24">
<title>SwitchWeight</title>
<path d="M16.136 14.984c0 0.713-0.578 1.291-1.291 1.291s-1.291-0.578-1.291-1.291c0-0.713 0.578-1.291 1.291-1.291s1.291 0.578 1.291 1.291z"></path>
<path d="M18.719 14.984c0 0.713-0.578 1.291-1.291 1.291s-1.291-0.578-1.291-1.291c0-0.713 0.578-1.291 1.291-1.291s1.291 0.578 1.291 1.291z"></path>
<path d="M21.301 14.984c0 0.713-0.578 1.291-1.291 1.291s-1.291-0.578-1.291-1.291c0-0.713 0.578-1.291 1.291-1.291s1.291 0.578 1.291 1.291z"></path>
<path d="M17.428 12.611c0 0.713-0.578 1.291-1.291 1.291s-1.291-0.578-1.291-1.291c0-0.713 0.578-1.291 1.291-1.291s1.291 0.578 1.291 1.291z"></path>
<path d="M20.010 12.611c0 0.713-0.578 1.291-1.291 1.291s-1.291-0.578-1.291-1.291c0-0.713 0.578-1.291 1.291-1.291s1.291 0.578 1.291 1.291z"></path>
<path d="M18.719 10.238c0 0.713-0.578 1.291-1.291 1.291s-1.291-0.578-1.291-1.291c0-0.713 0.578-1.291 1.291-1.291s1.291 0.578 1.291 1.291z"></path>
<path d="M6.452 16.275h-2.283c-0.596-0.11-0.828-0.737-0.852-0.808l-0.016-0.093 0.025-5.129c0.132-0.291 0.647-0.453 1.095-0.54 0.023-0.034 0.039-0.072 0.036-0.107-0.004-0.037-0.027-0.075-0.050-0.103h-0.304c-0.205-0.010-0.371-0.086-0.492-0.221-0.238-0.264-0.224-0.662-0.221-0.707-0.082-0.414 0.348-0.738 0.783-0.836l4.335-0.007c0.498 0.105 0.927 0.429 0.841 0.908 0 0 0-0.001 0.001-0.001 0.007 0 0.014 0.384-0.218 0.642-0.122 0.135-0.287 0.211-0.478 0.22h-0.318c-0.024 0.031-0.047 0.069-0.050 0.105-0.003 0.034 0.013 0.072 0.036 0.105 0.448 0.087 0.963 0.249 1.095 0.539l0.025 0.119-0.016 5.105c-0.025 0.070-0.257 0.697-0.798 0.801l-2.175 0.006zM3.872 15.32c0.058 0.135 0.195 0.358 0.351 0.389l4.35-0.006c0.108-0.026 0.241-0.25 0.297-0.382v-4.856c-0.105-0.057-0.443-0.162-0.753-0.216l-0.093-0.017-0.065-0.068c-0.227-0.24-0.257-0.47-0.242-0.621 0.033-0.339 0.308-0.544 0.339-0.566l0.075-0.054h0.509c0.154-0.008 0.143-0.324 0.143-0.326 0.027-0.192-0.281-0.294-0.339-0.308l-4.209 0.008c0.006 0.006-0.302 0.108-0.279 0.236 0.004 0.067-0.007 0.383 0.161 0.391l0.495-0.001 0.075 0.053c0.031 0.022 0.306 0.228 0.339 0.567 0.015 0.151-0.016 0.381-0.242 0.621l-0.065 0.068-0.093 0.016c-0.3 0.053-0.627 0.153-0.753 0.227v4.844z"></path>
<path d="M14.060 12l-1.221-1.221v0.783h-1.565v-0.783l-1.221 1.221 1.221 1.221v-0.878h1.565v0.878z"></path>
</svg>
