<!-- Generated by IcoMoon.io -->
<svg version="1.1" xmlns="http://www.w3.org/2000/svg" width="24" height="24" viewBox="0 0 24 24">
<title>SwitchUnit</title>
<path fill="#000" d="M12.171 21h-4.807c-1.254-0.232-1.742-1.551-1.794-1.701l-0.033-0.197 0.054-10.797c0.277-0.613 1.362-0.953 2.304-1.137 0.049-0.065 0.076-0.144 0.076-0.225-0.016-0.081-0.053-0.156-0.108-0.217h-0.639c-0.395-0.006-0.77-0.175-1.037-0.467-0.33-0.423-0.496-0.951-0.466-1.486-0.172-0.873 0.732-1.554 1.649-1.76l9.127-0.014c1.049 0.22 1.953 0.902 1.772 1.912v0c0.014 0.49-0.149 0.97-0.459 1.35-0.258 0.286-0.622 0.454-1.007 0.465h-0.67c-0.055 0.062-0.091 0.139-0.105 0.22 0.001 0.080 0.027 0.158 0.075 0.222 0.944 0.184 2.028 0.525 2.306 1.135l0.054 0.249-0.033 10.747c-0.053 0.149-0.541 1.467-1.68 1.688l-4.579 0.011zM6.74 18.99c0.122 0.285 0.41 0.753 0.74 0.818l9.158-0.012c0.228-0.054 0.507-0.525 0.624-0.804v-10.224c-0.508-0.212-1.040-0.364-1.584-0.453l-0.197-0.036-0.138-0.144c-0.357-0.337-0.544-0.817-0.51-1.306 0.068-0.477 0.325-0.907 0.714-1.193l0.158-0.112h1.071c0.325-0.017 0.302-0.681 0.302-0.686 0.057-0.405-0.592-0.618-0.713-0.649l-8.861 0.016c0.013 0.013-0.636 0.227-0.588 0.497 0.009 0.141-0.015 0.806 0.339 0.823h1.042l0.158 0.111c0.387 0.287 0.644 0.717 0.713 1.194 0.035 0.49-0.153 0.97-0.51 1.306l-0.136 0.144-0.197 0.036c-0.548 0.086-1.081 0.247-1.584 0.478l-0 10.195z"></path>
<path fill="#009cdd" d="M22.188 18.75c0 1.898-1.539 3.438-3.438 3.438s-3.438-1.539-3.438-3.438c0-1.898 1.539-3.438 3.438-3.438s3.438 1.539 3.438 3.438z"></path>
<path fill="#fff" d="M18.75 15.312c1.895 0 3.438 1.542 3.438 3.438s-1.542 3.438-3.438 3.438-3.438-1.542-3.438-3.438 1.542-3.438 3.438-3.438zM18.75 15c-2.071 0-3.75 1.679-3.75 3.75s1.679 3.75 3.75 3.75 3.75-1.679 3.75-3.75-1.679-3.75-3.75-3.75v0z"></path>
<path fill="#fff" d="M20.754 19.745l-0.444-0.235c-0.303 0.62-0.963 1.025-1.692 0.969-0.699-0.054-1.288-0.527-1.508-1.178l0.678-0.24-1.21-0.578-0.578 1.211 0.637-0.225c0.285 0.835 1.044 1.442 1.943 1.511 0.934 0.072 1.78-0.444 2.175-1.235z"></path>
<path fill="#fff" d="M17.193 17.984c0.305-0.617 0.962-1.019 1.689-0.964 0.699 0.054 1.288 0.527 1.508 1.178l-0.678 0.24 1.21 0.578 0.578-1.211-0.637 0.225c-0.285-0.835-1.044-1.442-1.943-1.511-0.932-0.072-1.776 0.442-2.172 1.23l0.444 0.235z"></path>
</svg>
