<!-- Generated by IcoMoon.io -->
<svg version="1.1" xmlns="http://www.w3.org/2000/svg" width="24" height="24" viewBox="0 0 24 24">
<title>SwitchScale</title>
<path fill="#000" d="M21 19.319l-3.322-11.224h1.829v-1.311h-6.849v-2.103h-1.309v2.103h-6.851v1.311h1.916l-3.415 11.224h8.342l-3.323-11.224h8.053l-3.414 11.224h8.342zM4.765 18.009l2.446-8.037 2.379 8.037h-4.824zM14.424 18.009l2.445-8.037 2.379 8.037h-4.823z"></path>
<path fill="#009cdd" d="M22.188 18.75c0 1.898-1.539 3.438-3.438 3.438s-3.438-1.539-3.438-3.438c0-1.898 1.539-3.438 3.438-3.438s3.438 1.539 3.438 3.438z"></path>
<path fill="#fff" d="M18.75 15.312c1.895 0 3.438 1.542 3.438 3.438s-1.542 3.438-3.438 3.438-3.438-1.542-3.438-3.438 1.542-3.438 3.438-3.438zM18.75 15c-2.071 0-3.75 1.679-3.75 3.75s1.679 3.75 3.75 3.75 3.75-1.679 3.75-3.75-1.679-3.75-3.75-3.75v0z"></path>
<path fill="#fff" d="M20.754 19.745l-0.444-0.235c-0.303 0.62-0.963 1.025-1.692 0.969-0.699-0.054-1.288-0.527-1.508-1.178l0.678-0.24-1.21-0.578-0.578 1.211 0.637-0.225c0.285 0.835 1.044 1.442 1.943 1.511 0.934 0.072 1.78-0.444 2.175-1.235z"></path>
<path fill="#fff" d="M17.193 17.984c0.305-0.617 0.962-1.019 1.689-0.964 0.699 0.054 1.288 0.527 1.508 1.178l-0.678 0.24 1.21 0.578 0.578-1.211-0.637 0.225c-0.285-0.835-1.044-1.442-1.943-1.511-0.932-0.072-1.776 0.442-2.172 1.23l0.444 0.235z"></path>
</svg>
