<!-- Generated by IcoMoon.io -->
<svg version="1.1" xmlns="http://www.w3.org/2000/svg" width="24" height="24" viewBox="0 0 24 24">
<title>SwitchWeight_Inactive</title>
<path fill="#000" d="M15.835 14.984c0 0.713-0.578 1.291-1.291 1.291s-1.291-0.578-1.291-1.291c0-0.713 0.578-1.291 1.291-1.291s1.291 0.578 1.291 1.291z"></path>
<path fill="#000" d="M18.417 14.984c0 0.713-0.578 1.291-1.291 1.291s-1.291-0.578-1.291-1.291c0-0.713 0.578-1.291 1.291-1.291s1.291 0.578 1.291 1.291z"></path>
<path fill="#000" d="M21 14.984c0 0.713-0.578 1.291-1.291 1.291s-1.291-0.578-1.291-1.291c0-0.713 0.578-1.291 1.291-1.291s1.291 0.578 1.291 1.291z"></path>
<path fill="#000" d="M17.126 12.611c0 0.713-0.578 1.291-1.291 1.291s-1.291-0.578-1.291-1.291c0-0.713 0.578-1.291 1.291-1.291s1.291 0.578 1.291 1.291z"></path>
<path fill="#000" d="M19.709 12.611c0 0.713-0.578 1.291-1.291 1.291s-1.291-0.578-1.291-1.291c0-0.713 0.578-1.291 1.291-1.291s1.291 0.578 1.291 1.291z"></path>
<path fill="#000" d="M18.418 10.238c0 0.713-0.578 1.291-1.291 1.291s-1.291-0.578-1.291-1.291c0-0.713 0.578-1.291 1.291-1.291s1.291 0.578 1.291 1.291z"></path>
<path fill="#000" d="M6.151 16.275h-2.283c-0.596-0.11-0.828-0.737-0.852-0.808l-0.016-0.093 0.025-5.129c0.132-0.291 0.647-0.453 1.095-0.54 0.023-0.034 0.039-0.072 0.036-0.107-0.004-0.037-0.027-0.075-0.050-0.103h-0.304c-0.205-0.010-0.371-0.086-0.492-0.221-0.238-0.264-0.224-0.662-0.221-0.707-0.082-0.414 0.348-0.738 0.783-0.836l4.335-0.007c0.498 0.105 0.927 0.429 0.841 0.908 0 0 0-0.001 0.001-0.001 0.007 0 0.014 0.384-0.218 0.642-0.122 0.135-0.287 0.211-0.478 0.22h-0.318c-0.024 0.031-0.047 0.069-0.050 0.105-0.003 0.034 0.013 0.072 0.036 0.105 0.448 0.087 0.963 0.249 1.095 0.539l0.025 0.119-0.016 5.105c-0.025 0.070-0.257 0.697-0.798 0.801l-2.175 0.006zM3.571 15.32c0.058 0.135 0.195 0.358 0.351 0.389l4.35-0.006c0.108-0.026 0.241-0.25 0.297-0.382v-4.856c-0.105-0.057-0.443-0.162-0.753-0.216l-0.093-0.017-0.065-0.068c-0.227-0.24-0.257-0.47-0.242-0.621 0.033-0.339 0.308-0.544 0.339-0.566l0.075-0.054h0.509c0.154-0.008 0.143-0.324 0.143-0.326 0.027-0.192-0.281-0.294-0.339-0.308l-4.209 0.008c0.006 0.006-0.302 0.108-0.279 0.236 0.004 0.067-0.007 0.383 0.161 0.391l0.495-0.001 0.075 0.053c0.031 0.022 0.306 0.228 0.339 0.567 0.015 0.151-0.016 0.381-0.242 0.621l-0.065 0.068-0.093 0.016c-0.3 0.053-0.627 0.153-0.753 0.227v4.844z"></path>
<path fill="#000" d="M13.759 12l-1.221-1.221v0.783h-1.565v-0.783l-1.221 1.221 1.221 1.221v-0.878h1.565v0.878z"></path>
<path fill="#808080" d="M8.854 18.75c0 1.991-1.614 3.604-3.604 3.604s-3.604-1.614-3.604-3.604c0-1.991 1.614-3.604 3.604-3.604s3.604 1.614 3.604 3.604z"></path>
<path fill="#fff" d="M5.25 22.5c-2.071 0-3.75-1.679-3.75-3.75s1.679-3.75 3.75-3.75 3.75 1.679 3.75 3.75c-0.002 2.070-1.68 3.748-3.75 3.75zM5.25 15.299c-1.91 0-3.458 1.548-3.458 3.458s1.548 3.458 3.458 3.458 3.458-1.548 3.458-3.458v0c-0.002-1.909-1.549-3.455-3.458-3.457v-0z"></path>
<path fill="#fff" d="M3.403 16.903c-1.020 1.020-1.020 2.673 0 3.693s2.673 1.020 3.693 0 1.020-2.673 0-3.693c-1.020-1.020-2.673-1.020-3.693 0zM3.699 17.199c0.805-0.805 2.079-0.842 2.94-0.133l-3.072 3.072c-0.709-0.861-0.672-2.135 0.133-2.94zM6.801 20.301c-0.805 0.805-2.079 0.842-2.94 0.133l3.072-3.072c0.709 0.861 0.672 2.135-0.133 2.94z"></path>
</svg>
