<!-- Generated by IcoMoon.io -->
<svg version="1.1" xmlns="http://www.w3.org/2000/svg" width="24" height="24" viewBox="0 0 24 24">
<title>SwitchScreen</title>
<path d="M19.714 6.857v10.286h-15.429v-10.286h15.429zM19.714 5.571h-15.429c-0.71 0-1.286 0.576-1.286 1.286v10.286c0 0.71 0.576 1.286 1.286 1.286h15.429c0.71 0 1.286-0.576 1.286-1.286v-10.286c0-0.71-0.576-1.286-1.286-1.286v0z"></path>
<path d="M15.462 13.882c-1.488-0.097-2.377-0.866-3.306-1.882 0.928-1.016 1.817-1.785 3.306-1.882v1.344l1.952-1.952-1.952-1.954v1.363c-1.928 0.097-3.073 1.063-4.112 2.188-1.099-1.192-2.317-2.208-4.443-2.208h-0.321v1.198h0.321c1.695 0 2.612 0.778 3.638 1.903-1.026 1.126-1.943 1.903-3.638 1.903h-0.321v1.198h0.321c2.127 0 3.344-1.016 4.443-2.208 1.039 1.125 2.184 2.091 4.112 2.188v1.363l1.952-1.954-1.952-1.952v1.344z"></path>
</svg>
