<!-- Generated by IcoMoon.io -->
<svg version="1.1" xmlns="http://www.w3.org/2000/svg" width="24" height="24" viewBox="0 0 24 24">
<title>Tare_Auto</title>
<path d="M13.278 8.039h-2.567l-0.611 1.804h-1.298l2.501-6.843h1.393l2.501 6.843h-1.298l-0.621-1.804zM12.372 5.233c-0.025-0.082-0.064-0.202-0.115-0.358s-0.098-0.315-0.143-0.477-0.083-0.298-0.115-0.406c-0.031 0.133-0.071 0.282-0.119 0.449-0.048 0.165-0.092 0.321-0.134 0.467-0.041 0.146-0.075 0.255-0.1 0.324l-0.601 1.756h1.917l-0.59-1.756z"></path>
<path d="M10.138 21l-4.617-4.451 1.12-1.151 3.452 3.331 7.221-7.494 1.166 1.12-8.342 8.644z"></path>
</svg>
