<!-- Generated by IcoMoon.io -->
<svg version="1.1" xmlns="http://www.w3.org/2000/svg" width="24" height="24" viewBox="0 0 24 24">
<title>Target</title>
<path d="M21 11.438h-1.528c-0.275-3.692-3.216-6.634-6.909-6.909v-1.528h-1.125v1.528c-3.692 0.275-6.634 3.218-6.909 6.909h-1.528v1.125h1.528c0.275 3.692 3.217 6.635 6.909 6.91v1.528h1.125v-1.528c3.693-0.275 6.634-3.218 6.909-6.91h1.528v-1.125zM18.318 11.438h-1.875c-0.256-2.030-1.85-3.625-3.881-3.881v-1.875c3.060 0.273 5.482 2.696 5.756 5.756zM11.438 12.563v3.318c-1.718-0.249-3.069-1.6-3.318-3.318h3.318zM8.119 11.438c0.249-1.718 1.6-3.069 3.318-3.318v3.318h-3.318zM12.563 12.563h3.318c-0.249 1.718-1.6 3.069-3.318 3.318v-3.318zM12.563 11.438v-3.318c1.718 0.249 3.069 1.6 3.318 3.318h-3.318zM11.438 5.682v1.875c-2.030 0.256-3.625 1.85-3.881 3.881h-1.875c0.273-3.060 2.696-5.482 5.756-5.756zM5.682 12.563h1.875c0.256 2.031 1.85 3.625 3.881 3.881v1.875c-3.060-0.273-5.482-2.696-5.756-5.756zM12.563 18.319v-1.875c2.031-0.256 3.625-1.85 3.881-3.881h1.875c-0.273 3.060-2.695 5.483-5.756 5.756z"></path>
</svg>
