<!-- Generated by IcoMoon.io -->
<svg version="1.1" xmlns="http://www.w3.org/2000/svg" width="24" height="24" viewBox="0 0 24 24">
<title>Tasklist</title>
<path d="M18.857 3h-13.714v18h13.714v-18zM9 4.714h6v-0.857h3v16.286h-12v-16.286h3v0.857z"></path>
<path d="M11.25 9.429h5.571v0.857h-5.571v-0.857z"></path>
<path d="M8.779 10.672l-1.6-1.542 0.388-0.402 1.198 1.155 2.503-2.597 0.402 0.388z"></path>
<path d="M11.143 13.286h5.571v0.857h-5.571v-0.857z"></path>
<path d="M8.671 14.529l-1.6-1.542 0.388-0.402 1.198 1.155 2.503-2.597 0.402 0.388z"></path>
<path d="M11.143 17.143h5.571v0.857h-5.571v-0.857z"></path>
<path d="M9.643 16.5v1.714h-1.714v-1.714h1.714zM10.071 16.071h-2.571v2.571h2.571v-2.571z"></path>
</svg>
