<!-- Generated by IcoMoon.io -->
<svg version="1.1" xmlns="http://www.w3.org/2000/svg" width="24" height="24" viewBox="0 0 24 24">
<title>TerminalInfo</title>
<path d="M11.217 10.922h1.565v4.727h-1.565v-4.727z"></path>
<path d="M12 10.13c0.521 0 0.943-0.398 0.943-0.889s-0.422-0.889-0.943-0.889c-0.521 0-0.943 0.398-0.943 0.889s0.422 0.889 0.943 0.889z"></path>
<path d="M19.541 17.655h-15.082c-0.805 0-1.459-0.654-1.459-1.459v-8.393c0-0.805 0.654-1.459 1.459-1.459h15.082c0.805 0 1.459 0.654 1.459 1.459v8.392c-0 0.805-0.654 1.459-1.459 1.459zM4.459 7.317c-0.268 0-0.486 0.219-0.486 0.486v8.392c0 0.268 0.219 0.486 0.486 0.486h15.082c0.268 0 0.486-0.219 0.486-0.486v-8.393c0-0.268-0.219-0.486-0.486-0.486h-15.082z"></path>
</svg>
