<!-- Generated by IcoMoon.io -->
<svg version="1.1" xmlns="http://www.w3.org/2000/svg" width="24" height="24" viewBox="0 0 24 24">
<title>Terminal</title>
<path d="M19.541 17.655h-15.082c-0.805 0-1.459-0.654-1.459-1.459v-8.393c0-0.805 0.654-1.459 1.459-1.459h15.082c0.805 0 1.459 0.654 1.459 1.459v8.392c-0 0.805-0.654 1.459-1.459 1.459zM4.459 7.317c-0.268 0-0.486 0.219-0.486 0.486v8.392c0 0.268 0.219 0.486 0.486 0.486h15.082c0.268 0 0.486-0.219 0.486-0.486v-8.393c0-0.268-0.219-0.486-0.486-0.486h-15.082z"></path>
<path d="M4.875 8.25h10.125v6.75h-10.125v-6.75z"></path>
</svg>
