<!-- Generated by IcoMoon.io -->
<svg version="1.1" xmlns="http://www.w3.org/2000/svg" width="24" height="24" viewBox="0 0 24 24">
<title>ThreeWeight</title>
<path d="M11.985 9.209h1.669v2.244c-0.235 0.078-0.476 0.138-0.723 0.179s-0.528 0.062-0.84 0.062c-0.667 0-1.18-0.198-1.539-0.593s-0.538-0.956-0.538-1.681c0-0.461 0.090-0.861 0.269-1.199s0.44-0.599 0.782-0.785c0.342-0.185 0.758-0.278 1.248-0.278 0.243 0 0.476 0.025 0.699 0.074s0.426 0.113 0.612 0.192l-0.272 0.649c-0.144-0.066-0.307-0.124-0.488-0.173s-0.371-0.074-0.569-0.074c-0.301 0-0.56 0.066-0.779 0.198s-0.386 0.318-0.503 0.559c-0.118 0.241-0.177 0.524-0.177 0.849 0 0.313 0.045 0.589 0.136 0.828s0.235 0.426 0.433 0.562c0.198 0.136 0.455 0.204 0.773 0.204 0.156 0 0.289-0.009 0.398-0.025s0.209-0.035 0.3-0.056v-1.063h-0.89v-0.673z"></path>
<path d="M10.35 13.176l0.031 0.143-0.002 0.534h1.719l1.549-0.004 0.003-0.672 0.006-0.011-3.309 0.004z"></path>
<path d="M8.996 12.449v-0.076c-0.003 0.009-0.005 0.019-0.006 0.028-0.001 0.016 0.002 0.032 0.006 0.048z"></path>
<path d="M15.66 6.604c-0.159-0.349-0.778-0.543-1.316-0.648-0.027-0.040-0.047-0.086-0.043-0.127 0.004-0.044 0.031-0.090 0.060-0.127h0.382c0.23-0.011 0.428-0.102 0.575-0.265 0.279-0.309 0.27-0.771 0.262-0.771-0 0-0 0.001-0.001 0.001 0.104-0.576-0.412-0.966-1.011-1.092l-5.21 0.008c-0.524 0.117-1.040 0.506-0.941 1.004-0.003 0.054-0.020 0.532 0.266 0.849 0.146 0.162 0.345 0.254 0.592 0.266h0.365c0.028 0.034 0.056 0.080 0.060 0.124 0.004 0.042-0.016 0.087-0.043 0.128-0.538 0.105-1.157 0.299-1.316 0.649l-0.018 3.544 0.674-0.001v-3.266c0.151-0.089 0.544-0.21 0.905-0.273l0.112-0.019 0.078-0.082c0.272-0.288 0.309-0.565 0.291-0.746-0.039-0.407-0.37-0.655-0.407-0.682l-0.090-0.064-0.595 0.001c-0.202-0.010-0.189-0.39-0.194-0.47-0.027-0.153 0.343-0.276 0.336-0.283l5.059-0.009c0.069 0.017 0.439 0.139 0.407 0.37 0 0.003 0.013 0.383-0.172 0.392h-0.612l-0.090 0.065c-0.037 0.027-0.368 0.273-0.407 0.681-0.018 0.181 0.019 0.458 0.291 0.746l0.078 0.082 0.112 0.020c0.372 0.065 0.779 0.191 0.905 0.259v3.287l0.676-0.001 0.010-3.408-0.031-0.143z"></path>
<path d="M17.407 20.424h-2.744c-0.716-0.132-0.995-0.885-1.024-0.971l-0.019-0.112 0.031-6.164c0.158-0.35 0.778-0.544 1.316-0.649 0.028-0.041 0.047-0.086 0.043-0.128-0.005-0.044-0.032-0.090-0.060-0.124h-0.365c-0.246-0.012-0.446-0.104-0.592-0.266-0.286-0.318-0.269-0.796-0.266-0.849-0.098-0.498 0.418-0.887 0.941-1.004l5.21-0.008c0.599 0.126 1.115 0.516 1.011 1.092 0 0 0-0.001 0.001-0.001 0.008 0 0.017 0.462-0.262 0.771-0.146 0.163-0.345 0.254-0.575 0.265h-0.382c-0.029 0.037-0.057 0.083-0.060 0.127-0.003 0.041 0.016 0.086 0.043 0.127 0.538 0.105 1.157 0.299 1.316 0.648l0.031 0.143-0.019 6.136c-0.030 0.085-0.309 0.838-0.959 0.963l-2.615 0.007zM14.306 19.277c0.070 0.163 0.234 0.43 0.422 0.467l5.228-0.007c0.13-0.031 0.289-0.3 0.357-0.459v-5.837c-0.126-0.068-0.533-0.195-0.905-0.259l-0.112-0.020-0.078-0.082c-0.272-0.288-0.309-0.565-0.291-0.746 0.039-0.407 0.37-0.654 0.407-0.681l0.090-0.065h0.612c0.185-0.009 0.172-0.389 0.172-0.392 0.032-0.231-0.338-0.353-0.407-0.37l-5.059 0.009c0.008 0.008-0.363 0.13-0.336 0.283 0.005 0.080-0.008 0.46 0.194 0.47l0.595-0.001 0.090 0.064c0.037 0.027 0.368 0.274 0.407 0.682 0.018 0.181-0.019 0.458-0.291 0.746l-0.078 0.082-0.112 0.019c-0.361 0.064-0.754 0.184-0.905 0.273v5.822z"></path>
<path d="M19.185 18.496h-0.983l-2.089-3.461h-0.025c0.009 0.185 0.018 0.384 0.028 0.596s0.019 0.425 0.028 0.639v2.225h-0.711v-4.413h0.976l2.083 3.436h0.019c-0.004-0.164-0.011-0.354-0.022-0.568s-0.018-0.422-0.022-0.624v-2.244h0.717v4.413z"></path>
<path d="M6.788 20.424h-2.744c-0.716-0.132-0.995-0.885-1.024-0.971l-0.019-0.112 0.031-6.164c0.158-0.35 0.778-0.544 1.316-0.649 0.028-0.041 0.047-0.086 0.043-0.128-0.005-0.044-0.032-0.090-0.060-0.124h-0.365c-0.246-0.012-0.446-0.104-0.592-0.266-0.286-0.318-0.269-0.796-0.266-0.849-0.098-0.498 0.418-0.887 0.941-1.004l5.21-0.008c0.599 0.126 1.115 0.516 1.011 1.092 0 0 0-0.001 0.001-0.001 0.008 0 0.017 0.462-0.262 0.771-0.146 0.163-0.345 0.254-0.575 0.265h-0.382c-0.029 0.037-0.057 0.083-0.060 0.127-0.003 0.041 0.016 0.086 0.043 0.127 0.538 0.105 1.157 0.299 1.316 0.648l0.031 0.143-0.019 6.136c-0.030 0.085-0.309 0.838-0.959 0.963l-2.615 0.007zM3.687 19.277c0.070 0.163 0.234 0.43 0.422 0.467l5.228-0.007c0.13-0.031 0.289-0.3 0.357-0.459v-5.837c-0.126-0.068-0.533-0.195-0.905-0.259l-0.112-0.020-0.078-0.082c-0.272-0.288-0.309-0.565-0.291-0.746 0.039-0.407 0.37-0.654 0.407-0.681l0.090-0.065h0.612c0.185-0.009 0.172-0.389 0.172-0.392 0.032-0.231-0.338-0.353-0.407-0.37l-5.059 0.009c0.008 0.008-0.363 0.13-0.336 0.283 0.005 0.080-0.008 0.46 0.194 0.47l0.595-0.001 0.090 0.064c0.037 0.027 0.368 0.274 0.407 0.682 0.018 0.181-0.019 0.458-0.291 0.746l-0.078 0.082-0.112 0.019c-0.361 0.064-0.754 0.184-0.905 0.273v5.822z"></path>
<path d="M7.086 18.496h-0.791v-3.745h-1.267v-0.667h3.325v0.667h-1.267v3.745z"></path>
</svg>
