<!-- Generated by IcoMoon.io -->
<svg version="1.1" xmlns="http://www.w3.org/2000/svg" width="24" height="24" viewBox="0 0 24 24">
<title>TimeDate</title>
<path d="M5.455 10.364h1.227v1.227h-1.227v-1.227z"></path>
<path d="M5.455 12.818h1.227v1.227h-1.227v-1.227z"></path>
<path d="M7.909 12.818h1.227v1.227h-1.227v-1.227z"></path>
<path d="M10.364 12.818h1.227v1.227h-1.227v-1.227z"></path>
<path d="M12.818 10.364h1.227v1.227h-1.227v-1.227z"></path>
<path d="M7.909 7.909h1.227v1.227h-1.227v-1.227z"></path>
<path d="M7.909 10.364h1.227v1.227h-1.227v-1.227z"></path>
<path d="M10.364 10.364h1.227v1.227h-1.227v-1.227z"></path>
<path d="M10.364 9.136v-1.227h1.227v1.227h-1.227z"></path>
<path d="M12.818 9.136v-1.227h1.227v1.227h-1.227z"></path>
<path d="M10.5 15.75c0-0.164 0.033-0.318 0.048-0.477h-6.321v-8.591h11.045v3.866c0.16-0.015 0.314-0.048 0.477-0.048 0.257 0 0.503 0.040 0.75 0.076v-7.576h-2.455v1.227h-2.455v-1.227h-3.682v1.227h-2.455v-1.227h-2.455v13.5h7.576c-0.036-0.247-0.076-0.493-0.076-0.75z"></path>
<path d="M15.094 18.156v-3.063h3.938v0.875h-3.063v2.188z"></path>
<path d="M15.75 11.375c2.412 0 4.375 1.963 4.375 4.375s-1.963 4.375-4.375 4.375-4.375-1.963-4.375-4.375 1.963-4.375 4.375-4.375zM15.75 10.5c-2.899 0-5.25 2.351-5.25 5.25s2.351 5.25 5.25 5.25 5.25-2.351 5.25-5.25-2.351-5.25-5.25-5.25v0z"></path>
</svg>
