<!-- Generated by IcoMoon.io -->
<svg version="1.1" xmlns="http://www.w3.org/2000/svg" width="24" height="24" viewBox="0 0 24 24">
<title>Undo</title>
<path d="M20.036 12.309c-0.249-3.243-2.438-5.982-5.452-7.010l0.814-2.298-4.369 2.085 2.085 4.367 0.866-2.446c2.348 0.792 4.056 2.919 4.249 5.441 0.264 3.442-2.321 6.457-5.762 6.721-2.29 0.164-4.372-0.936-5.599-2.694l-1.569 0.906c0.406 0.608 0.867 1.182 1.437 1.672 1.478 1.268 3.32 1.948 5.242 1.948 0.208 0 0.417-0.008 0.627-0.024 4.438-0.341 7.772-4.23 7.431-8.667z"></path>
<path d="M3.94 13.5c0.001 0.015-0.001 0.030 0 0.045 0.067 0.884 0.308 1.722 0.644 2.516l1.583-0.914c-0.2-0.521-0.349-1.067-0.405-1.647h-1.823z"></path>
<path d="M4.702 9.507c-0.363 0.782-0.615 1.619-0.715 2.493h1.827c0.082-0.551 0.252-1.076 0.471-1.58l-1.582-0.914z"></path>
<path d="M7.070 6.545c-0.619 0.482-1.167 1.037-1.615 1.664l1.593 0.919c0.276-0.362 0.589-0.697 0.939-0.997l-0.916-1.586z"></path>
</svg>
