<!-- Generated by IcoMoon.io -->
<svg version="1.1" xmlns="http://www.w3.org/2000/svg" width="24" height="24" viewBox="0 0 24 24">
<title>Unlock</title>
<path d="M20.171 11.833h-8.34v-3.81l-0-0.004c-0.025-0.589-0.156-1.161-0.392-1.699-0.23-0.525-0.548-0.996-0.946-1.4-0.828-0.841-1.92-1.304-3.074-1.304s-2.246 0.463-3.074 1.304c-0.398 0.404-0.716 0.875-0.946 1.4-0.236 0.539-0.368 1.11-0.392 1.699l-0 0.004-0 0.004-0.006 1.116-0.001 0.198h1.263v-1.313c0-1.711 1.445-3.156 3.156-3.156s3.156 1.445 3.156 3.156v3.806h-1.541c-0.458 0-0.829 0.371-0.829 0.829v6.894c0 0.458 0.371 0.829 0.829 0.829h11.137c0.458 0 0.829-0.371 0.829-0.829v-6.894c0-0.458-0.371-0.829-0.829-0.829zM15.202 16.611v2.506h-1.198v-2.506c-0.696-0.247-1.198-0.906-1.198-1.687 0-0.992 0.804-1.797 1.797-1.797s1.797 0.804 1.797 1.797c0 0.781-0.502 1.439-1.198 1.687z"></path>
</svg>
