<!-- Generated by IcoMoon.io -->
<svg version="1.1" xmlns="http://www.w3.org/2000/svg" width="24" height="24" viewBox="0 0 24 24">
<title>Update</title>
<path d="M15.799 4.348l-0.897 1.696c2.367 1.158 3.914 3.677 3.701 6.461-0.205 2.668-2.011 4.919-4.496 5.757l-0.916-2.588-2.206 4.621 4.622 2.206-0.861-2.432c3.189-1.089 5.505-3.986 5.769-7.417 0.274-3.566-1.695-6.797-4.716-8.303z"></path>
<path d="M9.077 17.946c-2.355-1.163-3.892-3.675-3.68-6.45 0.205-2.668 2.011-4.919 4.496-5.757l0.916 2.588 2.206-4.621-4.622-2.206 0.861 2.432c-3.189 1.089-5.505 3.986-5.769 7.417-0.274 3.558 1.686 6.782 4.695 8.292l0.897-1.696z"></path>
</svg>
