<!-- Generated by IcoMoon.io -->
<svg version="1.1" xmlns="http://www.w3.org/2000/svg" width="24" height="24" viewBox="0 0 24 24">
<title>User_Profile</title>
<path d="M19.656 16.159c-0.835-0.602-4.594-1.826-4.755-1.86-0.032-0.031-0.125-0.208-0.19-0.649 0.896-1.027 1.534-2.63 1.896-4.765 0.276-1.609-0.117-3.229-1.049-4.335-0.856-1.014-2.085-1.55-3.556-1.55s-2.701 0.535-3.557 1.549c-0.932 1.105-1.325 2.725-1.052 4.336 0.363 2.136 1.001 3.739 1.896 4.765-0.093 0.611-0.25 0.656-0.308 0.672-0.036 0.011-3.798 1.232-4.64 1.838-0.938 0.681-1.090 2.827-1.052 4.507l0.007 0.333h1.702l-0.005-0.346c-0.022-1.508 0.179-2.92 0.319-3.087 0.486-0.354 3.626-1.46 4.175-1.617 1.202-0.305 1.454-1.45 1.543-2.529 0.022-0.26-0.074-0.512-0.264-0.692-0.772-0.73-1.357-2.159-1.692-4.133-0.19-1.121 0.062-2.223 0.674-2.948 0.528-0.625 1.286-0.942 2.254-0.942 0.967 0 1.725 0.318 2.254 0.944 0.611 0.725 0.862 1.826 0.671 2.947-0.336 1.974-0.921 3.403-1.695 4.134-0.188 0.181-0.284 0.432-0.262 0.688 0.089 1.079 0.344 2.224 1.567 2.536 0.46 0.134 3.648 1.244 4.058 1.531 0.212 0.22 0.432 1.575 0.407 3.166l-0.005 0.346h1.706l0.007-0.333c0.038-1.681-0.114-3.826-1.055-4.508z"></path>
</svg>
