<!-- Generated by IcoMoon.io -->
<svg version="1.1" xmlns="http://www.w3.org/2000/svg" width="24" height="24" viewBox="0 0 24 24">
<title>User_Operator</title>
<path d="M14.731 15.77c0.386 0.111 3.829 1.293 4.38 1.688 0.391 0.406 0.543 2.239 0.522 3.542h1.066c0.053-2.318-0.291-3.913-0.95-4.39-0.782-0.564-4.554-1.814-4.887-1.906v-0.001c-0.244-0.078-0.358-0.652-0.406-1.004l-0.013-0.097 0.065-0.073c0.909-1.015 1.558-2.639 1.929-4.826 0.269-1.57-0.109-3.147-1.011-4.217-0.82-0.972-2.005-1.485-3.426-1.485s-2.606 0.513-3.426 1.484c-0.902 1.069-1.281 2.646-1.015 4.219 0.372 2.189 1.021 3.812 1.929 4.826l0.066 0.073-0.014 0.098c-0.089 0.648-0.262 0.963-0.578 1.053-0.296 0.089-3.938 1.298-4.717 1.857-0.657 0.477-1 2.071-0.947 4.39h1.062c-0.019-1.275 0.129-3.129 0.478-3.5 0.583-0.424 3.965-1.597 4.46-1.737 0.835-0.212 1.22-0.882 1.338-2.316 0.014-0.162-0.046-0.319-0.165-0.431-0.858-0.812-1.503-2.365-1.864-4.494-0.215-1.266 0.077-2.52 0.779-3.352 0.619-0.734 1.499-1.105 2.614-1.105s1.993 0.372 2.613 1.107c0.702 0.832 0.992 2.084 0.776 3.351-0.362 2.128-1.007 3.682-1.866 4.493-0.118 0.113-0.178 0.27-0.164 0.43 0.118 1.434 0.514 2.107 1.369 2.323z"></path>
<path d="M6.522 18.075h2.926v2.925h-2.926v-2.925z"></path>
<path d="M10.537 18.075v2.925h2.926v-2.925h-2.926zM12.957 20.495h-1.914v-1.915h1.914v1.915z"></path>
<path d="M14.552 18.075v2.925h2.926v-2.925h-2.926zM16.973 20.495h-1.915v-1.915h1.915v1.915z"></path>
</svg>
