<!-- Generated by IcoMoon.io -->
<svg version="1.1" xmlns="http://www.w3.org/2000/svg" width="24" height="24" viewBox="0 0 24 24">
<title>VehicleLong</title>
<path d="M22.479 13.029h-11.57v1.359h11.57v-1.359z"></path>
<path d="M21.004 9.089h-2.956v5.272h4.453v-2.244l-1.496-3.028zM19.499 11.761v-2.012h1.289l0.943 2.012h-2.233z"></path>
<path d="M17.654 8.12h-7.754v6.267h7.754v-6.267z"></path>
<path d="M12.202 14.491c0.361 0 0.654 0.293 0.654 0.654s-0.293 0.654-0.654 0.654c-0.361 0-0.654-0.293-0.654-0.654s0.293-0.654 0.654-0.654zM12.202 13.868c-0.705 0-1.277 0.572-1.277 1.277s0.572 1.277 1.277 1.277c0.705 0 1.277-0.572 1.277-1.277s-0.572-1.277-1.277-1.277z"></path>
<path d="M15.352 14.491c0.361 0 0.654 0.293 0.654 0.654s-0.293 0.654-0.654 0.654-0.654-0.293-0.654-0.654c0-0.361 0.293-0.654 0.654-0.654zM15.352 13.868c-0.705 0-1.277 0.572-1.277 1.277s0.572 1.277 1.277 1.277c0.705 0 1.277-0.572 1.277-1.277s-0.572-1.277-1.277-1.277z"></path>
<path d="M20.274 14.485c0.361 0 0.654 0.293 0.654 0.654s-0.293 0.654-0.654 0.654c-0.361 0-0.654-0.293-0.654-0.654s0.293-0.654 0.654-0.654zM20.274 13.862c-0.705 0-1.277 0.572-1.277 1.277s0.572 1.277 1.277 1.277c0.705 0 1.277-0.572 1.277-1.277s-0.572-1.277-1.277-1.277z"></path>
<path d="M10.95 13.047h-2.1v1.341h2.1v-1.341z"></path>
<path d="M9.254 8.12h-7.754v6.267h7.754v-6.267z"></path>
<path d="M3.91 14.491c0.361 0 0.654 0.293 0.654 0.654s-0.293 0.654-0.654 0.654-0.654-0.293-0.654-0.654c0-0.361 0.293-0.654 0.654-0.654zM3.91 13.868c-0.705 0-1.277 0.572-1.277 1.277s0.572 1.277 1.277 1.277c0.705 0 1.277-0.572 1.277-1.277s-0.572-1.277-1.277-1.277z"></path>
<path d="M6.844 14.485c0.361 0 0.654 0.293 0.654 0.654s-0.293 0.654-0.654 0.654-0.654-0.293-0.654-0.654c0-0.361 0.293-0.654 0.654-0.654zM6.844 13.862c-0.705 0-1.277 0.572-1.277 1.277s0.572 1.277 1.277 1.277 1.277-0.572 1.277-1.277c0-0.705-0.572-1.277-1.277-1.277z"></path>
</svg>
