<!-- Generated by IcoMoon.io -->
<svg version="1.1" xmlns="http://www.w3.org/2000/svg" width="24" height="24" viewBox="0 0 24 24">
<title>Vehicle</title>
<path d="M20.969 13.475h-16.528v1.941h16.528v-1.941z"></path>
<path d="M18.863 7.846h-4.224v7.531h6.361v-3.206l-2.137-4.325zM16.713 11.663v-2.875h1.842l1.348 2.875-3.189 0z"></path>
<path d="M14.077 6.462h-11.077v8.953h11.077v-8.953z"></path>
<path d="M6.914 15.563c0.515 0 0.934 0.419 0.934 0.934s-0.419 0.934-0.934 0.934-0.934-0.419-0.934-0.934c0-0.515 0.419-0.934 0.934-0.934zM6.914 14.673c-1.007 0-1.824 0.816-1.824 1.824s0.816 1.824 1.824 1.824c1.007 0 1.824-0.816 1.824-1.824s-0.816-1.824-1.824-1.824z"></path>
<path d="M17.106 15.554c0.515 0 0.934 0.419 0.934 0.934s-0.419 0.934-0.934 0.934c-0.515 0-0.934-0.419-0.934-0.934s0.419-0.934 0.934-0.934zM17.106 14.664c-1.007 0-1.824 0.816-1.824 1.824s0.816 1.824 1.824 1.824c1.007 0 1.824-0.816 1.824-1.824s-0.816-1.824-1.824-1.824z"></path>
</svg>
