<!-- Generated by IcoMoon.io -->
<svg version="1.1" xmlns="http://www.w3.org/2000/svg" width="24" height="24" viewBox="0 0 24 24">
<title>Verify</title>
<path d="M12 4.434l6.97 3.617c-0.019 1.831-0.309 7.225-2.972 9.998-1.066 1.111-2.374 1.65-3.998 1.65s-2.932-0.54-3.998-1.651c-2.662-2.773-2.953-8.166-2.972-9.998l6.97-3.617zM12 2.986l-8.246 4.279-0.004 0.109c-0.013 0.318-0.276 7.816 3.324 11.566 1.303 1.358 2.96 2.046 4.926 2.046s3.623-0.688 4.926-2.046c3.6-3.75 3.337-11.248 3.324-11.566l-0.004-0.109-8.246-4.279z"></path>
<path d="M16.5 8.364l-5.393 5.595-2.581-2.488-1.102 1.144 3.725 3.59 6.496-6.739z"></path>
</svg>
