<!-- Generated by IcoMoon.io -->
<svg version="1.1" xmlns="http://www.w3.org/2000/svg" width="24" height="24" viewBox="0 0 24 24">
<title>WeighingNoAction</title>
<path fill="#000" d="M21 19.319l-3.322-11.224h1.829v-1.311h-6.849v-2.103h-1.309v2.103h-6.851v1.311h1.916l-3.415 11.224h8.342l-3.323-11.224h8.053l-3.414 11.224h8.342zM4.765 18.009l2.446-8.037 2.379 8.037h-4.824zM14.424 18.009l2.445-8.037 2.379 8.037h-4.823z"></path>
<path fill="#808080" d="M8.688 18.75c0 1.898-1.539 3.438-3.438 3.438s-3.438-1.539-3.438-3.438c0-1.898 1.539-3.438 3.438-3.438s3.438 1.539 3.438 3.438z"></path>
<path fill="#fff" d="M5.25 15.312c1.895 0 3.438 1.542 3.438 3.438s-1.542 3.438-3.438 3.438-3.438-1.542-3.438-3.438 1.542-3.438 3.438-3.438zM5.25 15c-2.071 0-3.75 1.679-3.75 3.75s1.679 3.75 3.75 3.75 3.75-1.679 3.75-3.75-1.679-3.75-3.75-3.75v0z"></path>
<path fill="#fff" d="M3.318 16.818c-1.067 1.067-1.067 2.797 0 3.864s2.797 1.067 3.864 0 1.067-2.797 0-3.864c-1.067-1.067-2.797-1.067-3.864 0zM3.627 17.127c0.842-0.842 2.175-0.881 3.075-0.139l-3.214 3.214c-0.742-0.901-0.703-2.233 0.139-3.075zM6.873 20.373c-0.842 0.842-2.175 0.881-3.075 0.139l3.214-3.214c0.742 0.901 0.703 2.233-0.139 3.075z"></path>
</svg>
