<!-- Generated by IcoMoon.io -->
<svg version="1.1" xmlns="http://www.w3.org/2000/svg" width="24" height="24" viewBox="0 0 24 24">
<title>Weight_Flow</title>
<path d="M20.839 19.837c-0.576 0-0.869-0.286-1.286-0.763l-0.028-0.030c-0.456-0.484-1.023-1.087-2.108-1.087-1.152 0-1.77 0.702-2.137 1.117l-0.055 0.059c-0.381 0.408-0.657 0.703-1.23 0.703-0.576 0-0.869-0.286-1.286-0.763l-0.028-0.030c-0.456-0.484-1.023-1.087-2.108-1.087-1.152 0-1.77 0.702-2.137 1.117l-0.055 0.059c-0.381 0.408-0.657 0.703-1.23 0.703-0.576 0-0.869-0.286-1.286-0.763l-0.028-0.030c-0.456-0.484-1.023-1.087-2.108-1.087-0.273 0-0.512 0.044-0.729 0.11v1.286c0.199-0.143 0.42-0.233 0.729-0.233 0.576 0 0.869 0.286 1.286 0.763l0.030 0.031c0.455 0.484 1.022 1.085 2.107 1.085 1.149 0 1.77-0.701 2.137-1.117l0.054-0.058c0.381-0.409 0.657-0.704 1.231-0.704 0.576 0 0.869 0.286 1.286 0.763l0.030 0.031c0.455 0.484 1.022 1.085 2.107 1.085 1.151 0 1.77-0.701 2.137-1.117l0.054-0.058c0.381-0.409 0.657-0.704 1.231-0.704 0.576 0 0.869 0.286 1.286 0.763l0.030 0.031c0.455 0.484 1.022 1.085 2.107 1.085h0.161v-1.163h-0.161z"></path>
<path d="M20.839 16.041c-0.576 0-0.869-0.286-1.286-0.763l-0.030-0.031c-0.455-0.484-1.022-1.085-2.107-1.085-1.151 0-1.77 0.701-2.137 1.117l-0.054 0.058c-0.381 0.409-0.657 0.704-1.231 0.704-0.576 0-0.869-0.286-1.286-0.763l-0.030-0.031c-0.455-0.484-1.022-1.085-2.107-1.085-1.151 0-1.77 0.701-2.137 1.117l-0.054 0.058c-0.381 0.409-0.657 0.704-1.231 0.704-0.576 0-0.869-0.286-1.286-0.763l-0.030-0.031c-0.455-0.484-1.022-1.085-2.107-1.085-0.273 0-0.512 0.044-0.729 0.11v1.286c0.199-0.143 0.42-0.233 0.729-0.233 0.576 0 0.869 0.286 1.286 0.763l0.030 0.032c0.455 0.483 1.022 1.085 2.106 1.085 1.149 0 1.769-0.702 2.137-1.117l0.055-0.059c0.381-0.408 0.657-0.703 1.23-0.703 0.576 0 0.869 0.286 1.286 0.763l0.030 0.032c0.455 0.483 1.022 1.085 2.106 1.085 1.151 0 1.77-0.702 2.137-1.117l0.055-0.059c0.381-0.408 0.657-0.703 1.23-0.703 0.576 0 0.869 0.286 1.286 0.763l0.030 0.032c0.455 0.483 1.022 1.085 2.106 1.085h0.161v-1.163h-0.161z"></path>
<path d="M12.098 13.286h-2.747c-0.717-0.133-0.996-0.886-1.025-0.972l-0.019-0.112 0.031-6.17c0.159-0.35 0.778-0.545 1.317-0.649 0.028-0.041 0.047-0.086 0.043-0.128-0.005-0.044-0.032-0.090-0.060-0.124h-0.365c-0.247-0.012-0.446-0.104-0.592-0.266-0.287-0.318-0.269-0.796-0.266-0.85-0.098-0.498 0.418-0.888 0.942-1.005l5.215-0.008c0.599 0.126 1.116 0.516 1.012 1.093 0 0 0-0.001 0.001-0.001 0.008 0 0.017 0.462-0.262 0.772-0.146 0.163-0.345 0.254-0.575 0.265h-0.383c-0.029 0.037-0.057 0.083-0.060 0.127-0.003 0.041 0.016 0.086 0.043 0.127 0.539 0.105 1.158 0.3 1.317 0.649l0.031 0.143-0.019 6.141c-0.030 0.085-0.309 0.838-0.96 0.964l-2.617 0.007zM8.994 12.137c0.070 0.163 0.234 0.43 0.422 0.467l5.233-0.007c0.13-0.031 0.289-0.3 0.357-0.46v-5.842c-0.126-0.068-0.533-0.195-0.906-0.259l-0.112-0.020-0.078-0.082c-0.273-0.289-0.309-0.566-0.292-0.747 0.039-0.408 0.37-0.654 0.408-0.681l0.090-0.065h0.613c0.185-0.009 0.172-0.389 0.172-0.393 0.032-0.231-0.338-0.353-0.407-0.37l-5.063 0.009c0.008 0.008-0.363 0.13-0.336 0.284 0.005 0.081-0.008 0.461 0.194 0.471l0.595-0.001 0.090 0.064c0.037 0.027 0.368 0.274 0.408 0.682 0.018 0.181-0.019 0.458-0.292 0.747l-0.078 0.082-0.112 0.019c-0.361 0.064-0.754 0.185-0.905 0.274v5.828z"></path>
</svg>
