<!-- Generated by IcoMoon.io -->
<svg version="1.1" xmlns="http://www.w3.org/2000/svg" width="24" height="24" viewBox="0 0 24 24">
<title>Weight_Captured</title>
<path d="M12.171 21.022h-4.807c-1.254-0.232-1.742-1.551-1.794-1.7l-0.033-0.197 0.054-10.797c0.278-0.612 1.362-0.953 2.305-1.137 0.048-0.072 0.082-0.151 0.076-0.225-0.008-0.078-0.057-0.157-0.106-0.217h-0.639c-0.432-0.021-0.78-0.182-1.037-0.465-0.501-0.557-0.471-1.394-0.466-1.488-0.172-0.872 0.732-1.554 1.649-1.759l9.126-0.015c1.048 0.22 1.952 0.903 1.771 1.912 0.001 0 0.001-0.001 0.001-0.001 0.014 0 0.029 0.809-0.459 1.351-0.256 0.285-0.604 0.445-1.007 0.464h-0.67c-0.051 0.065-0.099 0.145-0.106 0.222-0.006 0.072 0.028 0.151 0.076 0.222 0.943 0.184 2.027 0.524 2.305 1.135l0.054 0.25-0.033 10.747c-0.052 0.148-0.541 1.467-1.68 1.687l-4.58 0.012zM6.739 19.012c0.123 0.285 0.41 0.753 0.739 0.818l9.158-0.012c0.228-0.054 0.507-0.526 0.625-0.805v-10.223c-0.221-0.119-0.933-0.341-1.585-0.454l-0.196-0.035-0.137-0.144c-0.477-0.505-0.541-0.99-0.51-1.307 0.069-0.714 0.648-1.145 0.714-1.192l0.157-0.113h1.072c0.325-0.016 0.301-0.681 0.301-0.687 0.057-0.404-0.592-0.618-0.713-0.648l-8.861 0.016c0.013 0.013-0.636 0.228-0.588 0.496 0.009 0.141-0.015 0.806 0.34 0.824l1.042-0.001 0.157 0.112c0.065 0.047 0.645 0.48 0.714 1.194 0.031 0.317-0.033 0.802-0.51 1.307l-0.137 0.144-0.196 0.034c-0.632 0.112-1.32 0.323-1.584 0.479v10.198z"></path>
<path d="M8.438 10.688v3.034h0.784v-2.25h2.25v-0.784z"></path>
<path d="M12.528 10.688v0.784h2.25v2.25h0.784v-3.034z"></path>
<path d="M14.778 14.778v2.25h-2.25v0.784h3.034v-3.034z"></path>
<path d="M9.222 17.028v-2.25h-0.784v3.034h3.034v-0.784z"></path>
</svg>
