<!-- Generated by IcoMoon.io -->
<svg version="1.1" xmlns="http://www.w3.org/2000/svg" width="24" height="24" viewBox="0 0 24 24">
<title>WhiteBalance</title>
<path d="M3.128 3.043v18h18v-18h-18zM19.628 19.543h-15l15-15v15zM12.801 4.356l-1.652 6.375h-1.259l-1.009-3.661c-0.030-0.119-0.067-0.272-0.112-0.46s-0.086-0.369-0.125-0.545c-0.039-0.175-0.061-0.308-0.067-0.397-0.012 0.089-0.036 0.222-0.072 0.397s-0.074 0.357-0.116 0.545c-0.042 0.187-0.080 0.347-0.116 0.477l-0.982 3.643h-1.268l-1.643-6.375h1.143l0.875 3.634c0.041 0.155 0.082 0.331 0.12 0.527s0.076 0.391 0.112 0.585 0.063 0.362 0.080 0.504c0.018-0.155 0.045-0.329 0.080-0.522s0.073-0.384 0.112-0.571c0.039-0.187 0.079-0.347 0.12-0.478l1-3.678h1.107l1.018 3.688c0.041 0.137 0.083 0.3 0.125 0.491s0.080 0.381 0.116 0.571c0.035 0.191 0.062 0.357 0.080 0.5 0.018-0.143 0.045-0.311 0.080-0.504s0.074-0.387 0.116-0.581 0.080-0.37 0.116-0.531l0.875-3.634h1.143z"></path>
<path d="M13.783 12.043h1.807c0.779 0 1.368 0.112 1.769 0.336s0.601 0.613 0.601 1.168c0 0.347-0.087 0.637-0.26 0.87s-0.423 0.38-0.748 0.441v0.042c0.218 0.045 0.416 0.118 0.592 0.219s0.318 0.248 0.424 0.441c0.106 0.193 0.16 0.447 0.16 0.76 0 0.543-0.193 0.967-0.58 1.269s-0.91 0.454-1.572 0.454h-2.193v-6zM14.859 14.489h0.874c0.426 0 0.719-0.069 0.879-0.207s0.239-0.334 0.239-0.592c0-0.269-0.097-0.462-0.29-0.58s-0.497-0.176-0.912-0.176h-0.79v1.555zM14.859 15.354v1.789h0.975c0.437 0 0.741-0.085 0.912-0.256s0.256-0.393 0.256-0.668c0-0.263-0.088-0.473-0.265-0.63s-0.495-0.235-0.954-0.235h-0.924z"></path>
</svg>
