<!-- Generated by IcoMoon.io -->
<svg version="1.1" xmlns="http://www.w3.org/2000/svg" width="24" height="24" viewBox="0 0 24 24">
<title>WiFi-2</title>
<path d="M12 8.722c-2.644 0-5.007 1.195-6.572 3.069l1.378 1.156c1.236-1.483 3.106-2.429 5.194-2.429s3.958 0.947 5.194 2.429l1.378-1.156c-1.565-1.875-3.927-3.069-6.572-3.069z"></path>
<path d="M9.43 15.149c0.557-0.821 1.501-1.362 2.57-1.362s2.013 0.541 2.571 1.362l1.377-1.156c-0.891-1.212-2.325-2.002-3.948-2.002s-3.057 0.79-3.948 2.002l1.378 1.156z"></path>
<path d="M13.796 16.625c0 0.992-0.804 1.796-1.796 1.796s-1.796-0.804-1.796-1.796c0-0.992 0.804-1.796 1.796-1.796s1.796 0.804 1.796 1.796z"></path>
</svg>
