<!-- Generated by IcoMoon.io -->
<svg version="1.1" xmlns="http://www.w3.org/2000/svg" width="24" height="24" viewBox="0 0 24 24">
<title>Workflow</title>
<path d="M17.267 13.47v-2.2l3.733-3.733-4.537-4.537-3.733 3.733h-2.2c-0.371-1.715-1.896-3.005-3.721-3.005-2.1 0-3.809 1.709-3.809 3.809 0 1.824 1.29 3.35 3.005 3.721v2.123h-3.005v7.619h7.619v-7.619h-3.005v-2.123c1.523-0.329 2.699-1.573 2.945-3.125h1.962l3.137 3.137v2.2c-1.715 0.371-3.005 1.896-3.005 3.721 0 2.1 1.709 3.809 3.81 3.809s3.809-1.709 3.809-3.809c0-1.825-1.29-3.35-3.005-3.721zM9.436 19.816h-5.252v-5.252h5.252v5.252zM6.809 10.163c-1.448 0-2.626-1.178-2.626-2.626s1.178-2.626 2.626-2.626c1.448 0 2.626 1.178 2.626 2.626s-1.178 2.626-2.626 2.626zM16.463 4.674l2.863 2.863-2.863 2.864-2.864-2.864 2.864-2.863zM16.463 19.816c-1.448 0-2.626-1.178-2.626-2.626s1.178-2.626 2.626-2.626c1.448 0 2.626 1.178 2.626 2.626s-1.178 2.626-2.626 2.626z"></path>
</svg>
