<!-- Generated by IcoMoon.io -->
<svg version="1.1" xmlns="http://www.w3.org/2000/svg" width="24" height="24" viewBox="0 0 24 24">
<title>x10</title>
<path d="M16.984 5.399c-3.199-3.199-8.385-3.199-11.584 0s-3.199 8.385 0 11.584c2.748 2.748 6.961 3.133 10.123 1.16l2.857 2.857 2.621-2.621-2.857-2.857c1.973-3.161 1.588-7.375-1.16-10.123zM16.053 16.053c-2.681 2.681-7.043 2.681-9.724 0s-2.681-7.043 0-9.724c2.681-2.681 7.043-2.681 9.724 0s2.681 7.043 0 9.724z"></path>
<path d="M5.618 13.612c0-0.221 0.059-0.378 0.178-0.47s0.259-0.138 0.422-0.138c0.163 0 0.305 0.046 0.426 0.138s0.181 0.249 0.181 0.47c0 0.216-0.060 0.371-0.181 0.466s-0.263 0.142-0.426 0.142c-0.163 0-0.304-0.048-0.422-0.142s-0.178-0.25-0.178-0.466z"></path>
<path d="M11.507 11.299c0 0.605-0.063 1.124-0.189 1.555s-0.331 0.763-0.616 0.995c-0.284 0.232-0.66 0.347-1.129 0.347-0.663 0-1.15-0.255-1.46-0.766s-0.466-1.221-0.466-2.132c0-0.605 0.063-1.125 0.189-1.559s0.33-0.767 0.612-0.999c0.282-0.231 0.656-0.347 1.125-0.347 0.658 0 1.145 0.255 1.461 0.766s0.473 1.224 0.473 2.14zM8.649 11.299c0 0.69 0.067 1.208 0.201 1.555s0.375 0.521 0.723 0.521c0.342 0 0.583-0.172 0.722-0.517s0.209-0.865 0.209-1.559c0-0.69-0.069-1.209-0.209-1.559s-0.38-0.525-0.722-0.525c-0.347 0-0.588 0.175-0.723 0.525s-0.201 0.87-0.201 1.559z"></path>
<path d="M14.136 10.572c0.358 0 0.674 0.066 0.947 0.197s0.488 0.322 0.643 0.572 0.233 0.556 0.233 0.92c0 0.605-0.188 1.079-0.565 1.421s-0.92 0.513-1.63 0.513c-0.295 0-0.572-0.026-0.833-0.079s-0.483-0.129-0.667-0.229v-0.884c0.195 0.105 0.427 0.192 0.699 0.261s0.53 0.102 0.778 0.102c0.374 0 0.667-0.081 0.88-0.245s0.32-0.418 0.32-0.766c0-0.31-0.1-0.549-0.3-0.714s-0.51-0.249-0.931-0.249c-0.153 0-0.313 0.013-0.481 0.039s-0.308 0.053-0.418 0.079l-0.426-0.237 0.213-2.795h2.968v0.868h-2.092l-0.118 1.303c0.090-0.016 0.196-0.033 0.32-0.051s0.277-0.028 0.462-0.028z"></path>
</svg>
