<!-- Generated by IcoMoon.io -->
<svg version="1.1" xmlns="http://www.w3.org/2000/svg" width="24" height="24" viewBox="0 0 24 24">
<title>Zero</title>
<path d="M22.364 15.257l-3.257-3.257 3.257-3.257z"></path>
<path d="M1.636 8.743l3.257 3.257-3.257 3.257z"></path>
<path d="M17.987 12.012c0 1.877-0.195 3.486-0.588 4.824s-1.028 2.367-1.91 3.086c-0.881 0.718-2.049 1.078-3.501 1.078-2.058 0-3.568-0.792-4.53-2.376s-1.445-3.788-1.445-6.612c0-1.877 0.196-3.49 0.588-4.836s1.025-2.38 1.898-3.098c0.873-0.718 2.036-1.078 3.49-1.078 2.041 0 3.551 0.792 4.531 2.376 0.978 1.584 1.468 3.796 1.468 6.637zM9.122 12.012c0 2.139 0.209 3.747 0.625 4.824s1.163 1.617 2.241 1.617c1.061 0 1.808-0.535 2.24-1.604 0.434-1.069 0.649-2.682 0.649-4.836 0-2.139-0.215-3.75-0.649-4.836-0.432-1.086-1.179-1.629-2.24-1.629-1.078 0-1.824 0.543-2.241 1.629s-0.625 2.698-0.625 4.836z"></path>
</svg>
